<svg xmlns="http://www.w3.org/2000/svg" width="57.567" height="40.297" viewBox="0 0 57.567 40.297"><defs><style>.a{fill:#002169;}</style></defs><path class="a" d="M8.635,19.52a5.757,5.757,0,1,0-5.757-5.757A5.762,5.762,0,0,0,8.635,19.52Zm40.3,0a5.757,5.757,0,1,0-5.757-5.757A5.762,5.762,0,0,0,48.932,19.52ZM51.81,22.4H46.054A5.74,5.74,0,0,0,42,24.071a13.157,13.157,0,0,1,6.755,9.84h5.937a2.875,2.875,0,0,0,2.878-2.878V28.155A5.762,5.762,0,0,0,51.81,22.4Zm-23.027,0A10.074,10.074,0,1,0,18.709,12.324,10.069,10.069,0,0,0,28.783,22.4Zm6.908,2.878h-.747a13.909,13.909,0,0,1-12.323,0h-.747A10.365,10.365,0,0,0,11.513,35.639v2.591a4.319,4.319,0,0,0,4.318,4.318H41.736a4.319,4.319,0,0,0,4.318-4.318V35.639A10.365,10.365,0,0,0,35.692,25.277ZM15.57,24.071A5.74,5.74,0,0,0,11.513,22.4H5.757A5.762,5.762,0,0,0,0,28.155v2.878a2.875,2.875,0,0,0,2.878,2.878H8.806A13.19,13.19,0,0,1,15.57,24.071Z" transform="translate(0 -2.25)"/></svg>