<svg xmlns="http://www.w3.org/2000/svg" width="72.03" height="50" viewBox="0 0 72.03 50"><defs><style>.a{fill:#004289;}.b{fill:#009fe3;}</style></defs><g transform="translate(0 0)"><path class="a" d="M26.519,11.312c.327-.215.56-.411.691-.514.616-.5.822-.215.271.691a7.6,7.6,0,0,1-3.3,2.625c-.29.14-.607.271,0,.57a22.621,22.621,0,0,0,3.035,1.13,34.1,34.1,0,0,0,9.536,1.756c3.148,0,5.959-.42,7.575-.551,1.214-.1,3.857-.336,5.165,2.017,1.1,1.98.869,8.135.934,9.545v9.956c0,.486,0,.859-.4.934a9.358,9.358,0,0,1-1.457,0h-.757c-.532,0-.523.252-.523.392,0,.308.112.644-.57.663H44.526c-.2,0-.514-.4-.224-.934,2.8-5.034,2.6-8.873.934-11.012-.112.392-.215.719-.3,1.158-.215,1.167-.458,1.681-.71,1.868A17.753,17.753,0,0,0,39.2,39.3c-.14.383-.42.243-.551.411s.243.766-.626.794H35.672c-.4,0-.626-.486-.224-.934.934-1.1,6.024-5.959,5.772-11a3.857,3.857,0,0,0-.364-1.485c-.047-.047-.934-.794-2.8.729-.205.177-.233.112-.5,0a7.173,7.173,0,0,0-4.166-.476,2.914,2.914,0,0,0-1.784,3.615c.654,2.867,2.12,5.324,2.69,8.219.065.523-.29.392-.448.588s.243.813-.663.813H30.955c-.43,0-.654-.177-.374-1.065a9.48,9.48,0,0,0,.308-1.662,10.087,10.087,0,0,0-.205-2.8,8.116,8.116,0,0,0-3.8-5.866c-1,.644-2.625,5.6-3.082,8.91-.075.532-.084.663-.093.8-.065.822-.56.523-.7.766s.187.831-.71.831H20.149c-.439,0-.5-.476-.177-1.065,1.364-2.447,3.512-6.23,3.474-10.274a4.549,4.549,0,0,0-.654-2.653,29.047,29.047,0,0,1-3.035-5.2,2.709,2.709,0,0,0-1.784-1.308c-.5-.159-.934.065-1.494-.252a12.412,12.412,0,0,1-.934-1.046.934.934,0,0,1-.168-1.308c.654-.822,1.186-1.354,1.261-1.868a3.3,3.3,0,0,1,.047-.523,7.472,7.472,0,0,1,1.13-1.6c.2-.233,0-.644-.318-1.046a6.538,6.538,0,0,1-1.4-4.231c0-.934.327-.934.56-.243a6.435,6.435,0,0,0,4.222,4.231A6.407,6.407,0,0,0,26.519,11.312Zm21.79,9.5a25.8,25.8,0,0,1-.121,2.8,9.461,9.461,0,0,0-.205,2.615,27.253,27.253,0,0,0,.766,3.587.215.215,0,0,0,.392-.14c0-.14.262-6.949-.346-8.639C48.636,20.438,48.346,20.4,48.309,20.811Z" transform="translate(-1.002 -0.487)"/><path class="a" d="M35.92,52.569v-4.6c0-.794,0-2.2-2.7-2.2a6.865,6.865,0,0,0-2.083.318c-.448.149-.6.318-.6.551v5.95c0,.224.075.252.262.252h.654c.177,0,.28,0,.28-.262V47.1c0-.308.5-.616,1.438-.616,1.532,0,1.532,1.009,1.532,1.625v4.464c0,.234.075.262.29.262h.738C35.91,52.8,35.92,52.69,35.92,52.569Z" transform="translate(-2.016 -3.02)"/><path class="a" d="M43.432,49.4a3.568,3.568,0,0,0-1.28-3.148,3.3,3.3,0,0,0-3.474,0A3.587,3.587,0,0,0,37.4,49.4a3.577,3.577,0,0,0,1.28,3.12,3.3,3.3,0,0,0,3.474,0,3.559,3.559,0,0,0,1.28-3.12Zm-1.233,0a3.521,3.521,0,0,1-.616,2.419,1.513,1.513,0,0,1-1.167.439,1.476,1.476,0,0,1-1.158-.439,3.409,3.409,0,0,1-.635-2.419,3.418,3.418,0,0,1,.635-2.428,1.476,1.476,0,0,1,1.158-.439,1.513,1.513,0,0,1,1.167.439A3.531,3.531,0,0,1,42.2,49.4Z" transform="translate(-2.467 -3.02)"/><path class="a" d="M48.727,46.451c0-.476-.813-.691-1.728-.691a5.258,5.258,0,0,0-1.522.215c-.458.121-.616.318-.616.551v6.08c0,.215.084.224.262.224H45.8c.168,0,.243,0,.243-.224V47a.616.616,0,0,1,.682-.607c.859,0,.99.635,1.438.635a.551.551,0,0,0,.56-.579Z" transform="translate(-2.961 -3.02)"/><path class="a" d="M54.833,51.937V43.531c0-.243-.065-.271-.271-.271h-.654c-.224,0-.252.075-.252.29v2.419A2.914,2.914,0,0,0,52.2,45.6c-2.064,0-3.129,1.961-3.129,3.605,0,2.438,1.345,3.633,3.372,3.633C53.441,52.871,54.833,52.357,54.833,51.937Zm-1.158-.392c0,.355-.56.542-1.177.542-1.289,0-2.214-1.083-2.214-2.942,0-1.616.887-2.69,2.111-2.69a1.775,1.775,0,0,1,1.28.42Z" transform="translate(-3.239 -2.855)"/><path class="a" d="M58.238,43.834a.729.729,0,0,0-1.448,0,.682.682,0,0,0,.719.691A.71.71,0,0,0,58.238,43.834Zm-.131,8.593V46c0-.205-.056-.252-.271-.252h-.691c-.233,0-.233.084-.233.252v6.426c0,.177,0,.233.205.233h.719C58.042,52.661,58.107,52.651,58.107,52.427Z" transform="translate(-3.748 -2.851)"/><path class="a" d="M70.5,52.525a.28.28,0,0,0-.093-.177L67.874,49h0a8.3,8.3,0,0,0,2.382-2.8.532.532,0,0,0,.075-.271c0-.121-.065-.149-.243-.149h-.626c-.233,0-.346,0-.411.205a5.9,5.9,0,0,1-2.363,2.961.131.131,0,0,0-.056.084.14.14,0,0,0,0,.065l2.382,3.4c.131.2.187.2.392.2h.934S70.5,52.655,70.5,52.525Zm-4.072-.056V43.437c0-.187-.084-.187-.252-.187h-.7c-.149,0-.233,0-.233.215v8.994c0,.177.047.205.233.205h.7C66.361,52.665,66.426,52.665,66.426,52.469Z" transform="translate(-4.306 -2.855)"/><path class="a" d="M63.918,50.974c0-2.242-3.288-1.868-3.288-3.381a1.065,1.065,0,0,1,1.2-1.027c.775,0,.934.5,1.373.5a.458.458,0,0,0,.486-.467c0-.5-.869-.8-1.793-.8-1.214,0-2.279.654-2.279,1.868s.813,1.644,1.793,2.055c.775.327,1.494.616,1.494,1.354a1.242,1.242,0,0,1-1.373,1.167c-.934,0-1.2-.691-1.663-.691-.224,0-.5.093-.5.439,0,.551,1.065,1.018,2.148,1.018A2.194,2.194,0,0,0,63.918,50.974Z" transform="translate(-3.918 -3.023)"/><path class="a" d="M5.37,52.569v-4.6c0-.794,0-2.2-2.69-2.2A6.809,6.809,0,0,0,.6,46.078c-.458.149-.6.318-.6.551v5.95c0,.224.065.252.252.252H.934c.187,0,.28,0,.28-.262V47.1c0-.308.5-.616,1.438-.616,1.56,0,1.56,1.009,1.56,1.625v4.465c0,.233.084.262.3.262H5.24C5.361,52.8,5.37,52.69,5.37,52.569Z" transform="translate(0 -3.02)"/><path class="a" d="M12.892,49.4A3.568,3.568,0,0,0,11.6,46.255a3.278,3.278,0,0,0-3.465,0A3.568,3.568,0,0,0,6.858,49.4a3.559,3.559,0,0,0,1.28,3.12,3.064,3.064,0,0,0,1.728.5,3.073,3.073,0,0,0,1.737-.5,3.559,3.559,0,0,0,1.289-3.12Zm-1.233,0a3.465,3.465,0,0,1-.626,2.419,1.494,1.494,0,0,1-1.167.439,1.5,1.5,0,0,1-1.158-.439A3.465,3.465,0,0,1,8.082,49.4a3.474,3.474,0,0,1,.626-2.428,1.5,1.5,0,0,1,1.158-.439,1.494,1.494,0,0,1,1.167.439,3.474,3.474,0,0,1,.626,2.428Z" transform="translate(-0.451 -3.02)"/><path class="a" d="M25.933,49.4a3.568,3.568,0,0,0-1.27-3.148,3.278,3.278,0,0,0-3.465,0,3.568,3.568,0,0,0-1.28,3.148,3.559,3.559,0,0,0,1.27,3.12,3.278,3.278,0,0,0,3.474,0,3.558,3.558,0,0,0,1.27-3.12Zm-1.224,0a3.465,3.465,0,0,1-.626,2.419,1.756,1.756,0,0,1-2.326,0,3.465,3.465,0,0,1-.626-2.419,3.474,3.474,0,0,1,.626-2.428,1.756,1.756,0,0,1,2.326,0A3.474,3.474,0,0,1,24.71,49.4Z" transform="translate(-1.313 -3.02)"/><path class="a" d="M19.378,46.07c0-.14-.112-.14-.177-.14h-.663c-.093,0-.121.056-.159.187l-1.737,5.09-1.8-5.062c-.065-.187-.093-.215-.29-.215h-.813c-.056,0-.187,0-.187.159a.588.588,0,0,0,0,.2l2.419,6.351c.065.149.093.2.2.205h.607c.159,0,.187,0,.252-.2l2.335-6.361A.719.719,0,0,0,19.378,46.07Z" transform="translate(-0.894 -3.031)"/><path class="a" d="M17.74,5.4a5.389,5.389,0,1,1,1.575,3.817A5.4,5.4,0,0,1,17.74,5.4Z" transform="translate(-1.171 0)"/><path class="a" d="M72.612,38.418h.635c.336,0,.878,0,.878.514s-.57.523-.841.523h-.672Zm-.56,2.979h.56V39.94h.327c.448,0,.616.168,1.027.934l.308.542h.682l-.42-.719c-.43-.682-.607-.785-.8-.859h0a.921.921,0,0,0,.607-1.625A1.784,1.784,0,0,0,73.2,37.97H72.052Zm1.41-4.988a3.213,3.213,0,1,0,3.2,3.213,3.213,3.213,0,0,0-3.2-3.213Zm0,.542a9213.594,9213.594,0,1,1-.009.009Z" transform="translate(-4.636 -2.403)"/><path class="b" d="M19.85,4.844a3.633,3.633,0,1,1,1.061,2.575A3.633,3.633,0,0,1,19.85,4.844Z" transform="translate(-1.31 -0.081)"/><path class="b" d="M24.336,16.329c-.467-.28-1.438-.775-2.391-1.336-1.737-1.009-2.615-1.541-3.269-1.009a4.875,4.875,0,0,0-1.289,1.56c-.093.262-.056.934-.28,1.186s-.43.616-.794,1.055c-.5.607-.131.8.392,1.438s1.634,0,2.9.934a7.3,7.3,0,0,1,1.7,2.232c.271.439.439.177.663-.411A33.119,33.119,0,0,1,24.2,17.59C24.467,17.161,24.85,16.656,24.336,16.329Zm-5.94-.243c-.523-.878,1.373-1.121,1.466-.85S18.91,16.974,18.4,16.087Z" transform="translate(-1.061 -0.909)"/><path class="b" d="M35,19.882c-.065-.5-.149-.85.663-.813,1.093.056,1.625.112,2.3.1s1.747,0,2.1-.065a1.093,1.093,0,0,1,1.27.644c.205.5.934,2.512-.271,3.073a8.07,8.07,0,0,1-4.894.486c-.411-.112-1.083-.271-1.065-1.1A18.793,18.793,0,0,0,35,19.882Z" transform="translate(-2.307 -1.258)"/><path class="b" d="M45.056,19.349a5.417,5.417,0,0,1,1.065,2.307c.075.486.729.3.813-.159a3.39,3.39,0,0,0-.588-2.391,1.093,1.093,0,0,0-1.074-.308C44.832,18.882,44.72,18.984,45.056,19.349Z" transform="translate(-2.961 -1.238)"/><path class="b" d="M34.427,26.453c-.327.1-3.129.934-3.185,3.736,0,.85-.252.766-.644.467a45.608,45.608,0,0,0-4.717-3.185A5.95,5.95,0,0,1,23.947,25.7a4.25,4.25,0,0,1-.43-4.007,18.213,18.213,0,0,1,1.625-3.25c.934-1.336.813-1.354,2.559-.794,1.569.5,1.485.7,1.5,1.466A11.086,11.086,0,0,1,28.9,21.97a.85.85,0,0,0,.813,1.055c2.456.065,2.512-3.353,2.512-3.362,0-.794-.252-.934.532-.878.588.065.7.56.785,1.457v1.971a1.513,1.513,0,0,0,1.252,1.6,9.228,9.228,0,0,0,5.968-.532,1.7,1.7,0,0,0,.934-1.812,8.769,8.769,0,0,0-.392-1.943c-.149-.374-.131-.635.187-.672,1.5-.2,2.176,1.364,2.69,3.269.168.616,1.018.579,1.457.159A2.195,2.195,0,0,0,46,19.98a3.876,3.876,0,0,0-.355-.934c-.112-.187-.14-.346.271-.346,2.737,0,2.055,5.053,2.017,5.492s-.271,1.709-.383,2.251c-.486,2.232-1.644,1.336-2.008,1.1a8.994,8.994,0,0,0-4.194-1.41C37.64,25.818,35.538,26.079,34.427,26.453Z" transform="translate(-1.531 -1.142)"/><path class="b" d="M30.45,18.965a11.5,11.5,0,0,1-.29,3.054c0,.327.4.411.719.233.56-.308.99-1.382.934-3.035,0-.4,0-.588-.672-.691S30.4,18.4,30.45,18.965Z" transform="translate(-1.991 -1.219)"/></g></svg>