<svg xmlns="http://www.w3.org/2000/svg" width="46.875" height="37.5" viewBox="0 0 46.875 37.5"><defs><style>.a{fill:#002169;}</style></defs><path class="a" d="M36.47,16.548,20.952,1.03A3.516,3.516,0,0,0,18.466,0H3.516A3.516,3.516,0,0,0,0,3.516v14.95a3.516,3.516,0,0,0,1.03,2.486L16.548,36.47a3.516,3.516,0,0,0,4.972,0L36.47,21.52a3.516,3.516,0,0,0,0-4.972ZM8.2,11.719A3.516,3.516,0,1,1,11.719,8.2,3.516,3.516,0,0,1,8.2,11.719Zm37.642,9.8L30.9,36.47a3.516,3.516,0,0,1-4.972,0l-.026-.026L38.645,23.7a6.592,6.592,0,0,0,0-9.322L24.272,0h3.568a3.516,3.516,0,0,1,2.486,1.03L45.845,16.548a3.516,3.516,0,0,1,0,4.972Z"/></svg>