<svg xmlns="http://www.w3.org/2000/svg" width="25.75" height="20.25" viewBox="0 0 25.75 20.25"><defs><style>.a{fill:none;stroke:#000000;}</style></defs><path class="a" d="M22.688,2.25H2.063A2.063,2.063,0,0,0,0,4.313V19.438A2.063,2.063,0,0,0,2.063,21.5H22.688a2.063,2.063,0,0,0,2.063-2.062V4.313A2.063,2.063,0,0,0,22.688,2.25ZM7.563,6.375a2.75,2.75,0,1,1-2.75,2.75A2.753,2.753,0,0,1,7.563,6.375ZM12.375,16.55a.9.9,0,0,1-.963.825h-7.7a.9.9,0,0,1-.962-.825v-.825A2.706,2.706,0,0,1,5.638,13.25h.215a4.426,4.426,0,0,0,3.42,0h.215a2.706,2.706,0,0,1,2.887,2.475ZM22,14.281a.345.345,0,0,1-.344.344H15.469a.345.345,0,0,1-.344-.344v-.687a.345.345,0,0,1,.344-.344h6.187a.345.345,0,0,1,.344.344Zm0-2.75a.345.345,0,0,1-.344.344H15.469a.345.345,0,0,1-.344-.344v-.687a.345.345,0,0,1,.344-.344h6.187a.345.345,0,0,1,.344.344Zm0-2.75a.345.345,0,0,1-.344.344H15.469a.345.345,0,0,1-.344-.344V8.094a.345.345,0,0,1,.344-.344h6.187A.345.345,0,0,1,22,8.094Z" transform="translate(0.5 -1.75)"/></svg>