<svg xmlns="http://www.w3.org/2000/svg" width="39.474" height="37.5" viewBox="0 0 39.474 37.5"><defs><style>.a{fill:#002169;}</style></defs><path class="a" d="M38.526,10.895h-4.3a5.907,5.907,0,0,0-10.5-5.23l-.987,1.322L21.75,5.645a5.909,5.909,0,0,0-10.5,5.25h-4.3A3.917,3.917,0,0,0,3.02,14.842L3,36.553A3.934,3.934,0,0,0,6.947,40.5H38.526a3.934,3.934,0,0,0,3.947-3.947V14.842A3.934,3.934,0,0,0,38.526,10.895ZM28.658,6.947a1.974,1.974,0,1,1-1.974,1.974A1.979,1.979,0,0,1,28.658,6.947Zm-11.842,0a1.974,1.974,0,1,1-1.974,1.974A1.979,1.979,0,0,1,16.816,6.947ZM38.526,36.553H6.947V32.605H38.526Zm0-9.868H6.947V14.842H16.974l-4.105,5.586,3.2,2.309,4.7-6.395,1.974-2.684,1.974,2.684,4.7,6.395,3.2-2.309L28.5,14.842H38.526Z" transform="translate(-3 -3)"/></svg>