<svg xmlns="http://www.w3.org/2000/svg" width="20.995" height="21" viewBox="0 0 20.995 21"><defs><style>.a{fill:#000000;}</style></defs><path class="a" d="M21,4.275V21.225a2,2,0,0,1-2.025,2.025H2.025A2.008,2.008,0,0,1,0,21.221V4.275A2,2,0,0,1,2.025,2.25H18.975A2,2,0,0,1,21,4.275ZM19.247,21.221V4.275A.278.278,0,0,0,18.975,4H18.54L2.46,4H2.025a.278.278,0,0,0-.272.272V21.221a.278.278,0,0,0,.272.272H18.975A.272.272,0,0,0,19.247,21.221ZM7.039,9.467V11.2H3.595V9.467Zm0,3.487V14.7H3.595V12.954ZM10.09,4ZM17.4,9.467V11.2H8.215V9.467Zm0,3.487V14.7H8.215V12.954ZM16.459,4h0ZM17.4,16.45V18.2H12.742V16.45H17.4Z" transform="translate(0 -2.25)"/></svg>