<svg xmlns="http://www.w3.org/2000/svg" width="20.75" height="20.75" viewBox="0 0 20.75 20.75"><defs><style>.a{fill:#fff;}</style></defs><g transform="translate(-928 -176)"><path class="a" d="M12.946,1.928A10.375,10.375,0,1,0,23.32,12.3,10.375,10.375,0,0,0,12.946,1.928Zm0,18.8a8.43,8.43,0,1,1,8.43-8.43,8.43,8.43,0,0,1-8.43,8.43ZM16.188,7.115l-3.242,3.242L9.7,7.115,7.758,9.061,11,12.3,7.758,15.545,9.7,17.49l3.242-3.242,3.242,3.242,1.945-1.945L14.891,12.3l3.242-3.242Z" transform="translate(925.43 174.072)"/></g></svg>