<svg xmlns="http://www.w3.org/2000/svg" width="11.475" height="17.011" viewBox="0 0 11.475 17.011"><defs><style>.a,.c{fill:none;stroke:#0fe;stroke-linecap:round;stroke-width:2px;}.a{stroke-linejoin:round;}.b{fill:#0fe;}</style></defs><g transform="translate(0 1.339)"><path class="a" d="M-6032.195-4135.6l-4.005,8.118,4.005,5.127" transform="translate(6041.297 4135.6)"/><path class="b" d="M1.072,1.139a.973.973,0,0,1,1.595,0h0a.973.973,0,0,1-.8,1.531h0a.973.973,0,0,1-.8-1.531Z" transform="translate(11.475 13.028) rotate(135)"/><path class="c" d="M-6038.95-4120l-3.151,4.7" transform="translate(6044.58 4127.264)"/><path class="b" d="M1.072,1.139a.973.973,0,0,1,1.595,0h0a.973.973,0,0,1-.8,1.531h0a.973.973,0,0,1-.8-1.531Z" transform="translate(2.644 14.603) rotate(-135)"/></g></svg>