<svg xmlns="http://www.w3.org/2000/svg" width="25" height="23" viewBox="0 0 25 23"><defs><style>.a{fill:none;}.b,.c{stroke:none;}.c{fill:#707070;}</style></defs><g class="a" transform="translate(-7194 -3975)"><path class="b" d="M7212,3994.5a3.5,3.5,0,1,1,3.5,3.5A3.5,3.5,0,0,1,7212,3994.5Zm-9,0a3.5,3.5,0,1,1,3.5,3.5A3.5,3.5,0,0,1,7203,3994.5Zm-9,0a3.5,3.5,0,1,1,3.5,3.5A3.5,3.5,0,0,1,7194,3994.5Zm18-8a3.5,3.5,0,1,1,3.5,3.5A3.5,3.5,0,0,1,7212,3986.5Zm-9,0a3.5,3.5,0,1,1,3.5,3.5A3.5,3.5,0,0,1,7203,3986.5Zm-9,0a3.5,3.5,0,1,1,3.5,3.5A3.5,3.5,0,0,1,7194,3986.5Zm18-8a3.5,3.5,0,1,1,3.5,3.5A3.5,3.5,0,0,1,7212,3978.5Zm-9,0a3.5,3.5,0,1,1,3.5,3.5A3.5,3.5,0,0,1,7203,3978.5Zm-9,0a3.5,3.5,0,1,1,3.5,3.5A3.5,3.5,0,0,1,7194,3978.5Z"/><path class="c" d="M 7215.5 3997.000244140625 C 7216.87841796875 3997.000244140625 7218 3995.878662109375 7218 3994.5 C 7218 3993.121337890625 7216.87841796875 3991.999755859375 7215.5 3991.999755859375 C 7214.12109375 3991.999755859375 7212.99951171875 3993.121337890625 7212.99951171875 3994.5 C 7212.99951171875 3995.878662109375 7214.12109375 3997.000244140625 7215.5 3997.000244140625 M 7206.4990234375 3997.000244140625 C 7207.8779296875 3997.000244140625 7208.99951171875 3995.878662109375 7208.99951171875 3994.5 C 7208.99951171875 3993.121337890625 7207.8779296875 3991.999755859375 7206.4990234375 3991.999755859375 C 7205.12109375 3991.999755859375 7204.00048828125 3993.121337890625 7204.00048828125 3994.5 C 7204.00048828125 3995.878662109375 7205.12109375 3997.000244140625 7206.4990234375 3997.000244140625 M 7197.50048828125 3997.000244140625 C 7198.87890625 3997.000244140625 7200.00048828125 3995.878662109375 7200.00048828125 3994.5 C 7200.00048828125 3993.121337890625 7198.87890625 3991.999755859375 7197.50048828125 3991.999755859375 C 7196.12158203125 3991.999755859375 7195 3993.121337890625 7195 3994.5 C 7195 3995.878662109375 7196.12158203125 3997.000244140625 7197.50048828125 3997.000244140625 M 7215.5 3988.999755859375 C 7216.87841796875 3988.999755859375 7218 3987.878173828125 7218 3986.49951171875 C 7218 3985.120849609375 7216.87841796875 3983.999267578125 7215.5 3983.999267578125 C 7214.12109375 3983.999267578125 7212.99951171875 3985.120849609375 7212.99951171875 3986.49951171875 C 7212.99951171875 3987.878173828125 7214.12109375 3988.999755859375 7215.5 3988.999755859375 M 7206.4990234375 3988.999755859375 C 7207.8779296875 3988.999755859375 7208.99951171875 3987.878173828125 7208.99951171875 3986.49951171875 C 7208.99951171875 3985.120849609375 7207.8779296875 3983.999267578125 7206.4990234375 3983.999267578125 C 7205.12109375 3983.999267578125 7204.00048828125 3985.120849609375 7204.00048828125 3986.49951171875 C 7204.00048828125 3987.878173828125 7205.12109375 3988.999755859375 7206.4990234375 3988.999755859375 M 7197.50048828125 3988.999755859375 C 7198.87890625 3988.999755859375 7200.00048828125 3987.878173828125 7200.00048828125 3986.49951171875 C 7200.00048828125 3985.120849609375 7198.87890625 3983.999267578125 7197.50048828125 3983.999267578125 C 7196.12158203125 3983.999267578125 7195 3985.120849609375 7195 3986.49951171875 C 7195 3987.878173828125 7196.12158203125 3988.999755859375 7197.50048828125 3988.999755859375 M 7215.5 3980.9990234375 C 7216.87841796875 3980.9990234375 7218 3979.87841796875 7218 3978.500732421875 C 7218 3977.1220703125 7216.87841796875 3976.00048828125 7215.5 3976.00048828125 C 7214.12109375 3976.00048828125 7212.99951171875 3977.1220703125 7212.99951171875 3978.500732421875 C 7212.99951171875 3979.87841796875 7214.12109375 3980.9990234375 7215.5 3980.9990234375 M 7206.4990234375 3980.9990234375 C 7207.8779296875 3980.9990234375 7208.99951171875 3979.87841796875 7208.99951171875 3978.500732421875 C 7208.99951171875 3977.1220703125 7207.8779296875 3976.00048828125 7206.4990234375 3976.00048828125 C 7205.12109375 3976.00048828125 7204.00048828125 3977.1220703125 7204.00048828125 3978.500732421875 C 7204.00048828125 3979.87841796875 7205.12109375 3980.9990234375 7206.4990234375 3980.9990234375 M 7197.50048828125 3980.9990234375 C 7198.87890625 3980.9990234375 7200.00048828125 3979.87841796875 7200.00048828125 3978.500732421875 C 7200.00048828125 3977.1220703125 7198.87890625 3976.00048828125 7197.50048828125 3976.00048828125 C 7196.12158203125 3976.00048828125 7195 3977.1220703125 7195 3978.500732421875 C 7195 3979.87841796875 7196.12158203125 3980.9990234375 7197.50048828125 3980.9990234375 M 7215.5 3998.000244140625 C 7213.56689453125 3998.000244140625 7211.99951171875 3996.43310546875 7211.99951171875 3994.5 C 7211.99951171875 3992.56689453125 7213.56689453125 3990.999755859375 7215.5 3990.999755859375 C 7217.43310546875 3990.999755859375 7219 3992.56689453125 7219 3994.5 C 7219 3996.43310546875 7217.43310546875 3998.000244140625 7215.5 3998.000244140625 Z M 7206.4990234375 3998.000244140625 C 7204.56591796875 3998.000244140625 7203.00048828125 3996.43310546875 7203.00048828125 3994.5 C 7203.00048828125 3992.56689453125 7204.56591796875 3990.999755859375 7206.4990234375 3990.999755859375 C 7208.43212890625 3990.999755859375 7209.99951171875 3992.56689453125 7209.99951171875 3994.5 C 7209.99951171875 3996.43310546875 7208.43212890625 3998.000244140625 7206.4990234375 3998.000244140625 Z M 7197.50048828125 3998.000244140625 C 7195.5673828125 3998.000244140625 7194 3996.43310546875 7194 3994.5 C 7194 3992.56689453125 7195.5673828125 3990.999755859375 7197.50048828125 3990.999755859375 C 7199.43359375 3990.999755859375 7201.00048828125 3992.56689453125 7201.00048828125 3994.5 C 7201.00048828125 3996.43310546875 7199.43359375 3998.000244140625 7197.50048828125 3998.000244140625 Z M 7215.5 3989.999755859375 C 7213.56689453125 3989.999755859375 7211.99951171875 3988.4326171875 7211.99951171875 3986.49951171875 C 7211.99951171875 3984.56640625 7213.56689453125 3982.999267578125 7215.5 3982.999267578125 C 7217.43310546875 3982.999267578125 7219 3984.56640625 7219 3986.49951171875 C 7219 3988.4326171875 7217.43310546875 3989.999755859375 7215.5 3989.999755859375 Z M 7206.4990234375 3989.999755859375 C 7204.56591796875 3989.999755859375 7203.00048828125 3988.4326171875 7203.00048828125 3986.49951171875 C 7203.00048828125 3984.56640625 7204.56591796875 3982.999267578125 7206.4990234375 3982.999267578125 C 7208.43212890625 3982.999267578125 7209.99951171875 3984.56640625 7209.99951171875 3986.49951171875 C 7209.99951171875 3988.4326171875 7208.43212890625 3989.999755859375 7206.4990234375 3989.999755859375 Z M 7197.50048828125 3989.999755859375 C 7195.5673828125 3989.999755859375 7194 3988.4326171875 7194 3986.49951171875 C 7194 3984.56640625 7195.5673828125 3982.999267578125 7197.50048828125 3982.999267578125 C 7199.43359375 3982.999267578125 7201.00048828125 3984.56640625 7201.00048828125 3986.49951171875 C 7201.00048828125 3988.4326171875 7199.43359375 3989.999755859375 7197.50048828125 3989.999755859375 Z M 7215.5 3981.9990234375 C 7213.56689453125 3981.9990234375 7211.99951171875 3980.433837890625 7211.99951171875 3978.500732421875 C 7211.99951171875 3976.567626953125 7213.56689453125 3975.00048828125 7215.5 3975.00048828125 C 7217.43310546875 3975.00048828125 7219 3976.567626953125 7219 3978.500732421875 C 7219 3980.433837890625 7217.43310546875 3981.9990234375 7215.5 3981.9990234375 Z M 7206.4990234375 3981.9990234375 C 7204.56591796875 3981.9990234375 7203.00048828125 3980.433837890625 7203.00048828125 3978.500732421875 C 7203.00048828125 3976.567626953125 7204.56591796875 3975.00048828125 7206.4990234375 3975.00048828125 C 7208.43212890625 3975.00048828125 7209.99951171875 3976.567626953125 7209.99951171875 3978.500732421875 C 7209.99951171875 3980.433837890625 7208.43212890625 3981.9990234375 7206.4990234375 3981.9990234375 Z M 7197.50048828125 3981.9990234375 C 7195.5673828125 3981.9990234375 7194 3980.433837890625 7194 3978.500732421875 C 7194 3976.567626953125 7195.5673828125 3975.00048828125 7197.50048828125 3975.00048828125 C 7199.43359375 3975.00048828125 7201.00048828125 3976.567626953125 7201.00048828125 3978.500732421875 C 7201.00048828125 3980.433837890625 7199.43359375 3981.9990234375 7197.50048828125 3981.9990234375 Z"/></g></svg>