<svg xmlns="http://www.w3.org/2000/svg" width="12.647" height="10.118" viewBox="0 0 12.647 10.118"><defs><style>.a{fill:#fff;}</style></defs><path class="a" d="M86.573,38.765H97.956a.632.632,0,0,0,.632-.632V29.279a.632.632,0,0,0-.632-.632H86.573a.632.632,0,0,0-.632.632v8.853A.632.632,0,0,0,86.573,38.765Zm.632-8.853H97.324V37.5l-3.794-3.794L89.735,37.5H87.206Z" transform="translate(-85.941 -28.647)"/><path class="a" d="M145.395,86.311a1.265,1.265,0,1,1-1.789,0,1.265,1.265,0,0,1,1.789,0" transform="translate(-140.706 -83.412)"/></svg>