<svg xmlns="http://www.w3.org/2000/svg" width="19.749" height="19.748" viewBox="0 0 19.749 19.748"><defs><style>.a{fill:none;stroke:rgba(99,81,61,0.5);stroke-linecap:round;stroke-linejoin:round;}</style></defs><g transform="translate(-388.6 -244.5)"><path class="a" d="M6.56,4.5H20.981a2.06,2.06,0,0,1,2.06,2.06V20.981a2.06,2.06,0,0,1-2.06,2.06H6.56a2.06,2.06,0,0,1-2.06-2.06V6.56A2.06,2.06,0,0,1,6.56,4.5Z" transform="translate(384.6 240.5)"/><path class="a" d="M13.59,12.045A1.545,1.545,0,1,1,12.045,10.5,1.545,1.545,0,0,1,13.59,12.045Z" transform="translate(382.72 238.62)"/><path class="a" d="M23.981,20.15,18.831,15,7.5,26.331" transform="translate(383.66 237.21)"/></g></svg>