<svg xmlns="http://www.w3.org/2000/svg" width="10.331" height="10.531" viewBox="0 0 10.331 10.531"><defs><style>.a{fill:#fff;}</style></defs><path class="a" d="M.319,119.693A.319.319,0,0,1,0,119.374v-4.461a.319.319,0,0,1,.528-.24L3.078,116.9a.319.319,0,0,1,0,.48L.528,119.614a.319.319,0,0,1-.21.079Zm.319-4.078v3.056l1.747-1.528L.637,115.615Z" transform="translate(0 -112.045)"/><path class="a" d="M171.882,286.471h6.373v.637h-6.373Z" transform="translate(-167.925 -279.875)"/><path class="a" d="M171.882,143.236h6.373v.637h-6.373Z" transform="translate(-167.925 -139.938)"/><path class="a" d="M0,0H10.2V.637H0Z"/><path class="a" d="M0,429.706H10.2v.637H0Z" transform="translate(0 -419.813)"/></svg>