<svg xmlns="http://www.w3.org/2000/svg" width="10.331" height="10.531" viewBox="0 0 10.331 10.531"><defs><style>.a{fill:#fff;}</style></defs><path class="a" d="M2.868,119.67a.319.319,0,0,1-.21-.079L.109,117.361a.319.319,0,0,1,0-.48l2.549-2.231a.319.319,0,0,1,.528.24v4.461a.319.319,0,0,1-.319.319ZM.8,117.121l1.747,1.528v-3.057Z" transform="translate(0 -112.022)"/><path class="a" d="M171.883,286.471h6.373v.637h-6.373Z" transform="translate(-167.926 -279.875)"/><path class="a" d="M171.883,143.236h6.373v.637h-6.373Z" transform="translate(-167.926 -139.938)"/><path class="a" d="M0,0H10.2V.637H0Z"/><path class="a" d="M0,429.706H10.2v.637H0Z" transform="translate(0 -419.813)"/></svg>