<svg xmlns="http://www.w3.org/2000/svg" width="13.942" height="10.255" viewBox="0 0 13.942 10.255"><defs><style>.a{fill:#fff;}</style></defs><path class="a" d="M263.378,57.294H258.25a.427.427,0,0,0-.427.427v5.127a.427.427,0,0,0,.427.427h4.657a3.837,3.837,0,0,1-3.8,3.418h-.427v.855h.427a4.706,4.706,0,0,0,4.7-4.7V57.721A.427.427,0,0,0,263.378,57.294Zm-4.7.855h4.273v4.273h-4.273Z" transform="translate(-249.863 -57.294)"/><path class="a" d="M5.555,57.294H.427A.427.427,0,0,0,0,57.721v5.127a.427.427,0,0,0,.427.427H5.084a3.837,3.837,0,0,1-3.8,3.418H.855v.855h.427a4.705,4.705,0,0,0,4.7-4.7V57.721A.427.427,0,0,0,5.555,57.294Zm-4.7.855H5.127v4.273H.855Z" transform="translate(0 -57.294)"/></svg>