<svg xmlns="http://www.w3.org/2000/svg" width="14.6" height="14.6" viewBox="0 0 14.6 14.6"><defs><style>.a{fill:#1c1c1c;}</style></defs><path class="a" d="M15.45,11.8a3.65,3.65,0,0,0-2.028-3.269v1.793l1.987,1.987A3.433,3.433,0,0,0,15.45,11.8Zm2.028,0a5.55,5.55,0,0,1-.438,2.141l1.225,1.225A7.135,7.135,0,0,0,19.1,11.8a7.3,7.3,0,0,0-5.678-7.113V6.357A5.682,5.682,0,0,1,17.478,11.8ZM5.53,4.5,4.5,5.53,8.337,9.367H4.5v4.867H7.744L11.8,18.289V12.83l3.447,3.447a5.616,5.616,0,0,1-1.825.957v1.671a7.292,7.292,0,0,0,2.993-1.468L18.07,19.1l1.03-1.03-7.3-7.3Zm6.27.811-1.7,1.7,1.7,1.7Z" transform="translate(-4.5 -4.5)"/></svg>