<svg xmlns="http://www.w3.org/2000/svg" width="21.542" height="21.542" viewBox="0 0 21.542 21.542"><defs><style>.a{fill:none;stroke:rgba(99,81,61,0.5);fill-rule:evenodd;}</style></defs><g transform="translate(0.5 0.5)"><path class="a" d="M10.271,0A10.271,10.271,0,1,1,0,10.271,10.271,10.271,0,0,1,10.271,0Zm0,.915A9.337,9.337,0,1,1,3.649,3.649,9.346,9.346,0,0,1,10.271.915Z"/><path class="a" d="M30.227,19.236v3.727c1.79-1.844,3.091-3.913,3.076-6.568-.112-.489-.386-.6-.846-.362-.068.372-.347.489-.831.279-.279-.915-1.164-1.081-2.079-1.223.489-.4,1.193-.778,1.565.142.514.152.739-.166,1.247.152.293.024.572,0,.861.039-.445-4.035-.978-2.411-3.287-3.2-.939-1.179-1.164-.342-1.066,1.751-.567.176-1.3.69-.489,1.678C26.04,17.583,27.219,19.887,30.227,19.236Z" transform="translate(-13.867 -5.968)"/><path class="a" d="M7.755,18.82l-.059.1-.039.1-.044.1-.039.1-.044.108-.039.1-.029.1-.024.1-.029.1-.029.1-.015.108-.01.1-.015.1v.205l.015.112.01.112.029.108v.029l.068-.015h.152l.142.044.108.083.1.083.083.083.1.1.068.083.083.068.068.039.044.029h.083l.039-.044.083-.083.142-.191.152-.181.152-.2.152-.166.157-.181.166-.166.152-.152.166-.166L10,19.6l.166-.152.152-.142.152-.152.166-.137.142-.137.152-.127.152-.137.137-.142.127-.122.137-.142.127-.122.108-.127.112-.122.112-.137.1-.127.083-.122.083-.142.068-.122.054-.127.054-.137.044-.142.029-.122.015-.152.01-.1v-.083l-.024-.083-.029-.068-.044-.054-.039-.073-.068-.054-.083-.044-.1-.054-.112-.039-.122-.044-.152-.029-.157-.024-.152-.029-.181-.015h-.274l-.1-.181-.068-.083-.059-.093-.068-.1-.068-.083-.068-.1L10.445,15l-.083-.1-.083-.083-.083-.083-.083-.083-.1-.083-.1-.083-.1-.068-.1-.068-.1-.068-.108-.059L9.4,14.149,9.291,14.1l-.108-.044-.127-.039-.122-.044-.127-.039L8.67,13.9l-.127-.015-.137-.015-.152-.015H7.96l-.152.015-.152.029-.22.039L7.183,13.8l-.191-.112-.181-.122L6.63,13.44,6.464,13.3,6.3,13.176l-.152-.137L6.009,12.9l-.142-.127-.108-.122-.112-.142-.1-.108-.1-.112-.068-.112-.054-.093-.029-.1-.029-.1.029-.127.083-.083.1-.039.112-.029L5.7,11.6h.142l.152.015.152.029.181.039.2.059.191.083.21.1.235.108.22.142.152.093.029-.01.068-.083.059-.083.039-.127.015-.137.029-.157.01-.176.015-.181.044-.181.054-.181.1-.191.137-.171.181-.152.22-.137.293-.1.293-.054.137-.127.181-.152.191-.137L9.8,9.6l.2-.112.181-.108.166-.1.152-.1.137-.083.112-.083.1-.083.054-.054.029-.044V8.8L10.9,8.769l-.083-.039-.137-.073-.112-.083-.122-.093-.112-.1-.1-.112-.1-.112-.1-.108-.078-.127L9.873,7.8,9.8,7.674l-.068-.122-.054-.127L9.623,7.3,9.57,7.175,9.54,7.053,9.5,6.926l-.029-.112-.015-.108-.01-.112V6.48l.01-.108.015-.1L9.5,6.192l.039-.1L9.6,6.026l.068-.068L9.751,5.9l.1-.024h.112l.108.015.044.01.015-.01V5.874l-.044-.068-.068-.083-.083-.1-.112-.1-.137-.1L9.54,5.346l-.152-.083-.166-.054-.152-.044L8.919,5.15l-.142.015-.054.015-.039.112-.073.191-.054.181-.039.181-.044.181-.039.166-.029.166-.029.166-.015.166-.01.152-.015.152-.015.142-.015.137-.015.137v.127l-.015.122v.127l-.01.108v.112l-.015.1-.015.112L8.225,8.3,8.2,8.383l-.024.083-.044.083-.039.068-.059.068L7.96,8.74l-.083.029L7.794,8.8l-.1.015L7.559,8.8l-.318-.225L6.977,8.4l-.21-.166L6.591,8.06l-.152-.152-.127-.137-.083-.137-.068-.152-.029-.142-.015-.122.029-.142.039-.108.073-.112.068-.112.083-.1.1-.083L6.6,6.471l.1-.088.1-.093.1-.1.1-.1.1-.1.083-.108.083-.112.068-.127.054-.122.044-.142.024-.152.015-.152L7.447,4.9,7.422,4.71h0l-.068.024L7.242,4.8,7.1,4.886l-.137.083-.152.1L6.63,5.18,6.464,5.3l-.191.142-.2.137-.2.152-.2.166-.205.181-.21.181-.205.2-.2.22-.205.22-.2.225-.2.249-.191.249-.166.274-.181.279-.152.293-.157.3-.137.3-.112.333-.108.333-.083.362-.083.362-.044.372-.029.347.044.112.068.127.1.122.1.122.1.127.122.127.127.108.137.127.152.108.152.112.157.112.166.112.166.093.166.112.181.1.176.1.166.1.181.093.181.1.166.1.181.1.166.1.166.1.166.083.152.093.152.1.142.1.137.1.122.1.112.1.112.1.181.205-.181.22-.068.1-.073.112-.054.1-.054.1-.029.093-.029.1-.024.1-.015.083v.181l.015.1.015.083.01.083.029.083.044.083.039.083.044.083.054.083.054.068.059.083.068.068.068.068.068.073.083.068.083.068.083.054.1.068.083.059.1.054.1.054.205.112-.054.235-.044.112-.024.112-.044.108-.039.112-.044.112-.054.108-.044.1-.054.112-.039.1-.059.1Z" transform="translate(-1.446 -2.406)"/><path class="a" d="M15.3,2.939a13.1,13.1,0,0,1,6.4.406c.792,2.01-2.445,2.3-3.257,3.59-1.33.044-.489-3.355-2.563-3.394C15.487,3.511,15.13,3.193,15.3,2.939Z" transform="translate(-7.794 -1.389)"/></g></svg>