<svg xmlns="http://www.w3.org/2000/svg" width="34.667" height="24.267" viewBox="0 0 34.667 24.267"><defs><style>.a{fill:#007cba;}</style></defs><path class="a" d="M5.2,12.65A3.467,3.467,0,1,0,1.733,9.183,3.47,3.47,0,0,0,5.2,12.65Zm24.267,0A3.467,3.467,0,1,0,26,9.183,3.47,3.47,0,0,0,29.467,12.65ZM31.2,14.383H27.733a3.456,3.456,0,0,0-2.443,1.007,7.923,7.923,0,0,1,4.068,5.926h3.575a1.731,1.731,0,0,0,1.733-1.733V17.85A3.47,3.47,0,0,0,31.2,14.383Zm-13.867,0a6.067,6.067,0,1,0-6.067-6.067A6.064,6.064,0,0,0,17.333,14.383Zm4.16,1.733h-.45a8.376,8.376,0,0,1-7.421,0h-.45a6.242,6.242,0,0,0-6.24,6.24v1.56a2.6,2.6,0,0,0,2.6,2.6h15.6a2.6,2.6,0,0,0,2.6-2.6v-1.56A6.242,6.242,0,0,0,21.493,16.117ZM9.376,15.391a3.456,3.456,0,0,0-2.443-1.007H3.467A3.47,3.47,0,0,0,0,17.85v1.733a1.731,1.731,0,0,0,1.733,1.733H5.3A7.943,7.943,0,0,1,9.376,15.391Z" transform="translate(0 -2.25)"/></svg>