<svg xmlns="http://www.w3.org/2000/svg" width="32.65" height="29.022" viewBox="0 0 32.65 29.022"><defs><style>.a{fill:#142767;}</style></defs><path class="a" d="M31.743,16.325H27.208v5.442l-1.814-1.207-1.814,1.207V16.325H19.046a.91.91,0,0,0-.907.907V28.115a.91.91,0,0,0,.907.907h12.7a.91.91,0,0,0,.907-.907V17.232A.91.91,0,0,0,31.743,16.325ZM9.976,12.7h12.7a.91.91,0,0,0,.907-.907V.907A.91.91,0,0,0,22.674,0H18.139V5.442L16.325,4.234,14.511,5.442V0H9.976a.91.91,0,0,0-.907.907V11.79A.91.91,0,0,0,9.976,12.7ZM13.6,16.325H9.069v5.442L7.256,20.559,5.442,21.767V16.325H.907A.91.91,0,0,0,0,17.232V28.115a.91.91,0,0,0,.907.907H13.6a.91.91,0,0,0,.907-.907V17.232A.91.91,0,0,0,13.6,16.325Z"/></svg>