<svg xmlns="http://www.w3.org/2000/svg" width="48.793" height="43.914" viewBox="0 0 48.793 43.914"><defs><style>.a{fill:#002169;}</style></defs><path class="a" d="M27.4,14.259V4.5H3V48.414H51.793V14.259ZM12.759,43.534H7.879V38.655h4.879Zm0-9.759H7.879V28.9h4.879Zm0-9.759H7.879V19.138h4.879Zm0-9.759H7.879V9.379h4.879Zm9.759,29.276H17.638V38.655h4.879Zm0-9.759H17.638V28.9h4.879Zm0-9.759H17.638V19.138h4.879Zm0-9.759H17.638V9.379h4.879Zm24.4,29.276H27.4V38.655h4.879V33.776H27.4V28.9h4.879V24.017H27.4V19.138H46.914ZM42.034,24.017H37.155V28.9h4.879Zm0,9.759H37.155v4.879h4.879Z" transform="translate(-3 -4.5)"/></svg>