<svg xmlns="http://www.w3.org/2000/svg" width="16.2" height="14.4" viewBox="0 0 16.2 14.4"><defs><style>.a{fill:#5ec9ff;}</style></defs><path class="a" d="M15.75,8.1H13.5v2.7l-.9-.6-.9.6V8.1H9.45A.451.451,0,0,0,9,8.55v5.4a.451.451,0,0,0,.45.45h6.3a.451.451,0,0,0,.45-.45V8.55A.451.451,0,0,0,15.75,8.1ZM4.95,6.3h6.3a.451.451,0,0,0,.45-.45V.45A.451.451,0,0,0,11.25,0H9V2.7l-.9-.6-.9.6V0H4.95A.451.451,0,0,0,4.5.45v5.4A.451.451,0,0,0,4.95,6.3Zm1.8,1.8H4.5v2.7l-.9-.6-.9.6V8.1H.45A.451.451,0,0,0,0,8.55v5.4a.451.451,0,0,0,.45.45h6.3a.451.451,0,0,0,.45-.45V8.55A.451.451,0,0,0,6.75,8.1Z"/></svg>