<svg xmlns="http://www.w3.org/2000/svg" width="18" height="18" viewBox="0 0 18 18"><defs><style>.a{fill:#5ec9ff;}</style></defs><path class="a" d="M14.143,5.625V4.5C14.143,2.019,11.836,0,9,0S3.857,2.019,3.857,4.5V5.625H0v9.563A3.034,3.034,0,0,0,3.214,18H14.786A3.034,3.034,0,0,0,18,15.188V5.625ZM6.429,4.5A2.43,2.43,0,0,1,9,2.25,2.43,2.43,0,0,1,11.571,4.5V5.625H6.429Zm6.429,4.219a.91.91,0,0,1-.964-.844.973.973,0,0,1,1.929,0A.91.91,0,0,1,12.857,8.719Zm-7.714,0a.91.91,0,0,1-.964-.844.91.91,0,0,1,.964-.844.91.91,0,0,1,.964.844A.91.91,0,0,1,5.143,8.719Z"/></svg>