<svg xmlns="http://www.w3.org/2000/svg" width="20.952" height="14.667" viewBox="0 0 20.952 14.667"><defs><style>.a{fill:#5ec9ff;}</style></defs><path class="a" d="M3.143,8.536a2.1,2.1,0,1,0-2.1-2.1A2.1,2.1,0,0,0,3.143,8.536Zm14.667,0a2.1,2.1,0,1,0-2.1-2.1A2.1,2.1,0,0,0,17.809,8.536Zm1.048,1.048h-2.1a2.089,2.089,0,0,0-1.476.609,4.789,4.789,0,0,1,2.459,3.582H19.9a1.046,1.046,0,0,0,1.048-1.048V11.678A2.1,2.1,0,0,0,18.857,9.583Zm-8.381,0A3.667,3.667,0,1,0,6.809,5.917,3.665,3.665,0,0,0,10.476,9.583Zm2.514,1.048h-.272a5.062,5.062,0,0,1-4.485,0H7.962A3.772,3.772,0,0,0,4.19,14.4v.943a1.572,1.572,0,0,0,1.571,1.571H15.19a1.572,1.572,0,0,0,1.571-1.571V14.4A3.772,3.772,0,0,0,12.99,10.631Zm-7.323-.439A2.089,2.089,0,0,0,4.19,9.583H2.1a2.1,2.1,0,0,0-2.1,2.1v1.048a1.046,1.046,0,0,0,1.048,1.048H3.205A4.8,4.8,0,0,1,5.667,10.192Z" transform="translate(0 -2.25)"/></svg>