<svg xmlns="http://www.w3.org/2000/svg" width="16.667" height="15.833" viewBox="0 0 16.667 15.833"><defs><style>.a{fill:#5ec9ff;}</style></defs><path class="a" d="M18,6.333H16.183A2.494,2.494,0,0,0,11.75,4.125l-.417.558-.417-.567A2.495,2.495,0,0,0,6.483,6.333H4.667A1.654,1.654,0,0,0,3.008,8L3,17.167a1.661,1.661,0,0,0,1.667,1.667H18a1.661,1.661,0,0,0,1.667-1.667V8A1.661,1.661,0,0,0,18,6.333ZM13.833,4.667A.833.833,0,1,1,13,5.5.836.836,0,0,1,13.833,4.667Zm-5,0A.833.833,0,1,1,8,5.5.836.836,0,0,1,8.833,4.667ZM18,17.167H4.667V15.5H18ZM18,13H4.667V8H8.9L7.167,10.358l1.35.975,1.983-2.7L11.333,7.5l.833,1.133,1.983,2.7,1.35-.975L13.767,8H18Z" transform="translate(-3 -3)"/></svg>