<svg xmlns="http://www.w3.org/2000/svg" width="18" height="14.4" viewBox="0 0 18 14.4"><defs><style>.a{fill:#5ec9ff;}</style></defs><path class="a" d="M17.736,10.263,15.2,7.726A1.8,1.8,0,0,0,13.922,7.2h-2.23a.9.9,0,0,0-.9.9v2.228a1.794,1.794,0,0,0,.526,1.271l2.54,2.537a.9.9,0,0,0,1.274,0l2.6-2.6a.9.9,0,0,0,0-1.271Zm-5.141-.591A.675.675,0,1,1,13.27,9a.673.673,0,0,1-.675.675ZM6.3,7.2A3.6,3.6,0,1,0,2.7,3.6,3.6,3.6,0,0,0,6.3,7.2Zm3.595,3.128V8.269A3.784,3.784,0,0,0,8.82,8.095h-.47a4.9,4.9,0,0,1-4.1,0H3.78A3.785,3.785,0,0,0,0,11.878v1.17A1.35,1.35,0,0,0,1.35,14.4h9.9a1.344,1.344,0,0,0,1.066-.532l-1.631-1.631a2.683,2.683,0,0,1-.79-1.91Z"/></svg>