<svg xmlns="http://www.w3.org/2000/svg" width="18" height="14.4" viewBox="0 0 18 14.4"><defs><style>.a{fill:#5ec9ff;}</style></defs><path class="a" d="M14,6.355,8.045.4A1.35,1.35,0,0,0,7.091,0H1.35A1.35,1.35,0,0,0,0,1.35V7.091a1.35,1.35,0,0,0,.4.955L6.355,14a1.35,1.35,0,0,0,1.909,0L14,8.264a1.35,1.35,0,0,0,0-1.909ZM3.15,4.5A1.35,1.35,0,1,1,4.5,3.15,1.35,1.35,0,0,1,3.15,4.5ZM17.6,8.264,11.864,14a1.35,1.35,0,0,1-1.909,0l-.01-.01,4.9-4.9a2.531,2.531,0,0,0,0-3.58L9.321,0h1.37a1.35,1.35,0,0,1,.955.4L17.6,6.355a1.35,1.35,0,0,1,0,1.909Z"/></svg>