<svg xmlns="http://www.w3.org/2000/svg" width="10.286" height="14.4" viewBox="0 0 10.286 14.4"><defs><style>.a{fill:#5ec9ff;}</style></defs><path class="a" d="M10.039,10.15V7.586a1.714,1.714,0,1,1,3.429,0V10.15a3.086,3.086,0,1,0-3.429,0Zm6.747,3.175-3.113-1.55a.966.966,0,0,0-.37-.075h-.521V7.586a1.029,1.029,0,0,0-2.057,0V14.95l-2.352-.494a1.2,1.2,0,0,0-.165-.021.767.767,0,0,0-.542.226l-.542.549L10.512,18.6a1.032,1.032,0,0,0,.727.3H15.9a1,1,0,0,0,.987-.878l.514-3.614a.986.986,0,0,0-.61-1.083Z" transform="translate(-7.125 -4.5)"/></svg>