<svg xmlns="http://www.w3.org/2000/svg" width="134.374" height="33.908" viewBox="0 0 134.374 33.908"><defs><style>.a{fill-rule:evenodd;}</style></defs><path class="a" d="M64.277,24.361c0-7.039-5.028-12.741-11.757-12.741s-12.16,5.7-12.16,12.741S45.8,37.11,52.52,37.11c6.249,0,9.833-3.225,11.42-8.324H58.366a6.407,6.407,0,0,1-5.846,3.591c-3.017,0-5.552-2.507-6.292-5.911h17.9a13.832,13.832,0,0,0,.151-2.054ZM46.321,21.855c.855-3.182,3.3-5.487,6.191-5.487S57.741,18.7,58.3,21.862H46.328Z" transform="translate(-11.372 -3.274)"/><path class="a" d="M181.771,35.52a2.973,2.973,0,1,0,2.11.871A2.981,2.981,0,0,0,181.771,35.52Zm0,5.7a2.715,2.715,0,1,1,2.715-2.715,2.715,2.715,0,0,1-2.715,2.715Z" transform="translate(-50.378 -10.008)"/><path class="a" d="M165.744,24.361c0-7.039-5.028-12.741-11.757-12.741s-12.167,5.7-12.167,12.741,5.444,12.749,12.167,12.749c6.249,0,10.141-2.765,11.413-8.324h-5.573a6.385,6.385,0,0,1-5.839,3.591c-3.017,0-5.559-2.507-6.3-5.911h17.9a13.826,13.826,0,0,0,.158-2.054Zm-17.956-2.507c.855-3.182,3.3-5.487,6.191-5.487s5.222,2.334,5.789,5.494H147.8Z" transform="translate(-39.961 -3.274)"/><path class="a" d="M75.213.54H20.053V23.48h-.086L6.2.54H0V33.306H6.306V11.766H6.4l13.2,21.54h6.759V5.244H75.242L75.213.54Z" transform="translate(0 -0.152)"/><path class="a" d="M82.075,18.309c0-1.034,1.164-2.959,4.589-2.959a4.641,4.641,0,0,1,4.956,3.67h5.25c-.5-6.148-5.882-7.9-10.565-7.9-7.484,0-9.689,4.819-9.689,8.331,0,8.928,15.305,5.279,15.305,10.256,0,2.155-1.329,3-5.236,3s-5.229-2-5.229-4.029H76.43c.122,6.371,5.006,8.367,10.465,8.367,4.7,0,10.773-1.365,10.773-8.353,0-9.28-15.729-5.7-15.614-10.378Z" transform="translate(-21.536 -3.133)"/><path class="a" d="M114.934.46h-6V9.617h-1.81v4.5h1.81V24.377h0c0,3.11,2.428,8.762,7.9,8.762,1.041,0,3.785-.086,3.785-.086h0V28.787h-1.307c-2.291-.115-4.374-1.365-4.374-5.229h0V14.121h5.66v-4.5h-5.66Z" transform="translate(-30.183 -0.13)"/><path class="a" d="M129.64,33.306h6.306V.54H129.64V33.306Z" transform="translate(-36.529 -0.152)"/><path class="a" d="M164.8,0,143.5,2.356V5.02h21.3V0Z" transform="translate(-40.434)"/><path class="a" d="M182.989,39.123a.934.934,0,0,0,.912-.934c0-.639-.352-.97-1.149-.97H181.43v3.519h.3V39.116h.919l1.056,1.623h.338Zm-.51-.273h-.718V37.479h.97c.424,0,.9.158.9.718s-.582.675-1.12.675Z" transform="translate(-51.121 -10.487)"/></svg>