<svg xmlns="http://www.w3.org/2000/svg" width="9.866" height="19.229" viewBox="0 0 9.866 19.229"><defs><style>.a{fill:#5ec9ff;}</style></defs><path class="a" d="M332.987-3448.771c-.543,0-.987-.609-.987-1.354v-.339c0-.186.111-.338.247-.338h2.876v-6.488l.838-.553h-2.724c-.461,0-.838-.53-.838-1.177v-7.8c0-.648.377-1.178.838-1.178h7.124c.461,0,.838.53.838,1.178v7.8c0,.647-.377,1.177-.838,1.177h-2.724l.838.553v6.488h3.144c.136,0,.247.152.247.338v.339c0,.745-.444,1.354-.987,1.354Zm.25-11.28h7.124v-6.771h-7.124Z" transform="translate(-332 3468)"/></svg>