<svg xmlns="http://www.w3.org/2000/svg" width="40.199" height="40.199" viewBox="0 0 40.199 40.199"><defs><style>.a{fill:#002169;}</style></defs><path class="a" d="M31.585,12.562V10.05C31.585,4.508,26.433,0,20.1,0S8.614,4.508,8.614,10.05v2.512H0V33.918C0,37.387,3.214,40.2,7.178,40.2H33.021c3.965,0,7.178-2.812,7.178-6.281V12.562ZM14.357,10.05c0-2.771,2.576-5.025,5.743-5.025s5.743,2.254,5.743,5.025v2.512H14.357Zm14.357,9.422a2.032,2.032,0,0,1-2.154-1.884,2.173,2.173,0,0,1,4.307,0A2.032,2.032,0,0,1,28.714,19.471Zm-17.228,0a2.032,2.032,0,0,1-2.154-1.884A2.032,2.032,0,0,1,11.485,15.7a2.032,2.032,0,0,1,2.154,1.884A2.032,2.032,0,0,1,11.485,19.471Z"/></svg>