<svg xmlns="http://www.w3.org/2000/svg" width="20.2" height="20.2" viewBox="0 0 20.2 20.2"><defs><style>.a{fill:none;stroke:#82786f;stroke-linecap:round;stroke-linejoin:round;}</style></defs><g transform="translate(-1 -1)"><path class="a" d="M18.736,16.118A2.618,2.618,0,1,1,16.118,13.5,2.618,2.618,0,0,1,18.736,16.118Z" transform="translate(-5.018 -5.018)"/><path class="a" d="M17.558,13.718a1.44,1.44,0,0,0,.288,1.588l.052.052a1.746,1.746,0,1,1-2.47,2.47l-.052-.052a1.452,1.452,0,0,0-2.461,1.03v.148a1.745,1.745,0,1,1-3.491,0v-.079a1.44,1.44,0,0,0-.943-1.318,1.44,1.44,0,0,0-1.588.288l-.052.052a1.746,1.746,0,1,1-2.47-2.47l.052-.052a1.452,1.452,0,0,0-1.03-2.461H3.245a1.745,1.745,0,1,1,0-3.491h.079a1.44,1.44,0,0,0,1.318-.943,1.44,1.44,0,0,0-.288-1.588L4.3,6.841a1.746,1.746,0,1,1,2.47-2.47l.052.052a1.44,1.44,0,0,0,1.588.288h.07a1.44,1.44,0,0,0,.873-1.318V3.245a1.745,1.745,0,1,1,3.491,0v.079a1.452,1.452,0,0,0,2.461,1.03l.052-.052a1.746,1.746,0,1,1,2.47,2.47l-.052.052a1.44,1.44,0,0,0-.288,1.588v.07a1.44,1.44,0,0,0,1.318.873h.148a1.745,1.745,0,1,1,0,3.491h-.079a1.44,1.44,0,0,0-1.318.873Z"/></g></svg>