<svg xmlns="http://www.w3.org/2000/svg" width="41.625" height="37" viewBox="0 0 41.625 37"><defs><style>.a{fill:#002169;}</style></defs><path class="a" d="M40.469,20.813H34.688V27.75l-2.312-1.539L30.063,27.75V20.813H24.281a1.16,1.16,0,0,0-1.156,1.156V35.844A1.16,1.16,0,0,0,24.281,37H40.469a1.16,1.16,0,0,0,1.156-1.156V21.969A1.16,1.16,0,0,0,40.469,20.813Zm-27.75-4.625H28.906a1.16,1.16,0,0,0,1.156-1.156V1.156A1.16,1.16,0,0,0,28.906,0H23.125V6.938L20.813,5.4,18.5,6.938V0H12.719a1.16,1.16,0,0,0-1.156,1.156V15.031A1.16,1.16,0,0,0,12.719,16.188Zm4.625,4.625H11.563V27.75L9.25,26.211,6.938,27.75V20.813H1.156A1.16,1.16,0,0,0,0,21.969V35.844A1.16,1.16,0,0,0,1.156,37H17.344A1.16,1.16,0,0,0,18.5,35.844V21.969A1.16,1.16,0,0,0,17.344,20.813Z"/></svg>