<svg xmlns="http://www.w3.org/2000/svg" width="47.5" height="38" viewBox="0 0 47.5 38"><defs><style>.a{fill:#ffffff;}</style></defs><path class="a" d="M46.8,27.084l-6.7-6.695A4.752,4.752,0,0,0,36.74,19H30.854a2.373,2.373,0,0,0-2.375,2.375v5.878a4.735,4.735,0,0,0,1.388,3.355l6.7,6.695a2.379,2.379,0,0,0,3.362,0L46.8,30.439a2.363,2.363,0,0,0,.007-3.355ZM33.237,25.525a1.781,1.781,0,1,1,1.781-1.781,1.777,1.777,0,0,1-1.781,1.781ZM16.626,18.994A9.5,9.5,0,1,0,7.125,9.5,9.5,9.5,0,0,0,16.626,18.994Zm9.486,8.254V21.821a9.986,9.986,0,0,0-2.835-.46h-1.24a12.92,12.92,0,0,1-10.822,0H9.975A9.989,9.989,0,0,0,0,31.344v3.088a3.564,3.564,0,0,0,3.563,3.563H29.689a3.547,3.547,0,0,0,2.813-1.4l-4.3-4.3a7.079,7.079,0,0,1-2.086-5.04Z"/></svg>