<svg xmlns="http://www.w3.org/2000/svg" width="19.077" height="30" viewBox="0 0 19.077 30"><defs><style>.a{fill:#007cba;}</style></defs><g transform="translate(-171.014 -78)"><path class="a" d="M23.865,1.514,10.229,1.5A2.724,2.724,0,0,0,7.515,4.227V28.773A2.724,2.724,0,0,0,10.229,31.5H23.865a2.735,2.735,0,0,0,2.727-2.727V4.227A2.724,2.724,0,0,0,23.865,1.514Zm0,24.532H10.229V6.955H23.865Z" transform="translate(163.499 76.5)"/><path class="a" d="M6,9.52H8.575V6H6ZM9.863,20.081h2.575v-3.52H9.863ZM6,20.081H8.575v-3.52H6ZM6,14.8H8.575V11.28H6Zm3.863,0h2.575V11.28H9.863ZM13.726,6V9.52H16.3V6ZM9.863,9.52h2.575V6H9.863Zm3.863,5.28H16.3V11.28H13.726Zm0,5.28H16.3v-3.52H13.726Z" transform="translate(169.238 79.722)"/></g></svg>