<svg xmlns="http://www.w3.org/2000/svg" xmlns:xlink="http://www.w3.org/1999/xlink" width="52" height="52" viewBox="0 0 52 52">
  <defs>
    <filter id="Elipse_931" x="0" y="0" width="52" height="52" filterUnits="userSpaceOnUse">
      <feOffset dy="3" input="SourceAlpha"/>
      <feGaussianBlur stdDeviation="2" result="blur"/>
      <feFlood flood-opacity="0.102"/>
      <feComposite operator="in" in2="blur"/>
      <feComposite in="SourceGraphic"/>
    </filter>
  </defs>
  <g id="icono" transform="translate(-363 -203)">
    <g transform="matrix(1, 0, 0, 1, 363, 203)" filter="url(#Elipse_931)">
      <circle id="Elipse_931-2" data-name="Elipse 931" cx="20" cy="20" r="20" transform="translate(6 3)" fill="#fff"/>
    </g>
    <path id="totem" d="M333.545-3437.886c-.85,0-1.545-.954-1.545-2.121v-.531c0-.291.174-.529.386-.529h4.5v-10.161l1.312-.866h-4.266c-.721,0-1.312-.83-1.312-1.844v-12.218c0-1.015.591-1.845,1.312-1.845h11.157c.722,0,1.312.83,1.312,1.845v12.218c0,1.014-.59,1.844-1.312,1.844h-4.266l1.313.866v10.161h4.924c.212,0,.386.239.386.529v.531c0,1.167-.7,2.121-1.545,2.121Zm.392-17.665h11.157v-10.6H333.938Z" transform="translate(49.681 3679.886)" fill="#002169"/>
  </g>
</svg>
