<svg xmlns="http://www.w3.org/2000/svg" width="21.112" height="41.146" viewBox="0 0 21.112 41.146">
  <path id="totem" d="M334.111-3426.854c-1.161,0-2.111-1.3-2.111-2.9v-.726c0-.4.237-.723.528-.723h6.155v-13.883l1.793-1.183h-5.829c-.986,0-1.793-1.134-1.793-2.52v-16.693c0-1.387.807-2.521,1.793-2.521h15.244c.986,0,1.793,1.134,1.793,2.521v16.693c0,1.386-.807,2.52-1.793,2.52h-5.828l1.793,1.183v13.883h6.728c.29,0,.528.326.528.723v.726c0,1.594-.95,2.9-2.111,2.9Zm.536-24.136h15.244v-14.489H334.647Z" transform="translate(-332 3468)" fill="#002169"/>
</svg>
