<svg xmlns="http://www.w3.org/2000/svg" width="236.965" height="59.795" viewBox="0 0 236.965 59.795"><defs><style>.a{fill:#fff;fill-rule:evenodd;}</style></defs><path class="a" d="M82.537,34.089c0-12.413-8.866-22.469-20.734-22.469S40.36,21.677,40.36,34.089s9.6,22.482,21.443,22.482c11.019,0,17.34-5.687,20.139-14.68H72.113A11.3,11.3,0,0,1,61.8,48.224c-5.32,0-9.791-4.42-11.1-10.424H82.271a24.394,24.394,0,0,0,.266-3.622Zm-31.665-4.42c1.507-5.611,5.826-9.677,10.918-9.677S71.011,24.109,72,29.681H50.885Z" transform="translate(10.759 3.098)"/><path class="a" d="M184.046,35.52a5.244,5.244,0,1,0,3.72,1.536A5.256,5.256,0,0,0,184.046,35.52Zm0,10.044a4.788,4.788,0,1,1,4.788-4.788,4.788,4.788,0,0,1-4.788,4.788Z" transform="translate(47.663 9.469)"/><path class="a" d="M184.01,34.089c0-12.413-8.866-22.469-20.734-22.469S141.82,21.677,141.82,34.089s9.6,22.482,21.456,22.482c11.019,0,17.884-4.876,20.126-14.68h-9.829a11.26,11.26,0,0,1-10.3,6.333c-5.32,0-9.8-4.42-11.108-10.424h31.563a24.382,24.382,0,0,0,.279-3.622Zm-31.665-4.42c1.507-5.611,5.826-9.677,10.918-9.677s9.208,4.116,10.209,9.689H152.358Z" transform="translate(37.807 3.098)"/><path class="a" d="M132.637.54H35.363V40.995h-.152L10.931.54H0V58.322H11.121V20.337h.165l23.28,37.985H46.484V8.836h86.2l-.051-8.3Z" transform="translate(0 0.144)"/><path class="a" d="M86.385,23.8c0-1.824,2.052-5.218,8.093-5.218,6.878,0,8.258,4.851,8.739,6.472h9.259C111.6,14.21,102.1,11.12,93.846,11.12c-13.2,0-17.086,8.5-17.086,14.692,0,15.744,26.991,9.309,26.991,18.087,0,3.8-2.343,5.282-9.233,5.282S85.3,45.647,85.3,42.075H76.43c.215,11.235,8.828,14.756,18.454,14.756,8.3,0,19-2.407,19-14.73,0-16.364-27.738-10.044-27.536-18.3Z" transform="translate(20.375 2.964)"/><path class="a" d="M120.9.46H110.312V16.609H107.12V24.55h3.192V42.637h0c0,5.484,4.281,15.452,13.932,15.452,1.837,0,6.675-.152,6.675-.152h0V50.414h-2.305c-4.04-.2-7.713-2.407-7.713-9.221h0V24.55h9.981V16.609H120.9Z" transform="translate(28.556 0.123)"/><path class="a" d="M129.64,58.322h11.121V.54H129.64V58.322Z" transform="translate(34.56 0.144)"/><path class="a" d="M181.067,0,143.5,4.154v4.7h37.567V0Z" transform="translate(38.255)"/><path class="a" d="M184.178,40.576a1.647,1.647,0,0,0,1.609-1.647c0-1.127-.621-1.71-2.027-1.71H181.43v6.206h.532V40.564h1.621l1.862,2.862h.6Zm-.9-.481h-1.267V37.676h1.71c.747,0,1.583.279,1.583,1.267s-1.026,1.191-1.976,1.191Z" transform="translate(48.366 9.922)"/></svg>