<svg xmlns="http://www.w3.org/2000/svg" width="229.658" height="60.954" viewBox="0 0 229.658 60.954"><defs><style>.a{fill:#fff;}</style></defs><g transform="translate(0.006 0.026)"><g transform="translate(-0.006 -0.026)"><path class="a" d="M63.015,52.405c-.281-.174-.682-.446-.892-.575A10.069,10.069,0,0,0,59.18,54.1c-2.011,2.1-1.828,3.3-3.956,4.116a14.458,14.458,0,0,1-2.025.615c-.491-1.521-1.73-3.028-3.037-3.028A8.855,8.855,0,0,0,47,56.816a26.271,26.271,0,0,0-3.122,1.61l.553.745c.424-.232,1.641-.838,2.859-1.36a8.386,8.386,0,0,1,2.676-.825c1.039,0,1.712,1.177,2.083,2.123a23.591,23.591,0,0,1-4.268.4.709.709,0,0,0-.531.143.892.892,0,0,0-.232.473l-.08.343h.7c3.764,0,7.318-.593,9.606-1.984a3.376,3.376,0,0,0,.963.152,6.181,6.181,0,0,0,3.505-1.378.776.776,0,0,0,.37-.673c0-.111,0-.214,0-.312l-.04-.392c-1.209.954-2.23,1.668-3.465,1.668a1.783,1.783,0,0,1-.513-.058A12.159,12.159,0,0,1,63.033,52.4" transform="translate(-24.309 -28.705)"/><path class="a" d="M59.152,52.566c-.834,0-.776-1.445-.834-2.618a16.517,16.517,0,0,0-6.988,2.306l.241.928A13.311,13.311,0,0,1,57.19,51.22c0,1.106.495,2.586,1.753,2.586,1.338,0,2.988-2.114,4.905-4.593l.5-.651c-.236-.2-.549-.384-.731-.562-1.971,2.533-3.683,4.558-4.459,4.558" transform="translate(-28.437 -26.583)"/><path class="a" d="M43.64,22.989a4.37,4.37,0,0,1-.986-.129,4.138,4.138,0,0,0-1.048-.134,3.287,3.287,0,0,0-2.23.87,4.146,4.146,0,0,0-1.2,3.086,3.76,3.76,0,0,1-1.035,2.569,27.006,27.006,0,0,0-1.962,2.872c.192.089.825.446,1.048.549.691-1.044,1.659-2.332,2.292-3.309a3.844,3.844,0,0,0,.847-2.457,3.61,3.61,0,0,1,.031-.584,2.676,2.676,0,0,1,.794-1.811,2.386,2.386,0,0,1,1.681-.656c.6,0,.954.169,1.481.169a2.377,2.377,0,0,0,.892-.178l.192-.071-.446,1.106,1.088.446a6.034,6.034,0,0,0-2.23,4.5,8.723,8.723,0,0,0,.29,2.185.178.178,0,0,0,.352-.031v-.232a12.143,12.143,0,0,1,.352-2.676,6.952,6.952,0,0,1,2.89-3.844L45,24.469l.745-1.819-.838.156A6.1,6.1,0,0,1,43.622,23" transform="translate(-19.489 -12.538)"/><path class="a" d="M67.738,6.524a.892.892,0,0,0-.834.986c0,.281.1.615.446.615a1.7,1.7,0,0,0,.932-.446c.272-.219.446-.4.446-.584s-.161-.33-.406-.446a1.423,1.423,0,0,0-.6-.129" transform="translate(-37.063 -3.601)"/><path class="a" d="M63.473,35.2H59.2l-.486.923h5.146Z" transform="translate(-32.526 -19.491)"/><path class="a" d="M45.088,14.526c.272-.161.5-.392.5-.633a.446.446,0,0,0-.161-.321,1,1,0,0,0-.673-.272.829.829,0,0,0-.767.892c0,.334.165.522.477.522a1.338,1.338,0,0,0,.624-.2" transform="translate(-24.367 -7.358)"/><path class="a" d="M104.165,46.975l.495.343a.326.326,0,0,0,.183.08.183.183,0,0,0,.169-.178.192.192,0,0,0-.08-.152c-1.472-1.338-3.05-2.97-4.531-4.54-1.159-1.24-2.346-2.546-3.389-3.866-.076-.094-.134-.134-.214-.134a.165.165,0,0,0-.178.174c0,.138.1.312.352.736a20.723,20.723,0,0,0,2.876,3.831,28.331,28.331,0,0,0,4.317,3.706" transform="translate(-53.53 -21.336)"/><path class="a" d="M95.573,113.229h1.2a.816.816,0,0,0,.673-.294.892.892,0,0,0,.2-.6V99.159a.932.932,0,0,0-.2-.606.816.816,0,0,0-.673-.294h-1.2a.816.816,0,0,0-.673.294.932.932,0,0,0-.2.606v13.173a.892.892,0,0,0,.2.6.816.816,0,0,0,.673.294" transform="translate(-52.465 -54.429)"/><path class="a" d="M50.6,27.508a.994.994,0,0,0-.571-.169.651.651,0,0,0-.678.513,1.084,1.084,0,0,0-.049.343c0,.361.161.611.446.611.361,0,1.084-.5,1.084-.936a.446.446,0,0,0-.21-.361" transform="translate(-27.312 -15.135)"/><path class="a" d="M20.346,52.172l.076.446a.491.491,0,0,0,.25.406,2.23,2.23,0,0,0,.892.1,10.462,10.462,0,0,0,2.466-.259A5.378,5.378,0,0,0,28.614,55.4a8.888,8.888,0,0,0,4.179-1.258l-.254-.919a8.428,8.428,0,0,1-3.924,1.24,4.112,4.112,0,0,1-3.568-2.1c-.424-.642-.758-1.449-1.159-2.163a2.078,2.078,0,0,0-1.922-1.3,6.52,6.52,0,0,0-2.515.718l.036.192c.071.312.192.531.486.531a1.048,1.048,0,0,0,.33-.08,4.272,4.272,0,0,1,1.338-.281c.758,0,1.119.446,1.632,1.53l.192.406a11,11,0,0,1-2.676.268Z" transform="translate(-10.774 -27.076)"/><path class="a" d="M114.2,113.114a1.039,1.039,0,0,0,.25-.825,5.86,5.86,0,0,0-1.28-3.733,5.182,5.182,0,0,0-4.156-1.784,5.369,5.369,0,0,0-5.458,5.61,5.479,5.479,0,0,0,5.476,5.766,5.67,5.67,0,0,0,4.281-1.748,2.97,2.97,0,0,0,.745-1.574.5.5,0,0,0-.111-.348.473.473,0,0,0-.41-.165h-1.623a.776.776,0,0,0-.7.366,2.413,2.413,0,0,1-2.163,1.057,2.52,2.52,0,0,1-2.56-2.408h7.028a.923.923,0,0,0,.687-.223m-7.693-1.922a2.381,2.381,0,0,1,2.515-2.163,2.408,2.408,0,0,1,2.52,2.163Z" transform="translate(-57.375 -59.144)"/><path class="a" d="M103.957,2.71A58.676,58.676,0,0,1,99.48,9.528l.776.834a31.613,31.613,0,0,0,2.386-3.523h.161v.223a1.808,1.808,0,0,0,2.025,1.98,13.33,13.33,0,0,0,3.568-.892c1.088-.375,2.083-.754,2.578-.892V6.032c-.562.169-1.712.611-2.9,1.026a12.638,12.638,0,0,1-3.193.829.927.927,0,0,1-1-1.052,11.456,11.456,0,0,1,1.3-4.125Z" transform="translate(-55.115 -1.49)"/><path class="a" d="M70.867,5.3c-1.017-.977-1.784-2.087-2.283-2.622C67.482,1.48,66.064,0,63.728,0a4.513,4.513,0,0,0-4.21,2.738,10.345,10.345,0,0,1-.37.968c-.219.361-1.217,2.065-1.628,2.738h1.86l-.892,1.712A12.183,12.183,0,0,1,61.3,7.75c.892,0,1.543.214,1.824.776.522,1.048.522,4.219,1.409,6.6a14.62,14.62,0,0,0,5.1,6.118l.1.031a.169.169,0,0,0,.178-.161.2.2,0,0,0-.067-.152,17.466,17.466,0,0,1-4.259-6.279c-.825-2.292-.687-5.378-1.4-6.778a2.507,2.507,0,0,0-2.4-1.164A8.4,8.4,0,0,0,60,6.965l.816-1.378H59.451c.29-.513.593-.986.745-1.266a9.34,9.34,0,0,0,.343-.959,3.313,3.313,0,0,1,3.189-2.154c1.9,0,3,1.217,4.1,2.435a28.42,28.42,0,0,0,2.288,2.6,35,35,0,0,1,3.822,3.264,34.881,34.881,0,0,1,3.759,4.629A85.6,85.6,0,0,1,87.505,32.42h-.027c-5.088-3.434-9.5-6.7-13.066-10.734a40.835,40.835,0,0,1-6.636-10.431c-.129-.281-.241-.544-.366-.816-.049-.111-.1-.138-.178-.138a.161.161,0,0,0-.174.169,6.062,6.062,0,0,0,.161.834c1.021,4.388,3.84,8.326,6.85,11.595a64.216,64.216,0,0,0,9.178,8.081l2.176,6.243a1.6,1.6,0,0,1,.111.446.33.33,0,0,1-.1.263.41.41,0,0,1-.321.089h-.656a.687.687,0,0,1-.491-.12.722.722,0,0,1-.223-.343c-.192-.584-1.338-3.853-1.561-4.517a.2.2,0,0,0-.192-.161.169.169,0,0,0-.169.169,4.5,4.5,0,0,0,.08.446c.29,1.489.633,3.162.776,3.795a4.812,4.812,0,0,1,.129.767.522.522,0,0,1-.192.446l-.673.687c-.161.161-.25.2-.384.2s-.29-.111-.352-.392c-.763-3.568-1.922-8.027-2.23-9.231-.067-.272-.12-.446-.281-.446s-.192.1-.192.223a2.708,2.708,0,0,0,.031.281c.183,1.266.892,5.891,1.712,10.105.138.727.41,1.128,1.035,1.128a1.151,1.151,0,0,0,.807-.352c.41-.41.535-.522,1.026-1.008a1.431,1.431,0,0,1,1.2-.455h1.516a.928.928,0,0,0,.714-.25.892.892,0,0,0,.263-.664,2.493,2.493,0,0,0-.192-.892c-.384-1.026-1.61-4.5-1.971-5.476h.027c1.258.954,3.09,2.172,3.9,2.172.25,0,.4-.107.4-.5,0-1.855-3.081-9.476-10.114-19.965a32.707,32.707,0,0,0-7.965-8.353" transform="translate(-31.867 0.012)"/><path class="a" d="M111.064,18.709c1.209-.513,3.371-1.382,4.62-1.833V15.65a86.7,86.7,0,0,0-9.9,4.379c.08.1.6.834.664.923a9.365,9.365,0,0,1,3.447-.865,17.352,17.352,0,0,0,4.593-.446V18.7a21.133,21.133,0,0,1-3.05.446c-.446,0-.584-.062-.584-.214s.062-.147.232-.219" transform="translate(-58.605 -8.66)"/><path class="a" d="M36.07,9.441a3.675,3.675,0,0,1-1.73-.281,4.054,4.054,0,0,0-1.931-.531,3.367,3.367,0,0,0-2.328.892,5.067,5.067,0,0,0-1.258,2.636A7.354,7.354,0,0,1,27.8,14.605c-.473.673-.816,1.008-1.9,2.274a20.972,20.972,0,0,0-3.4,6.083,7.874,7.874,0,0,1,.816-.04h.5l.152-.3a22.87,22.87,0,0,1,2.939-5.053l.446-.535a9.947,9.947,0,0,0,2.707-4.669,3.683,3.683,0,0,1,.847-1.944,2.337,2.337,0,0,1,1.641-.633,3.354,3.354,0,0,1,1.418.352,2.4,2.4,0,0,0,1.2.25h.446l-.7.945.954.673a3.447,3.447,0,0,0-2.042,2.047.722.722,0,0,0-.062.25.147.147,0,0,0,.161.161c.134,0,.232-.1.406-.3.584-.7,1.048-1.186,3.2-1.86L36,11.149l1.151-1.681Z" transform="translate(-12.464 -4.77)"/><path class="a" d="M4.721,8.329c-2.466,0-3.514,1.191-3.514,1.984A2.083,2.083,0,0,0,0,12.187a2.484,2.484,0,0,0,2.546,2.569,2.265,2.265,0,0,0,1.338-.446,2.774,2.774,0,0,0,.892.143,2.337,2.337,0,0,0,2.011-1.039,1.374,1.374,0,0,0,.232,0,2.39,2.39,0,0,0,2.056-1.338,1.052,1.052,0,0,0,.138-.446c0-.107-.049-.2-.161-.2s-.161.134-.41.361a3.434,3.434,0,0,1-2.323.682,1.9,1.9,0,0,1-1.579.963,2,2,0,0,1-1.173-.352,1.338,1.338,0,0,1-1.008.446,1.3,1.3,0,0,1-1.338-1.36,1.36,1.36,0,0,1,.865-1.262c.089-.994,1.155-1.668,2.488-1.668A4.246,4.246,0,0,1,5.1,9.27a1.922,1.922,0,0,1,1.369-.758,1.093,1.093,0,0,0,.33-.067.223.223,0,0,0,.12-.214.219.219,0,0,0-.107-.2,1.258,1.258,0,0,0-.334-.089A2.323,2.323,0,0,1,4.69,6.47,2.609,2.609,0,0,1,2.054,3.883V3.8a1.338,1.338,0,0,1-.847-1.253,1.338,1.338,0,0,1,1.338-1.36,1.374,1.374,0,0,1,1.11.553,2.448,2.448,0,0,1,.682-.08A2.533,2.533,0,0,1,6.9,3.763,2.087,2.087,0,0,1,8.788,5.636c.049.259.089.482.259.482s.223-.2.285-.473A2.078,2.078,0,0,1,10.014,4.4,2.395,2.395,0,0,1,12.4,1.939a1.338,1.338,0,0,1,2.586.575A1.338,1.338,0,0,1,14.442,3.6a2.778,2.778,0,0,1,.12.718,1.8,1.8,0,0,1-1.427,1.748,2.573,2.573,0,0,1-.7,1.338c-.606.584-1.217.584-1.217.829,0,.129.089.21.339.21A2.193,2.193,0,0,0,13.9,6.778a2.586,2.586,0,0,0,1.708-2.31,1.258,1.258,0,0,0-.111-.6,2,2,0,0,0,.638-1.476,2.462,2.462,0,0,0-4.5-1.338A2.9,2.9,0,0,0,9.118,4.017H8.966A1.36,1.36,0,0,0,7.717,2.978,3.1,3.1,0,0,0,4.77.624a3.862,3.862,0,0,0-.593.04A2.372,2.372,0,0,0,2.482-.014,2.475,2.475,0,0,0,0,2.47,2.283,2.283,0,0,0,1.135,4.445V4.61a3.153,3.153,0,0,0,3,2.836.932.932,0,0,0,.749.736v.138Z" transform="translate(0.004 0.026)"/><path class="a" d="M60.919,115.824a3.122,3.122,0,0,1-1.369-.29,1.744,1.744,0,0,1-.7-.615c-.152-.232-.2-.4-.446-.531a1.03,1.03,0,0,0-.544-.094H56.638a.557.557,0,0,0-.491.192.669.669,0,0,0-.12.446,2.359,2.359,0,0,0,.473,1.338,5.48,5.48,0,0,0,4.406,1.851c2.042,0,4.8-.834,4.8-3.532a2.858,2.858,0,0,0-.571-1.784,3.889,3.889,0,0,0-2.3-1.338l-2.283-.584c-.95-.245-1.391-.415-1.391-1s.5-1.017,1.672-1.017a2.292,2.292,0,0,1,1.708.575c.334.352.272.535.535.673a1.387,1.387,0,0,0,.624.08h1.137a.5.5,0,0,0,.41-.138.655.655,0,0,0,.134-.446,2.466,2.466,0,0,0-.945-1.712,5.525,5.525,0,0,0-3.6-1.155c-2.76,0-4.571,1.307-4.571,3.4a2.6,2.6,0,0,0,.714,1.824,4.549,4.549,0,0,0,2.314,1.208l2.306.584c.633.161,1.2.352,1.2.892,0,.856-.892,1.146-1.873,1.146" transform="translate(-31.038 -59.129)"/><path class="a" d="M19.75,18.446a25.031,25.031,0,0,1,2.274,4.268,10.314,10.314,0,0,1,.785-1.057A17.031,17.031,0,0,0,20.214,18Z" transform="translate(-10.94 -9.962)"/><path class="a" d="M51.291,46.938a8.263,8.263,0,0,1,2.961-.615,14.551,14.551,0,0,1,1.891.152,17.775,17.775,0,0,0,2.283.187,8.919,8.919,0,0,0,4.04-1.191,6.372,6.372,0,0,1-.7-.691,9.293,9.293,0,0,1-3.345.767,14.4,14.4,0,0,1-1.9-.138,17.664,17.664,0,0,0-2.163-.192,5.958,5.958,0,0,0-3.648,1Z" transform="translate(-28.099 -24.799)"/><path class="a" d="M41.351,46.944l-.584-.754C38.506,47.055,36,48.451,36,49.882c0,.816.606,1.463,1.962,1.463A13.006,13.006,0,0,0,43.786,49.4l-.245-.334a.482.482,0,0,0-.446-.259.95.95,0,0,0-.366.1,11.02,11.02,0,0,1-4.508,1.431c-.847,0-1.057-.263-1.057-.624,0-1.026,2.8-2.23,4.187-2.769" transform="translate(-19.943 -25.58)"/><path class="a" d="M84.034,104.5a.758.758,0,0,0,.495-.161.669.669,0,0,0,.192-.526v-.691a.66.66,0,0,0-.192-.526.758.758,0,0,0-.495-.161H82.214V99.155a.927.927,0,0,0-.2-.6.825.825,0,0,0-.678-.294H80.2a.821.821,0,0,0-.673.294.928.928,0,0,0-.2.6v3.282h-.562a.758.758,0,0,0-.5.161.647.647,0,0,0-.192.526v.691a.651.651,0,0,0,.192.526.758.758,0,0,0,.5.161h.562v5.021a3.425,3.425,0,0,0,3.764,3.706h.856a.731.731,0,0,0,.5-.161.664.664,0,0,0,.21-.522v-.892a.664.664,0,0,0-.21-.522.731.731,0,0,0-.495-.161h-.107a1.619,1.619,0,0,1-1.168-.384,1.672,1.672,0,0,1-.446-1.28V104.5Z" transform="translate(-43.254 -54.429)"/><path class="a" d="M114.353,100.233a.754.754,0,0,0,.491-.161.664.664,0,0,0,.192-.522v-.936a.923.923,0,0,0-.192-.678.673.673,0,0,0-.491-.187,5.271,5.271,0,0,0-.6.049l-8.027.794a.535.535,0,0,0-.553.593v.526a.486.486,0,0,0,.111.37.5.5,0,0,0,.4.152Z" transform="translate(-58.269 -54.147)"/><path class="a" d="M50.568,56.05A15.425,15.425,0,0,1,44.4,62.886a7.527,7.527,0,0,1-4.294,1.048h-4.7a13.222,13.222,0,0,0-3.568.446,8.379,8.379,0,0,1-2.346.446,4.629,4.629,0,0,1-3.153-1.275l1.106-.892-.553-.736c-.321.232-4.259,3.122-5.084,3.795l-.049-.031v-.562c0-2.23-1.026-2.751-2.586-3.376l-1.057.624c2.145.718,2.676,1.289,2.676,2.89a2.105,2.105,0,0,1-1.11,2.154,4.593,4.593,0,0,1-2.23.575.7.7,0,0,0-.562.169.749.749,0,0,0-.183.553v.352h.254a5.869,5.869,0,0,0,3.964-1.284L25.385,64.3a5.869,5.869,0,0,0,4.125,1.73,9.985,9.985,0,0,0,2.738-.508,11.091,11.091,0,0,1,3.122-.366h4.758A8.663,8.663,0,0,0,45,63.925a15.831,15.831,0,0,0,6.533-7.26c-.352-.223-.687-.446-.968-.615" transform="translate(-9.253 -31.043)"/><path class="a" d="M.04,54.145H.4c.754,0,.847-.446.847-.892v-.986a1.978,1.978,0,0,1,1.387-2.185c.544-.241,3.211-1.338,5.2-2.176a4.388,4.388,0,0,1,1.73-.446,4.959,4.959,0,0,1,2.417.865,10.1,10.1,0,0,1,2.337,1.882l.847-.656a11.175,11.175,0,0,0-2.769-2.23,5.628,5.628,0,0,0-2.676-.954,3.122,3.122,0,0,0-.834.12,3.121,3.121,0,0,1-.847.147A1.36,1.36,0,0,1,6.9,46.024c-.169-.192-1.258-1.431-1.489-1.784a1.726,1.726,0,0,1-.312-.892,1.155,1.155,0,0,1,.129-.553,6.961,6.961,0,0,0,3.505,1.338l-.192-.959c-2.02-.531-4.178-2.314-4.178-3.461a1.463,1.463,0,0,1,.152-.624A6.957,6.957,0,0,0,8.138,40.57a3.568,3.568,0,0,0,1.409-.357,3.4,3.4,0,0,1,1.338-.317,12.266,12.266,0,0,1,4.281,1.213.722.722,0,0,0,.259.054.54.54,0,0,0,.5-.312l.183-.334a13.955,13.955,0,0,0-5.276-1.851,3.568,3.568,0,0,0-1.409.312,3.514,3.514,0,0,1-1.258.37c-1.017,0-3.626-1-3.626-1.98,0-1.151,4.147-1.592,4.6-1.592l.41-.936c-3.01,0-6.591,1.057-6.591,2.457,0,.4.232.6.232.977,0,.5-.232.847-.232,1.409a2.707,2.707,0,0,0,.482,1.258c.281.446.615.714.615,1.079a9.182,9.182,0,0,0-.183,1.226c0,1.338.776,2.185,2.288,3.8l.3.326C5.218,47.857,2.9,48.865,2.35,49.1.473,49.833,0,50.791,0,52.3c0,.584,0,1.244.04,1.842" transform="translate(0.003 -19.292)"/><path class="a" d="M415.139,120.148a4.361,4.361,0,0,0,4.361,0,3.951,3.951,0,0,0,1.463-1.637,5.463,5.463,0,0,0,.513-2.435,5.374,5.374,0,0,0-.513-2.408,3.875,3.875,0,0,0-1.463-1.619,4.357,4.357,0,0,0-4.343,0,3.862,3.862,0,0,0-1.472,1.628,5.312,5.312,0,0,0-.526,2.417,5.432,5.432,0,0,0,.517,2.426,3.84,3.84,0,0,0,1.463,1.637m-.446-6a3.032,3.032,0,0,1,1.057-1.338,2.752,2.752,0,0,1,1.579-.446,2.814,2.814,0,0,1,1.583.446,3.006,3.006,0,0,1,1.07,1.3,4.7,4.7,0,0,1,.375,1.926,4.843,4.843,0,0,1-.375,1.971,3.072,3.072,0,0,1-1.07,1.338,2.9,2.9,0,0,1-3.162,0,2.992,2.992,0,0,1-1.057-1.311,4.727,4.727,0,0,1-.379-1.953,4.67,4.67,0,0,1,.379-1.935" transform="translate(-228.91 -61.749)"/><path class="a" d="M392.869,120.137a4.1,4.1,0,0,0,2.172.58,4.053,4.053,0,0,0,2.19-.589,3.951,3.951,0,0,0,1.463-1.637,5.463,5.463,0,0,0,.517-2.435,5.374,5.374,0,0,0-.517-2.408,3.875,3.875,0,0,0-1.463-1.619,4.357,4.357,0,0,0-4.344,0,3.925,3.925,0,0,0-1.472,1.628,5.311,5.311,0,0,0-.526,2.417,5.494,5.494,0,0,0,.517,2.426,3.867,3.867,0,0,0,1.463,1.637m-.446-6a3.042,3.042,0,0,1,1.061-1.338,2.738,2.738,0,0,1,1.574-.446,2.805,2.805,0,0,1,1.583.446,2.944,2.944,0,0,1,1.07,1.3,4.7,4.7,0,0,1,.375,1.926,4.844,4.844,0,0,1-.375,1.971,3.01,3.01,0,0,1-1.07,1.338,2.894,2.894,0,0,1-3.157,0,3,3,0,0,1-1.061-1.311,4.8,4.8,0,0,1-.375-1.953,4.74,4.74,0,0,1,.375-1.935" transform="translate(-216.571 -61.738)"/><path class="a" d="M437.3,115.6a3.875,3.875,0,0,0,3.956.089,3.166,3.166,0,0,0,1.262-1.378l.107,1.663h.928v-12.7h-1.07v5.5a3.269,3.269,0,0,0-1.284-1.338,3.639,3.639,0,0,0-1.886-.5,3.568,3.568,0,0,0-2.02.58,3.8,3.8,0,0,0-1.373,1.619,5.556,5.556,0,0,0-.491,2.408,5.681,5.681,0,0,0,.491,2.426,3.84,3.84,0,0,0,1.382,1.646m.071-6.769a2.609,2.609,0,0,1,2.136-1,2.676,2.676,0,0,1,1.565.473,3.059,3.059,0,0,1,1.043,1.338,4.8,4.8,0,0,1,.366,1.944,4.74,4.74,0,0,1-.375,1.944,3.028,3.028,0,0,1-1.061,1.3,2.676,2.676,0,0,1-1.556.446,2.56,2.56,0,0,1-2.136-1.017,4.29,4.29,0,0,1-.789-2.711,4.188,4.188,0,0,1,.807-2.716" transform="translate(-241.248 -57.211)"/><path class="a" d="M343.552,127.91l-.892,3.9h.945l1.347-3.9Z" transform="translate(-189.85 -70.858)"/><path class="a" d="M365.749,104.5a4.459,4.459,0,0,1,2.471-.691,4.1,4.1,0,0,1,3.657,2.083l.861-.647a5.169,5.169,0,0,0-1.918-1.784,5.423,5.423,0,0,0-2.6-.615,5.57,5.57,0,0,0-5.146,3.162,7.527,7.527,0,0,0-.745,3.389,7.135,7.135,0,0,0,.789,3.38,5.842,5.842,0,0,0,2.207,2.328,6.217,6.217,0,0,0,3.238.843,8.027,8.027,0,0,0,4.17-1.159v-5.5h-4.584v.945H371.6v3.978a5.913,5.913,0,0,1-2.979.754,4.905,4.905,0,0,1-2.644-.714,4.767,4.767,0,0,1-1.784-1.993,6.44,6.44,0,0,1-.651-2.934,6.689,6.689,0,0,1,.589-2.881,4.544,4.544,0,0,1,1.654-1.944" transform="translate(-200.747 -56.972)"/><rect class="a" width="1.07" height="8.843" transform="translate(213.811 49.921)"/><path class="a" d="M501.607,111.449a4.045,4.045,0,0,0-2.154.571,3.8,3.8,0,0,0-1.436,1.61,5.949,5.949,0,0,0,0,4.852,3.947,3.947,0,0,0,1.489,1.646,4.179,4.179,0,0,0,2.23.589,4.535,4.535,0,0,0,2.029-.446,3.888,3.888,0,0,0,1.507-1.275l-.736-.633a3.693,3.693,0,0,1-1.253,1.088,3.313,3.313,0,0,1-1.547.366,2.858,2.858,0,0,1-2.27-.972,3.969,3.969,0,0,1-.865-2.676h6.689v-.446a4.562,4.562,0,0,0-1.008-3.122,3.447,3.447,0,0,0-2.725-1.146m-2.89,3.808a3.519,3.519,0,0,1,.936-2.136,2.711,2.711,0,0,1,1.984-.754,2.475,2.475,0,0,1,1.931.749,3.122,3.122,0,0,1,.736,2.127Z" transform="translate(-275.64 -61.737)"/><path class="a" d="M488.673,104.2a1.583,1.583,0,0,1,1.2-.446,2.979,2.979,0,0,1,.963.174v-.963a3.648,3.648,0,0,0-1.119-.156,2.506,2.506,0,0,0-1.869.682,2.573,2.573,0,0,0-.673,1.891v1.489H485.65v.892h1.525v7.933h1.07v-7.9h2.2V106.9h-2.2v-1.418a1.744,1.744,0,0,1,.446-1.253" transform="translate(-269.074 -56.946)"/><path class="a" d="M321.842,115.6a3.88,3.88,0,0,0,3.96.089,3.166,3.166,0,0,0,1.262-1.378l.1,1.663h.928v-12.7h-1.066v5.5a3.309,3.309,0,0,0-1.289-1.338,3.634,3.634,0,0,0-1.882-.5,3.567,3.567,0,0,0-2.02.58,3.786,3.786,0,0,0-1.378,1.619,5.624,5.624,0,0,0-.491,2.408,5.749,5.749,0,0,0,.491,2.426,3.871,3.871,0,0,0,1.382,1.646m.071-6.769a2.609,2.609,0,0,1,2.136-1,2.676,2.676,0,0,1,1.57.473,3.05,3.05,0,0,1,1.039,1.338,4.8,4.8,0,0,1,.37,1.944,4.668,4.668,0,0,1-.379,1.944,3.019,3.019,0,0,1-1.057,1.3,2.676,2.676,0,0,1-1.561.446,2.564,2.564,0,0,1-2.136-1.017,4.29,4.29,0,0,1-.789-2.711,4.21,4.21,0,0,1,.807-2.716" transform="translate(-177.277 -57.211)"/><path class="a" d="M25.877,7.611a.169.169,0,0,0-.152-.161c-.089,0-.138.062-.232.134a10.7,10.7,0,0,0-1.106,1.075,7.884,7.884,0,0,0-1.3,2.158l.544.33c.375-.553,1.57-2.448,2.185-3.4a.281.281,0,0,0,.058-.152" transform="translate(-12.791 -4.116)"/><path class="a" d="M470.69,103.28v12.7h1.07v-12.7Z" transform="translate(-260.786 -57.211)"/><path class="a" d="M480.456,104.921a.673.673,0,0,0-.227-.531.838.838,0,0,0-.575-.2.754.754,0,0,0-.544.2.709.709,0,0,0-.21.531.749.749,0,0,0,.21.535.713.713,0,0,0,.544.219.8.8,0,0,0,.566-.219.687.687,0,0,0,.236-.535" transform="translate(-265.334 -57.715)"/><path class="a" d="M0,112.151a.994.994,0,0,0,.223.7.963.963,0,0,0,.794.33H1.95a.963.963,0,0,0,.794-.33.994.994,0,0,0,.223-.7v-9.365h.049s5.2,9.2,5.4,9.539a1.677,1.677,0,0,0,1.489.847h1.605a.959.959,0,0,0,.789-.33.994.994,0,0,0,.223-.7V100.463H33.559a.754.754,0,0,0,.491-.161.642.642,0,0,0,.192-.522v-.892a.638.638,0,0,0-.192-.522.731.731,0,0,0-.491-.165H10.606a.963.963,0,0,0-.8.334.977.977,0,0,0-.223.7v9.142H9.54s-5-8.919-5.244-9.334a1.726,1.726,0,0,0-.615-.647,1.886,1.886,0,0,0-1.008-.227H1.014A.963.963,0,0,0,.22,98.5.977.977,0,0,0,0,99.2Z" transform="translate(0.006 -54.377)"/><path class="a" d="M40.978,113.115a1.026,1.026,0,0,0,.254-.825,5.886,5.886,0,0,0-1.28-3.733,5.142,5.142,0,0,0-4.134-1.784,5.366,5.366,0,0,0-5.458,5.61,5.479,5.479,0,0,0,5.476,5.766,5.667,5.667,0,0,0,4.277-1.748,2.979,2.979,0,0,0,.749-1.574.5.5,0,0,0-.111-.348.482.482,0,0,0-.415-.165H38.713a.767.767,0,0,0-.7.366,2.417,2.417,0,0,1-2.167,1.057,2.515,2.515,0,0,1-2.555-2.408H40.3a.892.892,0,0,0,.682-.223m-7.657-1.926a2.546,2.546,0,0,1,5.035,0Z" transform="translate(-16.819 -59.144)"/><path class="a" d="M8.054,23.875a.161.161,0,0,0,.161.161.847.847,0,0,0,.259-.08l3.684-1.249-.183-.606a7.706,7.706,0,0,0-3.826,1.6.21.21,0,0,0-.1.174" transform="translate(-4.458 -12.233)"/><path class="a" d="M10.294,8.587A8.063,8.063,0,0,0,8.35,7.481L8.221,7.45A.152.152,0,0,0,8.06,7.6c0,.058,0,.111.111.192.892.745,2.564,2.163,3.09,2.6l.419-.464a8.812,8.812,0,0,0-1.387-1.338" transform="translate(-4.463 -4.116)"/><path class="a" d="M159.6,104.5a4.459,4.459,0,0,1,2.466-.7,4.112,4.112,0,0,1,3.661,2.083l.861-.647a5.2,5.2,0,0,0-1.918-1.784,5.427,5.427,0,0,0-2.6-.615,5.565,5.565,0,0,0-5.155,3.18,7.527,7.527,0,0,0-.745,3.389,7.135,7.135,0,0,0,.789,3.38,5.8,5.8,0,0,0,2.207,2.328,6.216,6.216,0,0,0,3.238.843,8.027,8.027,0,0,0,4.17-1.159v-5.512h-4.589v.945h3.474v3.978a5.913,5.913,0,0,1-2.979.754,4.905,4.905,0,0,1-2.644-.714,4.807,4.807,0,0,1-1.806-1.993,6.439,6.439,0,0,1-.647-2.934,6.689,6.689,0,0,1,.589-2.881,4.544,4.544,0,0,1,1.654-1.944" transform="translate(-86.523 -56.966)"/><path class="a" d="M231.126,115.6a3.875,3.875,0,0,0,3.956.089,3.166,3.166,0,0,0,1.262-1.378l.107,1.663h.928v-12.7h-1.07v5.5a3.278,3.278,0,0,0-1.289-1.338,3.621,3.621,0,0,0-1.882-.5,3.567,3.567,0,0,0-2.02.58,3.813,3.813,0,0,0-1.378,1.619,5.623,5.623,0,0,0-.491,2.408,5.748,5.748,0,0,0,.491,2.426,3.88,3.88,0,0,0,1.387,1.646m.067-6.769a2.622,2.622,0,0,1,2.136-1,2.676,2.676,0,0,1,1.57.473,3.059,3.059,0,0,1,1.043,1.338,4.8,4.8,0,0,1,.366,1.944,4.74,4.74,0,0,1-.375,1.944,3.059,3.059,0,0,1-1.061,1.3,2.676,2.676,0,0,1-1.561.446,2.564,2.564,0,0,1-2.136-1.017,4.317,4.317,0,0,1-.785-2.711,4.21,4.21,0,0,1,.8-2.716" transform="translate(-127.013 -57.211)"/><path class="a" d="M186.7,120.148a4.361,4.361,0,0,0,4.361,0,3.951,3.951,0,0,0,1.463-1.637,5.463,5.463,0,0,0,.513-2.435,5.374,5.374,0,0,0-.513-2.408,3.875,3.875,0,0,0-1.463-1.619,4.357,4.357,0,0,0-4.344,0,3.862,3.862,0,0,0-1.472,1.628,5.311,5.311,0,0,0-.526,2.417,5.494,5.494,0,0,0,.517,2.426,3.839,3.839,0,0,0,1.463,1.637m-.446-6a3.032,3.032,0,0,1,1.057-1.338,2.752,2.752,0,0,1,1.579-.446,2.814,2.814,0,0,1,1.583.446,2.943,2.943,0,0,1,1.07,1.3,4.7,4.7,0,0,1,.375,1.926,4.843,4.843,0,0,1-.375,1.971,3.01,3.01,0,0,1-1.07,1.338,2.9,2.9,0,0,1-3.162,0,2.992,2.992,0,0,1-1.057-1.311,4.727,4.727,0,0,1-.379-1.953,4.669,4.669,0,0,1,.379-1.935" transform="translate(-102.341 -61.749)"/><path class="a" d="M265.006,104.2a1.583,1.583,0,0,1,1.2-.446,2.979,2.979,0,0,1,.963.174v-.963a3.608,3.608,0,0,0-1.119-.156,2.5,2.5,0,0,0-1.864.682,2.578,2.578,0,0,0-.678,1.891v1.489H262v.892h1.521v7.933h1.07v-7.9h2.23V106.9h-2.23v-1.418a1.744,1.744,0,0,1,.446-1.253" transform="translate(-145.16 -56.946)"/><path class="a" d="M277.419,120.148a4.352,4.352,0,0,0,4.357,0,3.893,3.893,0,0,0,1.463-1.637,5.4,5.4,0,0,0,.517-2.435,5.316,5.316,0,0,0-.517-2.408,3.817,3.817,0,0,0-1.463-1.619,4.357,4.357,0,0,0-4.343,0,3.884,3.884,0,0,0-1.467,1.628,5.311,5.311,0,0,0-.526,2.417,5.432,5.432,0,0,0,.517,2.426,3.84,3.84,0,0,0,1.463,1.637m-.468-6a3.073,3.073,0,0,1,1.061-1.338,2.751,2.751,0,0,1,1.579-.446,2.814,2.814,0,0,1,1.583.446,2.965,2.965,0,0,1,1.066,1.3,4.629,4.629,0,0,1,.379,1.926,4.767,4.767,0,0,1-.379,1.971,3.033,3.033,0,0,1-1.066,1.338,2.9,2.9,0,0,1-3.162,0,3.033,3.033,0,0,1-1.061-1.311,4.8,4.8,0,0,1-.375-1.953,4.74,4.74,0,0,1,.375-1.935" transform="translate(-152.605 -61.749)"/><path class="a" d="M208.969,120.148a4.352,4.352,0,0,0,4.357,0,3.893,3.893,0,0,0,1.463-1.637,5.4,5.4,0,0,0,.517-2.435,5.316,5.316,0,0,0-.517-2.408,3.817,3.817,0,0,0-1.463-1.619,4.357,4.357,0,0,0-4.343,0,3.884,3.884,0,0,0-1.467,1.628,5.311,5.311,0,0,0-.526,2.417,5.432,5.432,0,0,0,.517,2.426,3.84,3.84,0,0,0,1.463,1.637m-.468-6a3.073,3.073,0,0,1,1.061-1.338,2.751,2.751,0,0,1,1.579-.446,2.823,2.823,0,0,1,1.583.446,2.966,2.966,0,0,1,1.066,1.3,4.629,4.629,0,0,1,.379,1.926,4.767,4.767,0,0,1-.379,1.971,3.033,3.033,0,0,1-1.066,1.338,2.9,2.9,0,0,1-3.162,0,3.032,3.032,0,0,1-1.061-1.311,4.8,4.8,0,0,1-.375-1.953,4.741,4.741,0,0,1,.375-1.935" transform="translate(-114.68 -61.749)"/><path class="a" d="M299.679,120.137a4.107,4.107,0,0,0,2.172.58,4.054,4.054,0,0,0,2.19-.589,3.893,3.893,0,0,0,1.463-1.637,5.464,5.464,0,0,0,.517-2.435,5.374,5.374,0,0,0-.517-2.408,3.817,3.817,0,0,0-1.463-1.619,4.357,4.357,0,0,0-4.343,0,3.924,3.924,0,0,0-1.472,1.628,5.351,5.351,0,0,0-.526,2.417,5.493,5.493,0,0,0,.517,2.426,3.9,3.9,0,0,0,1.463,1.637m-.446-6a3.042,3.042,0,0,1,1.061-1.338,2.747,2.747,0,0,1,1.574-.446,2.827,2.827,0,0,1,1.588.446,2.966,2.966,0,0,1,1.066,1.3,4.629,4.629,0,0,1,.379,1.926,4.767,4.767,0,0,1-.379,1.971,3.032,3.032,0,0,1-1.066,1.338,2.9,2.9,0,0,1-3.162,0,3,3,0,0,1-1.061-1.311,4.8,4.8,0,0,1-.375-1.953,4.741,4.741,0,0,1,.375-1.935" transform="translate(-164.939 -61.738)"/><path class="a" d="M135.31,124.807h-.259v.549h.281c.2,0,.366-.027.366-.276s-.183-.272-.388-.272m.406,1.654c-.1-.276.036-.807-.357-.807h-.308v.807h-.446V124.5h.892c.357,0,.664.067.664.5,0,.29-.174.424-.446.473.526.076.334.606.486.99Zm-.348-2.444a1.481,1.481,0,1,0,1.472,1.472,1.481,1.481,0,0,0-1.472-1.472m0,3.291a1.819,1.819,0,1,1,1.811-1.819,1.819,1.819,0,0,1-1.811,1.819" transform="translate(-73.986 -68.509)"/></g></g></svg>