<svg xmlns="http://www.w3.org/2000/svg" width="272.681" height="84.462" viewBox="0 0 272.681 84.462"><defs><style>.a{opacity:0.84;}.b{fill:#2aa4d5;}.c{fill:#fff;}</style></defs><g class="a" transform="translate(-144.001 -33.549)"><path class="b" d="M41.263,84.155a1.041,1.041,0,0,1-.3-.782,1.109,1.109,0,0,1,1.089-1.043,1.052,1.052,0,0,1,1.083,1.034,1.1,1.1,0,0,1-1.094,1.1H42A1.03,1.03,0,0,1,41.263,84.155Zm4.574-.1a1.006,1.006,0,0,1-.381-.74,1.141,1.141,0,0,1,.969-1.189,1.068,1.068,0,0,1,1.168.9,1.092,1.092,0,0,1-.947,1.228,1,1,0,0,1-.809-.2ZM37.5,84.2a.089.089,0,0,1-.079-.1l.226-1.946a.089.089,0,0,1,.07-.079l.5.03a.1.1,0,0,1,.079.1l-.2,1.946a.1.1,0,0,1-.1.085ZM50.7,83.579a.09.09,0,0,1-.04-.055l-.391-1.916a.1.1,0,0,1,.074-.111l.472-.109a.088.088,0,0,1,.106.065l.421,1.915a.09.09,0,0,1-.07.106l-.5.116-.022,0A.1.1,0,0,1,50.7,83.579Zm-17.028-.011-.5-.085a.091.091,0,0,1-.075-.106l.426-1.911a.09.09,0,0,1,.081-.07l.5.081a.083.083,0,0,1,.058.037.078.078,0,0,1,.012.069l-.4,1.914a.083.083,0,0,1-.037.06.086.086,0,0,1-.046.014A.085.085,0,0,1,33.675,83.568ZM54.5,82.332a1.041,1.041,0,0,1-.537-.623,1.124,1.124,0,0,1,.7-1.369,1.068,1.068,0,0,1,1.3,1.5,1.068,1.068,0,0,1-.638.535,1.044,1.044,0,0,1-.367.067A1.027,1.027,0,0,1,54.5,82.332Zm-27.538-.849a1.084,1.084,0,1,1,.4.075A1.085,1.085,0,0,1,26.967,81.483Zm32.218-.611a.088.088,0,0,1-.052-.046l-.787-1.8a.087.087,0,0,1,0-.067.09.09,0,0,1,.048-.047l.441-.2a.091.091,0,0,1,.116.046l.818,1.779a.1.1,0,0,1-.052.122l-.459.206a.1.1,0,0,1-.042.01A.075.075,0,0,1,59.184,80.872ZM42.531,80.4a1.115,1.115,0,0,1-.37-.778,1.1,1.1,0,0,1,1.118-1.067A1.174,1.174,0,0,1,44.465,79.6a1.059,1.059,0,0,1-1.121,1.094l-.066,0A1.118,1.118,0,0,1,42.531,80.4Zm-3.514.164-.541-.055a.094.094,0,0,1-.067-.028.1.1,0,0,1-.025-.067l.2-1.952a.1.1,0,0,1,.111-.074l.5.044a.094.094,0,0,1,.085.1l-.155,1.952a.1.1,0,0,1-.035.063.1.1,0,0,1-.053.018Zm7.864-1.228a1.148,1.148,0,1,1,1.134.972A1.159,1.159,0,0,1,46.882,79.341Zm-12.469.581-.531-.106a.091.091,0,0,1-.06-.035.087.087,0,0,1-.014-.069l.43-1.911a.1.1,0,0,1,.111-.065l.5.1a.1.1,0,0,1,.076.106l-.4,1.92a.1.1,0,0,1-.117.065ZM23.1,79.863l-.456-.236a.078.078,0,0,1-.046-.051.086.086,0,0,1,.005-.069l.914-1.731a.087.087,0,0,1,.119-.039l.432.22a.091.091,0,0,1,.035.12l-.882,1.745a.094.094,0,0,1-.082.049A.1.1,0,0,1,23.1,79.863Zm29.426-.571a.089.089,0,0,1-.046-.051l-.5-1.892a.108.108,0,0,1,.02-.114l.5-.15a.078.078,0,0,1,.069,0,.088.088,0,0,1,.042.055l.557,1.876a.1.1,0,0,1-.013.072.09.09,0,0,1-.058.042l-.5.166a.083.083,0,0,1-.03.006A.085.085,0,0,1,52.525,79.292Zm10.087-.428a1.058,1.058,0,0,1-.669-.516,1.092,1.092,0,0,1,.4-1.464,1.109,1.109,0,0,1,1.506.38,1.121,1.121,0,0,1-.979,1.632A1.07,1.07,0,0,1,62.612,78.864ZM27.277,77.68a1.081,1.081,0,0,1-.652-1.423,1.16,1.16,0,0,1,1.5-.548,1.127,1.127,0,0,1,.652,1.425,1.091,1.091,0,0,1-1.5.546Zm28.536-.565a1.15,1.15,0,0,1,.643-1.441,1.124,1.124,0,0,1,1.474.527,1.154,1.154,0,0,1-2.117.914Zm-36.792.37a1.04,1.04,0,0,1-.325-1.479,1.118,1.118,0,0,1,1.5-.3,1.068,1.068,0,1,1-1.179,1.781Zm22.855-.527a1.035,1.035,0,0,1-1-1.088,1.073,1.073,0,0,1,1.048-1.048,1.094,1.094,0,0,1,1,1.083,1,1,0,0,1-1,1.054Zm3.947-.21a.089.089,0,0,1-.03-.06l-.19-1.962a.083.083,0,0,1,.075-.079l.457-.041a.09.09,0,0,1,.1.079l.241,1.946a.092.092,0,0,1-.081.1l-.5.04h-.012A.081.081,0,0,1,45.823,76.749Zm-7.9-.056-.5-.06a.077.077,0,0,1-.059-.03.081.081,0,0,1-.016-.065l.275-1.941a.091.091,0,0,1,.041-.063.089.089,0,0,1,.076-.012l.451.051a.08.08,0,0,1,.06.033.093.093,0,0,1,.016.067l-.242,1.941a.089.089,0,0,1-.033.062.088.088,0,0,1-.054.019Zm11.89-.634a1.035,1.035,0,1,1,.313.049A1.024,1.024,0,0,1,49.814,76.058ZM23.29,75.715l-.5-.25a.094.094,0,0,1-.051-.053.086.086,0,0,1,.005-.072l1-1.686a.1.1,0,0,1,.067-.048.106.106,0,0,1,.08.012l.451.241a.094.094,0,0,1,.041.12l-.961,1.7a.094.094,0,0,1-.06.044l-.019,0A.1.1,0,0,1,23.29,75.715Zm37.88-.085-.983-1.7a.093.093,0,0,1,0-.074.089.089,0,0,1,.053-.051l.446-.245a.1.1,0,0,1,.13.03l1,1.686a.1.1,0,0,1-.045.125l-.472.261a.1.1,0,0,1-.05.014A.1.1,0,0,1,61.169,75.63Zm-29.8-.4a1,1,0,0,1-.652-1.33,1.093,1.093,0,0,1,1.322-.7,1.069,1.069,0,0,1,.654,1.309,1.039,1.039,0,0,1-1.325.717ZM68.7,75.044l-1.228-1.506a.1.1,0,0,1-.032-.072.1.1,0,0,1,.032-.072l.366-.317a.1.1,0,0,1,.125,0l1.249,1.506a.089.089,0,0,1,.029.065.092.092,0,0,1-.029.065l-.385.331a.088.088,0,0,1-.064.026A.089.089,0,0,1,68.7,75.044Zm-53.074-.07-.4-.317a.09.09,0,0,1,0-.125l1.257-1.5a.093.093,0,0,1,.127.019l.375.3a.09.09,0,0,1,0,.125l-1.232,1.506a.091.091,0,0,1-.125,0Zm38.007-.238a1.009,1.009,0,0,1-.528-.62,1.108,1.108,0,0,1,.6-1.36,1.042,1.042,0,0,1,1.333.608,1.062,1.062,0,0,1-.587,1.393,1,1,0,0,1-.382.076A1.014,1.014,0,0,1,53.629,74.735Zm-26.021-1-.446-.19a.089.089,0,0,1-.046-.114l.858-1.766a.089.089,0,0,1,.114-.044l.423.18a.091.091,0,0,1,.038.116l-.823,1.775a.092.092,0,0,1-.049.048.09.09,0,0,1-.031.006A.1.1,0,0,1,27.608,73.733ZM19.1,72.976a1.126,1.126,0,0,1-.255-1.578,1.1,1.1,0,0,1,1.539-.132,1.151,1.151,0,0,1,.286,1.536,1.083,1.083,0,0,1-.747.43,1.073,1.073,0,0,1-.823-.255Zm22.572.247A1.094,1.094,0,0,1,40.592,72.1a1.078,1.078,0,0,1,1.123-1A1.121,1.121,0,0,1,42.8,72.159a1.047,1.047,0,0,1-1.049,1.066ZM63.9,72.736a1.081,1.081,0,0,1,.3-1.5,1.1,1.1,0,0,1,1.536.114,1.133,1.133,0,0,1-.247,1.585,1.144,1.144,0,0,1-1.59-.2Zm-6.363.345a1,1,0,0,1-.6-.541,1.084,1.084,0,0,1,.421-1.43,1.068,1.068,0,0,1,1.408.456A1.029,1.029,0,0,1,58.346,73a.994.994,0,0,1-.492.13A1.009,1.009,0,0,1,57.539,73.082ZM45.955,73a.094.094,0,0,1-.037-.058l-.275-1.946a.089.089,0,0,1,.021-.07.091.091,0,0,1,.069-.03l.5-.076a.093.093,0,0,1,.1.076l.27,1.936a.1.1,0,0,1-.08.106l-.5.076-.018,0A.1.1,0,0,1,45.955,73Zm-8.838-.2a1.043,1.043,0,0,1-.918-1.219,1.149,1.149,0,0,1,1.268-.863,1.1,1.1,0,0,1,.918,1.2,1.073,1.073,0,0,1-1.268.882Zm-24.975-.953a1.03,1.03,0,0,1,0-1.5,1.132,1.132,0,0,1,1.5.03,1.063,1.063,0,0,1,.044,1.474,1.09,1.09,0,0,1-1.548,0Zm59.8.277-1.384-1.405a.09.09,0,0,1,0-.106l.331-.351a.09.09,0,0,1,.125,0l1.4,1.365a.093.093,0,0,1,0,.13l-.35.366a.087.087,0,0,1-.125,0Zm-22.528-.8A1.069,1.069,0,0,1,50.152,70a1.142,1.142,0,0,1,1.348.717,1.037,1.037,0,0,1-.767,1.338,1.057,1.057,0,0,1-.292.041A1.068,1.068,0,0,1,49.414,71.317Zm-16.491.5-.5-.181a.1.1,0,0,1-.062-.114l.627-1.856a.089.089,0,0,1,.045-.053.077.077,0,0,1,.071,0l.462.166a.093.093,0,0,1,.054.114l-.581,1.871a.091.091,0,0,1-.046.051.1.1,0,0,1-.035.007A.1.1,0,0,1,32.923,71.819Zm-9.3-.241a1.074,1.074,0,0,1-.286-1.5,1.038,1.038,0,0,1,1.429-.317,1.088,1.088,0,0,1,.312,1.46,1,1,0,0,1-1.455.361Zm38.139-.634a.084.084,0,0,1-.059-.039l-1.1-1.618a.092.092,0,0,1,0-.122l.38-.25a.1.1,0,0,1,.125.025l1.129,1.6a.092.092,0,0,1,0,.12l-.407.271a.092.092,0,0,1-.049.014ZM15.7,70.079l-.391-.377a.1.1,0,0,1,0-.136l1.368-1.393a.089.089,0,0,1,.066-.028.083.083,0,0,1,.065.028l.366.356a.088.088,0,0,1,.028.065.091.091,0,0,1-.028.065l-1.344,1.42a.088.088,0,0,1-.065.027A.09.09,0,0,1,15.7,70.079Zm12.964.014-.472-.225a.093.093,0,0,1-.044-.12l.9-1.746a.1.1,0,0,1,.122-.041l.435.211a.08.08,0,0,1,.048.051.086.086,0,0,1-.007.069l-.853,1.759a.087.087,0,0,1-.054.048.093.093,0,0,1-.027,0A.087.087,0,0,1,28.666,70.093Zm27.65-.574a1.093,1.093,0,0,1-.659-.539,1.109,1.109,0,0,1,1.936-1.069v.011a1.113,1.113,0,0,1-.432,1.5,1.09,1.09,0,0,1-.845.093Zm-14.773-1.1a.969.969,0,1,1,1.928-.014.974.974,0,0,1-.958,1.083A1.074,1.074,0,0,1,41.543,68.418Zm-21.379.632a1.038,1.038,0,0,1-.12-1.5,1.076,1.076,0,0,1,1.5-.16,1.091,1.091,0,0,1,.122,1.5,1.01,1.01,0,0,1-.717.423,1,1,0,0,1-.1.005A1.007,1.007,0,0,1,20.165,69.05Zm18.562.2-.456-.041a.08.08,0,0,1-.057-.032.076.076,0,0,1-.014-.063l.291-1.936a.088.088,0,0,1,.025-.067.086.086,0,0,1,.065-.028l.421.049a.073.073,0,0,1,.056.033.067.067,0,0,1,.009.062l-.245,1.941a.092.092,0,0,1-.091.081ZM73.617,68.9a1.126,1.126,0,0,1-.16-1.506,1.084,1.084,0,0,1,1.5-.185,1.067,1.067,0,0,1,.161,1.5,1.044,1.044,0,0,1-1.5.187ZM9.092,68.407a1.1,1.1,0,0,1,.2-1.539,1.058,1.058,0,0,1,1.474.222,1.036,1.036,0,0,1,.25.764,1.05,1.05,0,0,1-.375.715,1.109,1.109,0,0,1-1.55-.162Zm38.706.178a1.023,1.023,0,0,1-.419-.678.968.968,0,1,1,1.88-.453,1.045,1.045,0,0,1-.683,1.305,1.018,1.018,0,0,1-.181.016A1.032,1.032,0,0,1,47.8,68.585Zm-13.232-.208a1.071,1.071,0,0,1,.6-2.045,1.057,1.057,0,0,1,.632,1.279,1.014,1.014,0,0,1-.452.648,1,1,0,0,1-.78.118Zm29.318-.361a1,1,0,0,1,.09-1.453,1.037,1.037,0,0,1,1.45.09,1.029,1.029,0,1,1-1.54,1.363Zm6.58.252-1.439-1.324a.083.083,0,0,1,0-.13l.356-.361a.093.093,0,0,1,.13,0l1.464,1.3a.1.1,0,0,1,0,.13l-.381.387a.093.093,0,0,1-.13,0ZM24.494,67.65A1.07,1.07,0,1,1,25.723,65.9a1.116,1.116,0,0,1,.3,1.488,1.055,1.055,0,0,1-1.529.261ZM51.8,67.581a.974.974,0,0,1-.763-.668.976.976,0,1,1,1.807-.712A.974.974,0,0,1,51.8,67.581Zm8.355-.407a1.068,1.068,0,0,1-.712-.412,1.118,1.118,0,0,1,.241-1.5,1.133,1.133,0,0,1,1.5.19,1.052,1.052,0,0,1-.241,1.506,1.068,1.068,0,0,1-.792.22Zm-29.147-.125-.421-.187a.083.083,0,0,1-.035-.114l.842-1.77a.079.079,0,0,1,.042-.046.088.088,0,0,1,.064,0l.386.171a.072.072,0,0,1,.04.048.078.078,0,0,1-.005.063l-.8,1.79a.089.089,0,0,1-.047.048.084.084,0,0,1-.031.006A.092.092,0,0,1,31.009,67.049Zm-17.958-.218a1.119,1.119,0,0,1-.743-.433,1.058,1.058,0,0,1,.093-1.561,1.177,1.177,0,0,1,1.566.215,1.061,1.061,0,0,1-.916,1.779Zm4-.685a1.005,1.005,0,0,1,.055-1.479,1.109,1.109,0,0,1,1.506,0,1.06,1.06,0,0,1-.056,1.479,1.047,1.047,0,0,1-1.5,0Zm38.618-.266-1-1.684a.088.088,0,0,1-.016-.079.086.086,0,0,1,.057-.056l.356-.225a.074.074,0,0,1,.064-.009.077.077,0,0,1,.047.042l1,1.68a.1.1,0,0,1,0,.122l-.391.245a.079.079,0,0,1-.04.011A.083.083,0,0,1,55.674,65.88Zm-13.137-.435a1.023,1.023,0,0,1-.313-.763,1.081,1.081,0,0,1,1-1.083,1.069,1.069,0,0,1,.085,2.136h-.052A1.031,1.031,0,0,1,42.537,65.445Zm-3.234.114-.5-.055a.093.093,0,0,1-.06-.033.085.085,0,0,1-.016-.067l.3-1.936a.075.075,0,0,1,.1-.076l.451.049a.087.087,0,0,1,.056.035.078.078,0,0,1,.014.065L39.4,65.483a.08.08,0,0,1-.033.06.089.089,0,0,1-.053.017Zm37.014-.231a1.087,1.087,0,1,1,.544.147A1.087,1.087,0,0,1,76.316,65.328ZM46.36,64.351a1.067,1.067,0,0,1,.787-1.289,1.037,1.037,0,0,1,1.238.757,1.048,1.048,0,1,1-2.026.532Zm-19.089.666a1.032,1.032,0,0,1-.2-1.453,1,1,0,0,1,1.375-.331,1.041,1.041,0,0,1,.235,1.4,1,1,0,0,1-.62.5,1.02,1.02,0,0,1-.264.035A1,1,0,0,1,27.272,65.017Zm-20.547.106a4.146,4.146,0,0,1-.26-.435.092.092,0,0,1,0-.127l1.661-1.037a.087.087,0,0,1,.074-.039.084.084,0,0,1,.07.044,4.241,4.241,0,0,0,.252.41.082.082,0,0,1,.014.067.078.078,0,0,1-.041.055l-1.64,1.062a.094.094,0,0,1-.13,0Zm14.3-.321a1.035,1.035,0,0,1-.074-1.534,1.141,1.141,0,0,1,1.539,0,1.1,1.1,0,0,1,.085,1.5,1.079,1.079,0,0,1-.768.347h-.02A1.081,1.081,0,0,1,21.023,64.8Zm52.373-.12-1.588-1.145a.1.1,0,0,1-.005-.13l.28-.426a.093.093,0,0,1,.127-.03l1.61,1.113a.1.1,0,0,1,0,.136l-.3.453a.086.086,0,0,1-.056.042.08.08,0,0,1-.022,0A.088.088,0,0,1,73.4,64.682Zm-9.322-.532-1.379-1.384a.085.085,0,0,1-.028-.064.084.084,0,0,1,.028-.062l.326-.361a.091.091,0,0,1,.125,0l1.414,1.354a.094.094,0,0,1,0,.13l-.356.386a.093.093,0,0,1-.065.028A.092.092,0,0,1,64.074,64.15ZM51.38,63.8,50.658,62a.08.08,0,0,1,0-.111,2.532,2.532,0,0,0,.412-.185.084.084,0,0,1,.065,0,.079.079,0,0,1,.044.048L52,63.534a.087.087,0,0,1,0,.069.1.1,0,0,1-.048.051,2.91,2.91,0,0,1-.456.2.1.1,0,0,1-.029,0A.1.1,0,0,1,51.38,63.8Zm-18.651-.06a1,1,0,0,1-.5-1.4,1.038,1.038,0,1,1,1.88.847,1,1,0,0,1-.94.653A1,1,0,0,1,32.728,63.743Zm25.779-.055a1.007,1.007,0,0,1-.662-.426,1.033,1.033,0,0,1,.093-1.425,1.075,1.075,0,0,1,1.43.236.974.974,0,0,1-.1,1.43,1.018,1.018,0,0,1-.6.2A.994.994,0,0,1,58.508,63.689Zm10.987-.081L67.956,62.4a.084.084,0,0,1,0-.114l.29-.352a.09.09,0,0,1,.125,0l1.566,1.178a.084.084,0,0,1,.026.062.08.08,0,0,1-.026.06l-.312.375a.1.1,0,0,1-.13,0Zm-55.071-.516a3.5,3.5,0,0,1-.291-.391.091.091,0,0,1,0-.125l1.585-1.148a.082.082,0,0,1,.078-.062.081.081,0,0,1,.077.062,2.75,2.75,0,0,0,.271.366.083.083,0,0,1,0,.12l-1.6,1.178a.094.094,0,0,1-.063.024A.093.093,0,0,1,14.423,63.092Zm-4.967-.645a1.148,1.148,0,0,1,.378-1.582,1.067,1.067,0,0,1,1.464.446,1.094,1.094,0,0,1-.26,1.515,1.148,1.148,0,0,1-1.582-.379Zm14.807.243-.347-.3a.089.089,0,0,1,0-.122l1.324-1.439A.074.074,0,0,1,25.3,60.8a.075.075,0,0,1,.056.021l.32.276a.077.077,0,0,1,.027.06.08.08,0,0,1-.027.06L24.383,62.69a.084.084,0,0,1-.12,0Zm30.456-.881a1.067,1.067,0,0,1-.681-.488,1.038,1.038,0,0,1,1.71-1.169l.021,0a1.054,1.054,0,0,1-.226,1.5,1.074,1.074,0,0,1-.6.182A1.055,1.055,0,0,1,54.719,61.809Zm-25.577-.032-.4-.291a.09.09,0,0,1,0-.125l1.127-1.6a.093.093,0,0,1,.117-.025l.366.266a.084.084,0,0,1,0,.12l-1.08,1.631a.089.089,0,0,1-.056.039h-.016A.094.094,0,0,1,29.142,61.778Zm50.625-.391-1.746-.893a.08.08,0,0,1-.044-.049.079.079,0,0,1,0-.065l.221-.431a.092.092,0,0,1,.121-.041l1.759.863a.089.089,0,0,1,.035.12l-.23.451a.1.1,0,0,1-.085.052A.094.094,0,0,1,79.767,61.387ZM4.6,61.344a.1.1,0,0,1-.051-.048l-.21-.467a.1.1,0,0,1,.039-.12l1.761-.863a.09.09,0,0,1,.067,0,.087.087,0,0,1,.049.048l.2.437a.1.1,0,0,1,0,.07.094.094,0,0,1-.048.049l-1.74.893a.1.1,0,0,1-.04.009A.088.088,0,0,1,4.6,61.344Zm70.016-.354a1.157,1.157,0,0,1-.4-1.5,1.127,1.127,0,0,1,1.479-.5,1.1,1.1,0,0,1,.513.669,1.091,1.091,0,0,1-.113.835,1.079,1.079,0,0,1-1.48.5Zm-33.237,0a.828.828,0,0,1-.786-.87.872.872,0,0,1,.868-.812.884.884,0,0,1,.787.9.829.829,0,0,1-.825.785Zm20.573-.048L60.533,59.6a.089.089,0,0,1-.005-.114l.28-.321a.087.087,0,0,1,.117,0l1.449,1.319a.083.083,0,0,1,0,.12l-.306.345a.08.08,0,0,1-.058.025A.083.083,0,0,1,61.951,60.945Zm5.071-.266-1.569-1.168a.091.091,0,0,1-.005-.12L65.74,59a.09.09,0,0,1,.125,0l1.6,1.134a.1.1,0,0,1,0,.13l-.315.416a.085.085,0,0,1-.127,0Zm-28.887-.109-.386-.1a.077.077,0,0,1-.051-.092l.377-1.5a.066.066,0,0,1,.08-.041l.352.092a.073.073,0,0,1,.049.084l-.336,1.5a.069.069,0,0,1-.03.046.075.075,0,0,1-.034.008A.067.067,0,0,1,38.135,60.569Zm8.2-.051-.342-1.5a.079.079,0,0,1,.049-.1l.352-.09a.057.057,0,0,1,.051.009.065.065,0,0,1,.029.046l.382,1.5a.079.079,0,0,1-.005.056.077.077,0,0,1-.046.035l-.386.1-.016,0A.07.07,0,0,1,46.336,60.518Zm24.348-.255a1.084,1.084,0,0,1-.377-1.425,1.032,1.032,0,0,1,1.414-.365,1.06,1.06,0,0,1,.423,1.453,1,1,0,0,1-1.46.336ZM17.227,60a1.106,1.106,0,0,1-.713-.467,1.111,1.111,0,1,1,.918.486A1.1,1.1,0,0,1,17.227,60Zm4.779,0a1,1,0,0,1-.717-.336,1.073,1.073,0,0,1,1.645-1.365,1.059,1.059,0,0,1-.19,1.414,1,1,0,0,1-.7.288Zm-9.391-.185a1.009,1.009,0,0,1-.634-.509,1.07,1.07,0,0,1,1.865-1.048,1.113,1.113,0,0,1-.43,1.43,1.006,1.006,0,0,1-.8.127Zm36.576-.351a.82.82,0,0,1-.454-.479.864.864,0,0,1,.423-1.094.856.856,0,0,1,.692,1.566.815.815,0,0,1-.338.073A.829.829,0,0,1,49.19,59.458Zm-14.541-.007a.855.855,0,0,1,.687-1.566.868.868,0,0,1,.426,1.094.814.814,0,0,1-.452.479.822.822,0,0,1-.661-.007Zm-9.032-.587a1.065,1.065,0,1,1,1.5-.046,1,1,0,0,1-.743.363h-.031A1,1,0,0,1,25.618,58.865ZM57.439,58.8a1.07,1.07,0,0,1-.065-1.441,1.082,1.082,0,0,1,1.459,0,1.033,1.033,0,0,1,.046,1.506,1.067,1.067,0,0,1-1.439-.065ZM7.455,58.678a.1.1,0,0,1-.049-.055l-.215-.5A.1.1,0,0,1,7.237,58l1.795-.823a.09.09,0,0,1,.074,0,.08.08,0,0,1,.045.056l.2.472a.1.1,0,0,1-.04.125l-1.784.847a.087.087,0,0,1-.036.008A.088.088,0,0,1,7.455,58.678ZM63.3,57.811a1.041,1.041,0,0,1-.322-1.395,1.083,1.083,0,0,1,1.43-.2.967.967,0,0,1,.477.625.977.977,0,0,1-.146.773,1,1,0,0,1-1.439.192Zm-31.263.107a.852.852,0,1,1,.544-1.562.87.87,0,0,1-.506,1.563Zm20.6-.063-.868-1.3a.063.063,0,0,1,0-.1l.29-.211a.069.069,0,0,1,.048-.021.071.071,0,0,1,.049.021l.9,1.279a.07.07,0,0,1,.021.051.064.064,0,0,1-.021.049l-.321.231a.075.075,0,0,1-.05.02A.072.072,0,0,1,52.639,57.855Zm27.749-.16a1.084,1.084,0,0,1-.608-1.384,1.13,1.13,0,0,1,1.4-.641,1.037,1.037,0,0,1,.605,1.39,1.066,1.066,0,0,1-1.393.636Zm-12.121-.636a1.129,1.129,0,0,1-.417-1.465,1.079,1.079,0,0,1,1.43-.516,1.1,1.1,0,0,1,.465,1.5,1.052,1.052,0,0,1-.634.562,1.076,1.076,0,0,1-.326.051A1.058,1.058,0,0,1,68.267,57.059Zm-48.611-.211A1,1,0,0,1,19,56.411a.971.971,0,0,1,.407-1.379,1.069,1.069,0,0,1,1.414.271,1.114,1.114,0,0,1-.982,1.561A.978.978,0,0,1,19.656,56.848Zm57.1-.146a1.075,1.075,0,0,1-.616-1.388,1.172,1.172,0,0,1,1.434-.687,1.061,1.061,0,0,1,.573,1.458,1.072,1.072,0,0,1-1.39.616ZM42.73,56.529a.079.079,0,0,1-.027-.053l-.049-1.564a.062.062,0,0,1,.016-.049.064.064,0,0,1,.049-.021h.35a.067.067,0,0,1,.049.018.07.07,0,0,1,.021.048l.109,1.561a.074.074,0,0,1-.065.079h-.408A.073.073,0,0,1,42.73,56.529Zm31.132-.148-1.784-.8a.09.09,0,0,1-.051-.111l.181-.421A.083.083,0,0,1,72.257,55a.081.081,0,0,1,.067,0l1.8.768a.089.089,0,0,1,.052.114l-.2.453a.081.081,0,0,1-.048.046.092.092,0,0,1-.033.006A.079.079,0,0,1,73.862,56.381ZM45.73,55.876a.812.812,0,0,1-.388-.537.882.882,0,0,1,.551-1.034.866.866,0,0,1,1.037.562.839.839,0,0,1-1.2,1.009Zm-22.548-.1A1.039,1.039,0,1,1,24.6,54.32a1.054,1.054,0,0,1-.262,1.434,1.038,1.038,0,0,1-1.155.027Zm-8.764.039a.085.085,0,0,1-.049-.049l-.225-.472a.078.078,0,0,1-.007-.069.082.082,0,0,1,.045-.051l1.775-.822a.1.1,0,0,1,.122.041l.21.44a.089.089,0,0,1-.041.12l-1.759.858a.081.081,0,0,1-.041.011A.084.084,0,0,1,14.418,55.819Zm22.825-.477A.828.828,0,0,1,38.271,54.2a.841.841,0,0,1,.5,1.044.832.832,0,0,1-.735.56l-.052,0A.826.826,0,0,1,37.242,55.342Zm24.108.407-1.6-1.127a.086.086,0,0,1,0-.116l.266-.366a.083.083,0,0,1,.119,0l1.63,1.083a.08.08,0,0,1,0,.122l-.291.4a.087.087,0,0,1-.062.027A.089.089,0,0,1,61.35,55.749Zm-51.057.018a.083.083,0,0,1-.048-.048l-.182-.456a.087.087,0,0,1,0-.067.09.09,0,0,1,.048-.048l1.821-.727a.086.086,0,0,1,.111.044l.174.426a.09.09,0,0,1-.049.111l-1.805.763a.086.086,0,0,1-.036.008A.089.089,0,0,1,10.293,55.766Zm45.019-.086-1.094-1.124a.071.071,0,0,1,0-.1,2.956,2.956,0,0,0,.256-.257.07.07,0,0,1,.1,0L55.693,55.3a.078.078,0,0,1,.021.051.074.074,0,0,1-.021.049,2.631,2.631,0,0,1-.28.282.075.075,0,0,1-.051.019A.071.071,0,0,1,55.312,55.68Zm-26.23-.011a2.521,2.521,0,0,1-.28-.282.063.063,0,0,1-.021-.049.07.07,0,0,1,.021-.051L29.926,54.2a.071.071,0,0,1,.051-.018.086.086,0,0,1,.049.026,1.926,1.926,0,0,0,.255.257.065.065,0,0,1,.019.048.068.068,0,0,1-.019.048L29.188,55.67a.076.076,0,0,1-.053.021A.077.077,0,0,1,29.082,55.67ZM2.473,55.427a1.082,1.082,0,0,1-.537-.639,1,1,0,0,1,.682-1.349,1.137,1.137,0,0,1,1.354.727A1.067,1.067,0,0,1,3.3,55.5a1.084,1.084,0,0,1-.831-.072ZM48.451,54.2a.864.864,0,0,1,.281-1.145.876.876,0,0,1,1.132.282.828.828,0,0,1-1.414.863Zm-13.766.185-.342-.22a.069.069,0,0,1-.021-.047.07.07,0,0,1,.021-.049l.868-1.3a.071.071,0,0,1,.1-.005l.3.19a.074.074,0,0,1,0,.1l-.818,1.338a.084.084,0,0,1-.051.017A.079.079,0,0,1,34.685,54.386Zm31.872.005-1.751-.874a.09.09,0,0,1-.051-.109l.171-.388a.088.088,0,0,1,.117-.035l1.77.833a.091.091,0,0,1,.044.116l-.185.421a.082.082,0,0,1-.05.044l-.023,0A.078.078,0,0,1,66.557,54.391ZM5.763,54.35a.084.084,0,0,1-.04-.055l-.165-.5a.093.093,0,0,1,.054-.12l1.87-.583a.1.1,0,0,1,.111.035l.155.5a.084.084,0,0,1,0,.069.086.086,0,0,1-.051.046l-1.862.618-.021,0A.1.1,0,0,1,5.763,54.35Zm50.813-1.3a.829.829,0,1,1,.468.146A.826.826,0,0,1,56.576,53.051Zm13.581,0a1.1,1.1,0,0,1-.627-1.39,1.145,1.145,0,0,1,1.37-.692,1.03,1.03,0,0,1,.647,1.39,1.076,1.076,0,0,1-1.39.692ZM82.94,53.1l-1.89-.5a.079.079,0,0,1-.06-.042.078.078,0,0,1,0-.072l.125-.467a.093.093,0,0,1,.109-.065l1.9.47a.084.084,0,0,1,.06.111l-.136.5a.089.089,0,0,1-.04.058.086.086,0,0,1-.043.011A.093.093,0,0,1,82.94,53.1Zm-56.079-.055-.277-.336a.076.076,0,0,1,.025-.1l1.3-.868a.059.059,0,0,1,.06-.028.053.053,0,0,1,.049.044l.217.291a.07.07,0,0,1,0,.1l-1.279.9a.079.079,0,0,1-.051.021A.075.075,0,0,1,26.861,53.047Zm47.375-.275a1.068,1.068,0,0,1-.735-1.28,1.109,1.109,0,0,1,1.33-.687,1,1,0,0,1,.717,1.293,1.063,1.063,0,0,1-1.312.674ZM52.142,52.5l-1.083-1.124a.075.075,0,0,1-.025-.049.082.082,0,0,1,.019-.051l.242-.255a.078.078,0,0,1,.1,0l1.127,1.089a.066.066,0,0,1,.024.051.062.062,0,0,1-.024.049l-.28.291a.065.065,0,0,1-.051.025A.061.061,0,0,1,52.142,52.5Zm10.2-.25A1.089,1.089,0,0,1,61.8,50.87a1.111,1.111,0,0,1,1.4-.518,1.039,1.039,0,0,1-.849,1.9Zm-30.531-.2a.853.853,0,1,1,1.214,0,.837.837,0,0,1-1.214,0Zm10.226.009a.076.076,0,0,1-.075-.074l.046-1.566a.06.06,0,0,1,.065-.065,1.857,1.857,0,0,0,.342,0,.061.061,0,0,1,.065.065l.044,1.566a.073.073,0,0,1-.069.074c-.069.005-.139.008-.209.008S42.111,52.068,42.041,52.062Zm-28.931-.129a1.093,1.093,0,0,1-.539-.659,1.118,1.118,0,0,1,.749-1.383,1.067,1.067,0,0,1,1.3.761,1.062,1.062,0,0,1-1.508,1.281Zm7.7.014a3.354,3.354,0,0,1-.2-.456.082.082,0,0,1,0-.067.079.079,0,0,1,.046-.049l1.807-.766a.075.075,0,0,1,.065,0,.076.076,0,0,1,.044.046,3.314,3.314,0,0,0,.181.412.081.081,0,0,1,0,.065.077.077,0,0,1-.048.044l-1.775.819A.1.1,0,0,1,20.9,52,.1.1,0,0,1,20.808,51.948Zm58.612-.076-1.895-.5a.086.086,0,0,1-.06-.069,2.927,2.927,0,0,0,.125-.5.084.084,0,0,1,.037-.058.086.086,0,0,1,.069-.012l1.906.456a.1.1,0,0,1,.065.116,3.9,3.9,0,0,1-.135.5.1.1,0,0,1-.092.073Zm-62.458-.393a1.027,1.027,0,0,1-.562-.565,1.042,1.042,0,0,1,.742-1.263.968.968,0,1,1,.618,1.835v-.011a1.043,1.043,0,0,1-.4.082A1.027,1.027,0,0,1,16.961,51.479Zm21.951.023-.391-.146a.077.077,0,0,1-.042-.035.073.073,0,0,1,0-.055l.611-1.444a.07.07,0,0,1,.066-.07l.32.12a.054.054,0,0,1,.037.035.059.059,0,0,1,0,.051l-.5,1.5a.074.074,0,0,1-.069.045A.073.073,0,0,1,38.912,51.5Zm6.439-.032a.837.837,0,0,1-.646-.6.828.828,0,0,1,1.545-.6.833.833,0,0,1-.9,1.2Zm21.562-.481A1.04,1.04,0,0,1,66.2,49.76a1.074,1.074,0,0,1,1.314-.611.971.971,0,0,1,.717,1.238,1,1,0,0,1-.532.587,1.01,1.01,0,0,1-.415.089A.989.989,0,0,1,66.913,50.99ZM.9,50.719l-.117-.5a.1.1,0,0,1,.065-.111l1.925-.366a.1.1,0,0,1,.091.076l.109.47a.089.089,0,0,1-.065.106l-1.9.4-.019,0A.092.092,0,0,1,.9,50.719Zm24.621-.438a.841.841,0,0,1-.484-.444.824.824,0,0,1,.467-1.113.86.86,0,0,1,1.083.426.851.851,0,0,1-1.065,1.131Zm32.848-.069a.808.808,0,1,1,.627-1.488.822.822,0,0,1,.471,1.113.86.86,0,0,1-.754.448A.85.85,0,0,1,58.367,50.211ZM8.7,49.97a1,1,0,0,1-.441-.669,1.068,1.068,0,1,1,2.091-.437A1.108,1.108,0,0,1,9.488,50.1,1,1,0,0,1,8.7,49.97Zm44.671-.134a.828.828,0,0,1,.847-1.423.832.832,0,0,1,.029,1.492.837.837,0,0,1-.876-.069Zm-5.717-.44a.828.828,0,0,1,1.222-1.115h.011A.831.831,0,0,1,47.649,49.4Zm-11.98.056a.817.817,0,1,1,1.168-.056h0a.83.83,0,0,1-1.172.056Zm-5.618.074a.853.853,0,1,1,.842-.011h.01a.831.831,0,0,1-.852.011Zm52.7-.2a1.07,1.07,0,0,1-.868-1.229,1.127,1.127,0,0,1,1.243-.912A1,1,0,0,1,84,48.413a1.09,1.09,0,0,1-1.249.918Zm-7.482-.556a1.038,1.038,0,1,1,.251.031A1.035,1.035,0,0,1,75.274,48.774Zm-55.7-.8a1.038,1.038,0,1,1,.839.427A1.042,1.042,0,0,1,19.571,47.976Zm53.013.255-1.919-.38a.1.1,0,0,1-.076-.07l.076-.5a.086.086,0,0,1,.1-.07l1.925.336a.1.1,0,0,1,.076.111l-.081.5a.088.088,0,0,1-.09.076ZM4.456,47.781a1.062,1.062,0,0,1-.373-.757,1.114,1.114,0,0,1,.937-1.289,1.112,1.112,0,0,1,1.179,1,1.167,1.167,0,0,1-.932,1.289,1.067,1.067,0,0,1-.81-.245Zm74.793.139a1.172,1.172,0,0,1-.926-1.279,1.107,1.107,0,0,1,1.173-1,1.122,1.122,0,0,1,.948,1.279,1.054,1.054,0,0,1-1.056,1.011A1.054,1.054,0,0,1,79.248,47.92ZM11.629,46.8a1.108,1.108,0,0,1,.858-1.251,1.133,1.133,0,0,1,1.224.937,1.114,1.114,0,0,1-.888,1.249c-.034,0-.067,0-.1,0A1.108,1.108,0,0,1,11.629,46.8Zm3.822.433-.086-.451a.092.092,0,0,1,.075-.1l1.931-.321a.086.086,0,0,1,.072,0,.08.08,0,0,1,.044.056l.076.421a.083.083,0,0,1-.018.06.079.079,0,0,1-.053.032l-1.941.365-.019,0A.086.086,0,0,1,15.451,47.233Zm18.342-.243a.827.827,0,1,1,.44.127A.826.826,0,0,1,33.794,46.99ZM.18,46.035a1.069,1.069,0,0,1,1-1.178,1.085,1.085,0,0,1,1.127,1,1.045,1.045,0,0,1-.927,1.178c-.034,0-.069,0-.1,0A1.108,1.108,0,0,1,.18,46.035Zm54.691.863a.89.89,0,0,1-.557-1.034.877.877,0,0,1,1.059-.551.831.831,0,0,1-.5,1.585Zm-4.007-.062L49.485,46.1a.07.07,0,0,1-.036-.09l.145-.312a.074.074,0,0,1,.1-.025l1.418.657a.074.074,0,0,1,.03.1l-.179.37a.066.066,0,0,1-.039.041.073.073,0,0,1-.024,0A.06.06,0,0,1,50.864,46.837Zm-26.8,0a.066.066,0,0,1-.03-.044l-.1-.386a.072.072,0,0,1,.049-.086l1.5-.342a.088.088,0,0,1,.06.005.085.085,0,0,1,.037.046l.09.35a.066.066,0,0,1-.008.051.06.06,0,0,1-.041.03l-1.506.38a.058.058,0,0,1-.021,0A.063.063,0,0,1,24.063,46.837ZM60.4,46.788l-1.5-.38a.065.065,0,0,1-.04-.081l.09-.35a.071.071,0,0,1,.086-.046l1.5.331a.067.067,0,0,1,.049.085l-.095.388a.077.077,0,0,1-.074.056ZM28.5,46.19a.076.076,0,0,1-.033-.046,2.37,2.37,0,0,1-.106-.386.074.074,0,0,1,.051-.09l1.5-.377a.06.06,0,0,1,.062,0,.063.063,0,0,1,.039.049,1.926,1.926,0,0,0,.09.342.065.065,0,0,1-.046.079l-1.5.437a.073.073,0,0,1-.021,0A.081.081,0,0,1,28.5,46.19Zm36.913-.442-1.936-.3a.089.089,0,0,1-.06-.035.1.1,0,0,1-.016-.069l.051-.447a.083.083,0,0,1,.035-.056.094.094,0,0,1,.065-.014l1.941.236a.088.088,0,0,1,.059.033.084.084,0,0,1,.02.067l-.059.5a.09.09,0,0,1-.034.062.091.091,0,0,1-.054.019ZM7.668,45.313l-.046-.5a.1.1,0,0,1,.085-.1l1.951-.141a.092.092,0,0,1,.067.021.088.088,0,0,1,.028.065l.041.456a.1.1,0,0,1-.086.1l-1.944.18H7.757A.087.087,0,0,1,7.668,45.313Zm60.567-.025a1,1,0,0,1-.947-1.05,1.053,1.053,0,0,1,1.123-.877,1.006,1.006,0,0,1,1,1.053,1.033,1.033,0,0,1-1.18.874Zm7.614-.608a1.117,1.117,0,0,1-1-1.083,1.047,1.047,0,0,1,1.057-1,1.056,1.056,0,0,1,1.048,1.085,1,1,0,0,1-.328.747,1.01,1.01,0,0,1-.675.26C75.916,44.686,75.883,44.684,75.849,44.681ZM72.1,44.445a1.1,1.1,0,0,1-1-1.143,1.148,1.148,0,0,1,1.124-1.069,1.039,1.039,0,0,1,1,1.145,1.074,1.074,0,0,1-1.072,1.069Zm-52.991-.4a1.056,1.056,0,0,1-.361-.749A1.035,1.035,0,0,1,19.8,42.208a1.085,1.085,0,0,1,1.085,1A1.055,1.055,0,0,1,19.9,44.3c-.032,0-.064,0-.1,0A1.056,1.056,0,0,1,19.112,44.045Zm-3.759-.326a1,1,0,0,1-.363-.713,1.041,1.041,0,0,1,1.083-1,.975.975,0,1,1-.72,1.717Zm44.783.174a.877.877,0,0,1-.812-.868.887.887,0,0,1,.9-.793.833.833,0,1,1-.085,1.661Zm-9.064-.011a.836.836,0,1,1,.158.015A.85.85,0,0,1,51.073,43.883Zm-23.06-.971a.833.833,0,0,1,.768-1.286.888.888,0,0,1,.858.817.9.9,0,0,1-.823.838.832.832,0,0,1-.8-.37Zm28.457.243-1.559-.1a.066.066,0,0,1-.048-.019.063.063,0,0,1-.018-.049,2.915,2.915,0,0,0,0-.357.057.057,0,0,1,.023-.044.065.065,0,0,1,.048-.016l1.565.04a.076.076,0,0,1,.07.076,3.885,3.885,0,0,1,0,.4.081.081,0,0,1-.078.07ZM3.877,42.62a.1.1,0,0,1-.09-.1v-.507a.094.094,0,0,1,.09-.1H5.832a.092.092,0,0,1,.091.111v.5a.092.092,0,0,1-.086.092Zm74.7-.072a.088.088,0,0,1,0-.1v-.5a.087.087,0,0,1,.025-.067.09.09,0,0,1,.065-.028h1.957a.092.092,0,0,1,.065.032.091.091,0,0,1,.025.069v.542a.086.086,0,0,1-.021.067.088.088,0,0,1-.063.028H78.673l-.021,0A.088.088,0,0,1,78.576,42.548Zm-67.242.037a.088.088,0,0,1-.065-.028.085.085,0,0,1-.025-.067,2.968,2.968,0,0,1,0-.5.094.094,0,0,1,.09-.1H13.29a.086.086,0,0,1,.085.1,2.689,2.689,0,0,0,0,.5.086.086,0,0,1-.023.065.09.09,0,0,1-.062.027ZM64.7,42.254a1.083,1.083,0,0,1-1.083-1,1.069,1.069,0,0,1,2.136-.079,1.028,1.028,0,0,1-1.028,1.083ZM33.26,42.233a.827.827,0,1,1,.084,0Q33.3,42.237,33.26,42.233Zm-8.983,0a.828.828,0,1,1,.081-1.654.865.865,0,0,1,.812.867.876.876,0,0,1-.872.788Zm58.052-.291v-.5a.083.083,0,0,1,.023-.063.09.09,0,0,1,.062-.027l1.957-.039a.089.089,0,0,1,.09.09v.5a.082.082,0,0,1-.021.067.083.083,0,0,1-.064.03H82.414A.09.09,0,0,1,82.329,41.942ZM2.06,41.983H.1a.1.1,0,0,1-.081-.037.094.094,0,0,1-.014-.088v-.5a.1.1,0,0,1,.1-.09l1.96.049a.083.083,0,0,1,.06.023.072.072,0,0,1,.025.058,3.833,3.833,0,0,0,0,.5.081.081,0,0,1-.023.062.08.08,0,0,1-.056.023ZM8.6,41.872a1.059,1.059,0,0,1-1.067-1.083,1,1,0,0,1,1.1-1,1.114,1.114,0,0,1,1.034,1.078,1.047,1.047,0,0,1-1.046,1.008Zm58.714-1.249a1.036,1.036,0,0,1,.988-1.057,1,1,0,0,1,.762.2,1.011,1.011,0,0,1,.381.69.973.973,0,0,1-1,1.039l-.061,0A1.087,1.087,0,0,1,67.309,40.623Zm-12.724-.9a.872.872,0,0,1,.682-.983.828.828,0,0,1,.32,1.624.9.9,0,0,1-.148.012A.885.885,0,0,1,54.585,39.721Zm-25.613.25a.827.827,0,1,1,1-.616.835.835,0,0,1-1,.616Zm45.784-.1a.085.085,0,0,1-.027-.069l-.041-.456a.088.088,0,0,1,.022-.062.085.085,0,0,1,.059-.028l1.95-.181a.092.092,0,0,1,.065.019.09.09,0,0,1,.032.062l.039.5a.083.083,0,0,1-.02.065.085.085,0,0,1-.06.03l-1.952.141h-.007A.09.09,0,0,1,74.757,39.874ZM20.943,39.64,19,39.4a.093.093,0,0,1-.076-.1l.06-.5a.08.08,0,0,1,.031-.06.086.086,0,0,1,.065-.016l1.936.291a.09.09,0,0,1,.061.035.084.084,0,0,1,.018.07l-.054.451a.077.077,0,0,1-.032.056.079.079,0,0,1-.047.016ZM17.2,39.52l-1.946-.215a.09.09,0,0,1-.06-.03.089.089,0,0,1-.021-.062l.056-.461a.086.086,0,0,1,.1-.07l1.941.261a.086.086,0,0,1,.079.086l-.049.421a.083.083,0,0,1-.034.056.085.085,0,0,1-.048.015Zm32.272-.958a.842.842,0,0,1,.377-1.129v.026a.833.833,0,1,1,.752,1.479.841.841,0,0,1-1.129-.377ZM5.02,38.834a1.118,1.118,0,0,1-.948-1.273,1.06,1.06,0,0,1,1.194-1,1.173,1.173,0,0,1,.907,1.259,1.1,1.1,0,0,1-1.1,1.019Zm29.79-.065-1.419-.652a.078.078,0,0,1-.036-.1l.181-.377a.069.069,0,0,1,.041-.039.074.074,0,0,1,.055,0l1.384.738a.067.067,0,0,1,.046.046.069.069,0,0,1-.011.063l-.151.312a.065.065,0,0,1-.045.019A.066.066,0,0,1,34.809,38.768Zm44.129-.155a1.069,1.069,0,0,1-.632-.9,1.168,1.168,0,0,1,.939-1.268,1.055,1.055,0,0,1,.805.247,1.119,1.119,0,0,1-1.112,1.925Zm-53.472-.07-1.529-.336a.073.073,0,0,1-.051-.086l.1-.386a.065.065,0,0,1,.032-.044.058.058,0,0,1,.054-.005l1.5.375a.072.072,0,0,1,.053.025.071.071,0,0,1,.012.056l-.09.35a.073.073,0,0,1-.07.053Zm33.5-.058a.076.076,0,0,1-.039-.048l-.091-.347a.071.071,0,0,1,.056-.079l1.5-.386a.073.073,0,0,1,.09.049l.095.386a.063.063,0,0,1-.005.055.068.068,0,0,1-.044.032l-1.5.34a.076.076,0,0,1-.029.006A.074.074,0,0,1,58.967,38.485Zm-57.68-.118a1.088,1.088,0,1,1,.262-2.156,1.032,1.032,0,0,1,.877,1.2,1.038,1.038,0,0,1-1.035.963C1.357,38.372,1.322,38.37,1.288,38.367Zm12.289-.046-1.941-.266a.091.091,0,0,1-.06-.035.1.1,0,0,1-.016-.069l.081-.5a.082.082,0,0,1,.032-.063.086.086,0,0,1,.069-.018l1.935.306a.1.1,0,0,1,.071.065l-.071.5a.1.1,0,0,1-.093.08ZM63.1,37.343a1.081,1.081,0,1,1,1.233.773,1.046,1.046,0,0,1-1.233-.773Zm18.981.451-.065-.5a.094.094,0,0,1,.081-.1l1.941-.241a.087.087,0,0,1,.067.019.091.091,0,0,1,.033.062l.065.5a.09.09,0,0,1-.016.067.081.081,0,0,1-.06.034l-1.946.211-.019,0A.09.09,0,0,1,82.082,37.794Zm-11.459-.942a1.121,1.121,0,0,1,.807-1.279,1.062,1.062,0,0,1,1.294.888,1.1,1.1,0,0,1-.882,1.289,1.088,1.088,0,0,1-.158.012A1.074,1.074,0,0,1,70.624,36.852ZM8.885,37.74a1.037,1.037,0,1,1,.13.008A1.019,1.019,0,0,1,8.885,37.74Zm58-.578a.076.076,0,0,1-.038-.049l-.076-.416a.092.092,0,0,1,.071-.1l1.911-.437a.085.085,0,0,1,.1.065l.085.451a.088.088,0,0,1-.074.1l-1.917.391a.077.077,0,0,1-.062-.005Zm-36.037-.506-1.4-.687a.064.064,0,0,1-.035-.042.061.061,0,0,1,0-.053l.181-.361a.074.074,0,0,1,.1-.03l1.379.742a.061.061,0,0,1,.03.116l-.16.315a.076.076,0,0,1-.048.017A.072.072,0,0,1,30.843,36.657Zm16.875-.433a.825.825,0,1,1,.557.216A.828.828,0,0,1,47.718,36.223Zm-12.106-.039a.827.827,0,0,1,.428-1.383.831.831,0,0,1,.8.269.889.889,0,0,1-.067,1.159.872.872,0,0,1-1.158-.046ZM74.153,35.6a1.108,1.108,0,0,1,.854-1.233,1,1,0,0,1,1.238.8,1.068,1.068,0,0,1-.836,1.228,1.082,1.082,0,0,1-.217.022A1.07,1.07,0,0,1,74.153,35.6Zm-57.383.652a.978.978,0,1,1,.5-1.865.968.968,0,1,1-.5,1.865ZM57.9,35.323a.861.861,0,0,1,1.08-1.134.843.843,0,0,1,.484.447.818.818,0,0,1,.009.659.829.829,0,0,1-.479.454.87.87,0,0,1-1.094-.426Zm-32.4.426a.828.828,0,0,1-.467-1.113.852.852,0,0,1,1.55.687.864.864,0,0,1-1.083.426Zm27.439-.231-.2-.292a.071.071,0,0,1,0-.1l1.3-.872a.07.07,0,0,1,.051-.021.063.063,0,0,1,.049.021l.231.331a.073.073,0,0,1,0,.1l-1.328.828a.077.077,0,0,1-.051.021A.071.071,0,0,1,52.94,35.519ZM38.246,34.2V34.2a.811.811,0,0,1,.451-1.134.8.8,0,0,1,1.094.537.829.829,0,1,1-1.544.6Zm6.773.4a.075.075,0,0,1-.033-.09l.5-1.474A.069.069,0,0,1,45.525,33a.071.071,0,0,1,.057,0l.387.141a.073.073,0,0,1,.044.037.068.068,0,0,1,0,.058l-.606,1.439a.073.073,0,0,1-.06.04Zm-31.7,0a1.119,1.119,0,0,1-.749-1.383,1.107,1.107,0,0,1,.539-.66,1.058,1.058,0,0,1,1.508,1.282,1.066,1.066,0,0,1-1.3.761Zm68.045-1.1a1.083,1.083,0,0,1,.792-1.289,1.062,1.062,0,0,1,1.29.828,1.04,1.04,0,0,1-.793,1.289,1.118,1.118,0,0,1-1.289-.828ZM21.3,34.1a1.01,1.01,0,0,1-.585-.567,1.033,1.033,0,0,1,1.432-1.314A1.038,1.038,0,1,1,21.3,34.1Zm20.772,0a.07.07,0,0,1-.048-.021.066.066,0,0,1-.017-.049l-.046-1.566a.076.076,0,0,1,.075-.074,2.77,2.77,0,0,1,.418,0,.073.073,0,0,1,.069.074l-.044,1.566a.066.066,0,0,1-.018.049.069.069,0,0,1-.048.021A1.858,1.858,0,0,0,42.077,34.1Zm-40.13-.16a1.086,1.086,0,0,1-.833-1.31,1.113,1.113,0,0,1,1.333-.807A1.049,1.049,0,0,1,3.195,33.1a1.078,1.078,0,0,1-1.248.844Zm63.793-.567a1.041,1.041,0,0,1,.647-1.279,1,1,0,0,1,1.352.5.963.963,0,0,1-.044.784.973.973,0,0,1-.607.5,1.077,1.077,0,0,1-1.347-.5Zm-3.787.475a.089.089,0,0,1-.046-.044,2.412,2.412,0,0,0-.186-.417.086.086,0,0,1,.046-.109l1.78-.814a.1.1,0,0,1,.07,0,.1.1,0,0,1,.052.048,3.217,3.217,0,0,1,.2.451.1.1,0,0,1-.05.122l-1.8.761a.087.087,0,0,1-.039.009A.081.081,0,0,1,61.953,33.853ZM6.8,33.738l-1.9-.461a.091.091,0,0,1-.065-.116,2.884,2.884,0,0,1,.131-.5.1.1,0,0,1,.114-.076l1.9.5a.083.083,0,0,1,.055.079,3.741,3.741,0,0,0-.125.5.089.089,0,0,1-.037.058.087.087,0,0,1-.048.015Zm2.874-.07a1,1,0,0,1-.722-1.294,1.068,1.068,0,0,1,2.045.608,1.111,1.111,0,0,1-1.322.687Zm59.86-.874a1.1,1.1,0,0,1,.627-1.374,1.079,1.079,0,0,1,1.39.678,1.039,1.039,0,0,1-.647,1.393,1.146,1.146,0,0,1-1.37-.7Zm-18.282.5a.831.831,0,1,1,.165.016A.832.832,0,0,1,51.248,33.291ZM32.719,32.72A.834.834,0,1,1,33.952,31.6a.816.816,0,0,1-.615,1.376A.883.883,0,0,1,32.719,32.72Zm-5.739.065a.847.847,0,1,1,.458.135A.839.839,0,0,1,26.98,32.785Zm29.537-.053a.062.062,0,0,1-.048-.023l-.21-.291a.064.064,0,0,1,0-.1l1.279-.9a.077.077,0,0,1,.1,0l.231.326a.082.082,0,0,1,0,.1l-1.305.868a.06.06,0,0,1-.042.018Zm-37.439-.4-1.8-.766a.086.086,0,0,1-.048-.046.085.085,0,0,1,0-.065l.185-.421a.1.1,0,0,1,.06-.056.1.1,0,0,1,.081.016l1.781.808a.083.083,0,0,1,.024.109l-.171.388a.085.085,0,0,1-.074.044A.083.083,0,0,1,19.078,32.333ZM76.9,31.341l-.149-.5a.08.08,0,0,1,0-.07.088.088,0,0,1,.054-.046l1.854-.616a.1.1,0,0,1,.116.065l.166.5a.1.1,0,0,1-.054.12l-1.873.583a.1.1,0,0,1-.035.007A.1.1,0,0,1,76.9,31.341Zm-28.485-.192a.832.832,0,1,1,.4.1A.831.831,0,0,1,48.417,31.149Zm-12.2-.065-.741-1.374a.075.075,0,0,1,.03-.1l.35-.2a.081.081,0,0,1,.1.035l.662,1.406a.063.063,0,0,1,0,.09l-.306.174a.071.071,0,0,1-.029.006A.074.074,0,0,1,36.214,31.084Zm23.712-.937a1.054,1.054,0,0,1,.26-1.434,1.035,1.035,0,1,1-.26,1.434ZM14.7,30.459a1.046,1.046,0,0,1-.5-1.45,1.064,1.064,0,0,1,1.444-.542,1.111,1.111,0,0,1,.5,1.455,1.126,1.126,0,0,1-1.446.537Zm9.655-.127-1.631-1.083a.082.082,0,0,1-.027-.06.085.085,0,0,1,.027-.06l.287-.407a.091.091,0,0,1,.125,0l1.6,1.129a.088.088,0,0,1,.005.114l-.26.366a.087.087,0,0,1-.125,0Zm30.116-.069a2.306,2.306,0,0,0-.256-.252.071.071,0,0,1,0-.1l1.094-1.124a.073.073,0,0,1,.05-.021.077.077,0,0,1,.051.021,2.564,2.564,0,0,1,.261.3.077.077,0,0,1,0,.106L54.55,30.282a.061.061,0,0,1-.025.006A.063.063,0,0,1,54.475,30.263Zm-24.546,0-1.121-1.089a.074.074,0,0,1,0-.106,2.406,2.406,0,0,1,.285-.282.076.076,0,0,1,.106,0l1.089,1.124a.071.071,0,0,1,.021.051.067.067,0,0,1-.027.049,1.638,1.638,0,0,0-.255.252.066.066,0,0,1-.049.023A.067.067,0,0,1,29.929,30.263Zm34.359-.076-.2-.382a.084.084,0,0,1,.041-.109l1.7-.974a.088.088,0,0,1,.117.03l.211.412a.083.083,0,0,1,0,.065.076.076,0,0,1-.044.049l-1.721.933a.081.081,0,0,1-.043.012A.084.084,0,0,1,64.288,30.187Zm-18.614-.095-.342-.1a.073.073,0,0,1-.046-.086l.377-1.5a.071.071,0,0,1,.033-.044.065.065,0,0,1,.057-.005l.388.109a.077.077,0,0,1,.049.09l-.437,1.506a.066.066,0,0,1-.059.039A.062.062,0,0,1,45.673,30.092ZM72.5,30.048A.081.081,0,0,1,72.449,30l-.17-.421a.088.088,0,0,1,.049-.114l1.8-.763a.092.092,0,0,1,.117.049l.185.453a.089.089,0,0,1-.049.114l-1.816.727a.079.079,0,0,1-.035.008A.087.087,0,0,1,72.5,30.048Zm7.728-.743a1.086,1.086,0,1,1,1.029.736A1.09,1.09,0,0,1,80.226,29.305Zm-41.871.039a.8.8,0,0,1,.069-.655.807.807,0,0,1,.533-.388.822.822,0,0,1,1,.652.869.869,0,0,1-.611,1,.9.9,0,0,1-.149.013A.883.883,0,0,1,38.355,29.344Zm-31.43.5a1.056,1.056,0,0,1-.57-1.453A1.11,1.11,0,0,1,7.788,27.7a1.11,1.11,0,0,1,.556,1.45,1.168,1.168,0,0,1-1.419.687Zm35.52-.28a.825.825,0,1,1,.028-1.65.819.819,0,0,1,.818.9.832.832,0,0,1-.828.752Zm-30.275-.1-1.8-.768a.09.09,0,0,1-.048-.048.087.087,0,0,1,0-.067l.21-.447a.1.1,0,0,1,.122-.049l1.784.8a.085.085,0,0,1,.025.116l-.179.421a.077.077,0,0,1-.05.044.09.09,0,0,1-.03,0A.081.081,0,0,1,12.17,29.465Zm-8.044-.016-1.86-.622a.09.09,0,0,1-.051-.114l.187-.472a.093.093,0,0,1,.109-.06l1.846.652a.075.075,0,0,1,.056.04.077.077,0,0,1,0,.071l-.175.451a.1.1,0,0,1-.088.059A.1.1,0,0,1,4.127,29.449Zm15.487-.361a1.043,1.043,0,0,1-.426-1.409A1.073,1.073,0,0,1,21,28.817a1,1,0,0,1-1.384.271Zm48.393.048a.08.08,0,0,1-.051-.048l-.21-.437a.1.1,0,0,1,.039-.125L69.51,27.6a.094.094,0,0,1,.069-.007.085.085,0,0,1,.051.048l.225.472a.092.092,0,0,1-.035.13l-1.746.882a.076.076,0,0,1-.041.011A.093.093,0,0,1,68.006,29.136Zm-16.084-1.02a.874.874,0,1,1,1.143-.206.827.827,0,0,1-1.143.206Zm-19.58.106-.907-1.281a.068.068,0,0,1,0-.1l.321-.236a.074.074,0,0,1,.1,0l.868,1.3a.062.062,0,0,1,.026.051.062.062,0,0,1-.026.049l-.292.211a.057.057,0,0,1-.044.019A.064.064,0,0,1,32.342,28.222Zm-6.681-1.115a1.032,1.032,0,0,1-.044-1.5,1.061,1.061,0,1,1,.044,1.5Zm31.712,0a1.082,1.082,0,0,1,0-1.458,1.039,1.039,0,0,1,1.5-.046,1.068,1.068,0,0,1-1.5,1.5Zm18.019.178a.1.1,0,0,1-.045-.051l-.2-.472a.088.088,0,0,1,0-.07.092.092,0,0,1,.048-.049l1.77-.838a.09.09,0,0,1,.119.051l.212.5a.1.1,0,0,1,.009.074.1.1,0,0,1-.049.056l-1.784.8a.086.086,0,0,1-.031.006A.1.1,0,0,1,75.393,27.285Zm-13.26-.377a1.054,1.054,0,0,1,.255-1.414.973.973,0,1,1,1.189,1.529,1.074,1.074,0,0,1-1.444-.114Zm8.521-.668a1.119,1.119,0,0,1,.426-1.435,1,1,0,0,1,1.434.387,1.068,1.068,0,0,1-1.86,1.048Zm-21.5.34a.86.86,0,0,1-.418-1.092.824.824,0,0,1,1.115-.467.854.854,0,0,1-.349,1.634A.845.845,0,0,1,49.154,26.58Zm-14.912-.421a.843.843,0,0,1,.407-1.138.826.826,0,0,1,1.113.467.861.861,0,0,1-.426,1.092.843.843,0,0,1-1.094-.421ZM21.73,25.934a.974.974,0,1,1,1.284-1.458A1.047,1.047,0,0,1,23.19,25.9a1.079,1.079,0,0,1-1.46.035ZM12.773,26a1.065,1.065,0,0,1-.416-1.455,1.005,1.005,0,0,1,1.46-.34,1.094,1.094,0,0,1,.375,1.428,1.043,1.043,0,0,1-1.42.366Zm25.282-.338a.067.067,0,0,1-.031-.042l-.4-1.545a.069.069,0,0,1,.009-.055.073.073,0,0,1,.046-.032l.381-.1a.072.072,0,0,1,.086.051l.34,1.529a.061.061,0,0,1,.019.063.063.063,0,0,1-.044.048l-.351.09-.017,0A.064.064,0,0,1,38.054,25.661Zm40.653-.048-.2-.442a.1.1,0,0,1,.041-.12l1.77-.838a.092.092,0,0,1,.069,0,.091.091,0,0,1,.051.048l.211.467a.082.082,0,0,1,0,.069.085.085,0,0,1-.048.051l-1.78.808a.094.094,0,0,1-.037.008A.1.1,0,0,1,78.708,25.613Zm-32.368.014-.351-.09a.062.062,0,0,1-.04-.032.069.069,0,0,1-.005-.053l.336-1.5a.071.071,0,0,1,.086-.051l.38.1a.069.069,0,0,1,.046.03.066.066,0,0,1,.009.055l-.38,1.506a.066.066,0,0,1-.061.042A.066.066,0,0,1,46.339,25.627ZM8.807,25.488a1.1,1.1,0,0,1-.4-1.506,1.078,1.078,0,0,1,1.479-.5,1.153,1.153,0,0,1,.4,1.5,1.129,1.129,0,0,1-1.474.5Zm-3.125.085-1.805-.812a.086.086,0,0,1-.044-.053.088.088,0,0,1,.009-.069l.231-.451a.1.1,0,0,1,.051-.048.086.086,0,0,1,.069,0l1.77.842a.085.085,0,0,1,.054.044.091.091,0,0,1,.007.07l-.222.432a.1.1,0,0,1-.085.047A.1.1,0,0,1,5.682,25.573Zm60.058-.106-.292-.386a.09.09,0,0,1,0-.125l1.571-1.17a.091.091,0,0,1,.125,0l.315.423a.085.085,0,0,1,.028.062.086.086,0,0,1-.028.064l-1.6,1.132a.09.09,0,0,1-.06.024A.085.085,0,0,1,65.74,25.467Zm-23.492-1.2a.832.832,0,1,1,1.659.079.868.868,0,0,1-.867.814A.884.884,0,0,1,42.248,24.264Zm-24.189.38a1.087,1.087,0,0,1-.174-1.545,1.04,1.04,0,0,1,1.5-.2,1.144,1.144,0,0,1,.152,1.5,1.089,1.089,0,0,1-1.482.245Zm10.668-.321a1.039,1.039,0,1,1,.859.453A1.044,1.044,0,0,1,28.726,24.324Zm25.794.407-.366-.261a.1.1,0,0,1,0-.127l1.083-1.629a.081.081,0,0,1,.12,0l.407.285a.093.093,0,0,1,0,.127l-1.129,1.6a.085.085,0,0,1-.115.005Zm5.305-.453a2.547,2.547,0,0,0-.3-.3.075.075,0,0,1-.025-.056.08.08,0,0,1,.025-.058l1.341-1.425a.09.09,0,0,1,.125,0,3.541,3.541,0,0,1,.326.321.093.093,0,0,1,0,.127l-1.374,1.393a.086.086,0,0,1-.055.021A.085.085,0,0,1,59.826,24.278Zm13.387-1.117a1.158,1.158,0,0,1,.269-1.515,1.134,1.134,0,0,1,1.556.391,1.073,1.073,0,1,1-1.825,1.124Zm-4.535-.077a.077.077,0,0,1-.049-.044,2.953,2.953,0,0,0-.276-.366.074.074,0,0,1-.025-.056.075.075,0,0,1,.025-.058l1.558-1.178a.1.1,0,0,1,.132,0,2.9,2.9,0,0,1,.291.391.1.1,0,0,1-.027.125L68.742,23.07a.076.076,0,0,1-.048.016ZM50.883,22.69a1.109,1.109,0,0,1-.516-1.4,1.038,1.038,0,1,1,1.9.844,1.092,1.092,0,0,1-1.379.557Zm-17.537.062A.078.078,0,0,1,33.3,22.7l-.817-1.781a.094.094,0,0,1,.044-.12,3.58,3.58,0,0,1,.452-.2.1.1,0,0,1,.12.051l.763,1.805a.082.082,0,0,1,0,.063.071.071,0,0,1-.044.046,2.919,2.919,0,0,0-.41.182.08.08,0,0,1-.035.008A.073.073,0,0,1,33.346,22.751Zm-17.213-.217L14.548,21.37a.083.083,0,0,1-.027-.063.082.082,0,0,1,.027-.062l.312-.377a.09.09,0,0,1,.125,0l1.569,1.2a.085.085,0,0,1,0,.114l-.3.352a.1.1,0,0,1-.063.021A.1.1,0,0,1,16.133,22.535Zm47.475-.2a1.05,1.05,0,0,1-.738-.347,1.052,1.052,0,0,1,.724-1.828,1.077,1.077,0,0,1,.78.333,1.1,1.1,0,0,1,0,1.566,1.063,1.063,0,0,1-.714.278Zm-37.077-.113a1.03,1.03,0,1,1,.905-1.589,1.069,1.069,0,0,1-.15,1.43,1,1,0,0,1-.568.176A1.014,1.014,0,0,1,26.532,22.226Zm50.1-.576a1.132,1.132,0,0,1,.377-1.494,1.035,1.035,0,0,1,1.459.4,1.069,1.069,0,1,1-1.836,1.1Zm-19.323.324a.979.979,0,1,1,.05,0ZM12.291,21.5l-1.609-1.113a.094.094,0,0,1,0-.13l.3-.456a.092.092,0,0,1,.057-.042.087.087,0,0,1,.069.012l1.585,1.148a.093.093,0,0,1,.039.074.09.09,0,0,1-.035.076l-.28.431a.091.091,0,0,1-.126,0Zm9.814-.06-1.358-1.4a.093.093,0,0,1-.028-.065.09.09,0,0,1,.028-.065l.386-.352a.1.1,0,0,1,.13,0l1.33,1.441a.089.089,0,0,1,0,.12l-.361.326a.092.092,0,0,1-.064.025A.1.1,0,0,1,22.105,21.436Zm14.008-.787a1.045,1.045,0,1,1,1.013.789A1.039,1.039,0,0,1,36.114,20.648Zm9.248.416-.446-.055a.08.08,0,0,1-.07-.1l.236-1.946a.091.091,0,0,1,.1-.076l.5.06a.09.09,0,0,1,.081.1l-.3,1.936a.087.087,0,0,1-.035.062.086.086,0,0,1-.054.019Zm-5.179-1.178a1.052,1.052,0,0,1,1-1.148,1.029,1.029,0,0,1,1.083,1.048,1.077,1.077,0,0,1-1,1.083h-.033A1.052,1.052,0,0,1,40.182,19.886ZM7.6,20.062a1.089,1.089,0,0,1-.3-1.506,1,1,0,0,1,1.5-.3,1.138,1.138,0,0,1,.28,1.5,1.061,1.061,0,0,1-1.488.307Zm22.507.074-.942-1.719a.086.086,0,0,1,.03-.116l.41-.2a.088.088,0,0,1,.067-.005.086.086,0,0,1,.049.044l.9,1.737a.083.083,0,0,1-.025.114l-.38.19a.084.084,0,0,1-.034.008A.088.088,0,0,1,30.105,20.136Zm35.779-.3a1.082,1.082,0,0,1,1.555-1.5,1,1,0,0,1-.051,1.5,1.107,1.107,0,0,1-1.5,0Zm4.645-.417a1.069,1.069,0,1,1,1.664-1.339,1.062,1.062,0,0,1-.1,1.561,1.177,1.177,0,0,1-1.564-.222ZM59.64,19.169a1.11,1.11,0,0,1-.271-1.485l.025.011A1.063,1.063,0,0,1,60.9,17.5a1.049,1.049,0,0,1,.24,1.506,1.109,1.109,0,0,1-1.5.16ZM51.9,19.058A1.073,1.073,0,0,1,51.41,17.7a.968.968,0,0,1,1.3-.623,1.073,1.073,0,0,1-.817,1.981Zm-27.678-.7a1.091,1.091,0,0,1,.276-1.536,1.051,1.051,0,0,1,1.529.261,1.114,1.114,0,0,1-.307,1.506,1.083,1.083,0,0,1-1.5-.231Zm8.342-.437a.974.974,0,1,1,1.819-.668,1.045,1.045,0,0,1-.562,1.3,1,1,0,0,1-1.257-.636Zm41.86.41-.28-.391a.093.093,0,0,1,0-.13l1.555-1.189a.084.084,0,0,1,.06-.027.086.086,0,0,1,.06.027l.3.412a.1.1,0,0,1,0,.13l-1.574,1.164a.086.086,0,0,1-.057.026A.084.084,0,0,1,74.419,18.331Zm-55.357-.516a1.061,1.061,0,0,1,.03-1.5,1.082,1.082,0,0,1,1.5.141,1,1,0,0,1-.1,1.448,1.031,1.031,0,0,1-1.439-.085Zm-4.072.206-1.444-1.294a.085.085,0,0,1-.028-.062.086.086,0,0,1,.028-.064l.375-.391a.1.1,0,0,1,.069-.028.1.1,0,0,1,.067.028l1.419,1.344a.088.088,0,0,1,0,.1l-.356.366a.1.1,0,0,1-.065.025A.1.1,0,0,1,14.99,18.02ZM48.456,17.9a1,1,0,0,1-.7-1.245,1.028,1.028,0,0,1,1.21-.826,1.005,1.005,0,0,1,.693,1.288,1.069,1.069,0,0,1-1.2.784Zm-11.339-.342-.4-1.916a.086.086,0,0,1,.065-.1l.453-.085a.088.088,0,0,1,.1.076l.356,1.925a.084.084,0,0,1-.069.1l-.417.076A.087.087,0,0,1,37.117,17.554Zm25.832-.472a1.083,1.083,0,0,1-.119-1.5,1,1,0,0,1,1.474-.166,1.03,1.03,0,0,1,.119,1.5,1.067,1.067,0,0,1-1.474.16Zm-17.96.2-.421-.049a.081.081,0,0,1-.053-.033.084.084,0,0,1-.012-.062l.176-1.952a.084.084,0,0,1,.09-.079l.456.055a.091.091,0,0,1,.076.1L45.081,17.2a.084.084,0,0,1-.085.08ZM40.06,16.15A1.035,1.035,0,0,1,40.974,15a1,1,0,0,1,1,1.048,1.037,1.037,0,0,1-.917,1.083A1,1,0,0,1,40.06,16.15Zm16.219.842a4.4,4.4,0,0,0-.426-.236.076.076,0,0,1-.044-.049.089.089,0,0,1,0-.065l.923-1.731a.1.1,0,0,1,.056-.044.086.086,0,0,1,.069.009,4.126,4.126,0,0,1,.458.257.094.094,0,0,1,.039.125l-.958,1.7a.079.079,0,0,1-.053.044l-.018,0A.083.083,0,0,1,56.28,16.992ZM11.345,16.55,9.84,15.3a.085.085,0,0,1-.028-.065.082.082,0,0,1,.028-.065l.315-.4a.083.083,0,0,1,.06-.028.081.081,0,0,1,.06.028l1.506,1.273a.1.1,0,0,1-.016.13l-.3.375a.083.083,0,0,1-.119,0Zm16.569-.622a1.036,1.036,0,0,1,.5-1.439,1.074,1.074,0,0,1,1.474.477,1.1,1.1,0,0,1-.5,1.434,1.142,1.142,0,0,1-1.474-.472Zm39.794.372-.366-.356a.1.1,0,0,1,0-.13l1.351-1.425a.1.1,0,0,1,.131,0l.385.382a.089.089,0,0,1,.029.065.092.092,0,0,1-.029.065l-1.374,1.393a.1.1,0,0,1-.066.026A.1.1,0,0,1,67.708,16.3ZM23.39,15.528l-1.127-1.6a.087.087,0,0,1,0-.125l.405-.271a.1.1,0,0,1,.127.025l1.1,1.62a.08.08,0,0,1,.028.06.077.077,0,0,1-.028.06l-.381.257a.093.093,0,0,1-.122-.03Zm48.9-.278a1.054,1.054,0,0,1-.735-.365,1.1,1.1,0,0,1,.037-1.509,1.06,1.06,0,0,1,1.537.051,1.1,1.1,0,0,1-.069,1.548,1.05,1.05,0,0,1-.708.277Zm-20.13-.076a1.108,1.108,0,1,1,.381.068A1.108,1.108,0,0,1,52.16,15.174Zm7.546-.454a1.088,1.088,0,0,1-.312-1.458,1,1,0,0,1,1.455-.361,1.061,1.061,0,0,1,.286,1.5,1.035,1.035,0,0,1-1.428.315Zm-26.72.081-.627-1.856a.1.1,0,0,1,.06-.115l.5-.181a.093.093,0,0,1,.069,0,.1.1,0,0,1,.045.053l.573,1.865a.09.09,0,0,1-.051.114l-.462.171a.087.087,0,0,1-.027,0A.088.088,0,0,1,32.985,14.8Zm4.157-1a.093.093,0,0,1-.035-.056l-.345-1.93a.091.091,0,0,1,.08-.1l.5-.081a.1.1,0,0,1,.069.016.088.088,0,0,1,.037.06l.3,1.936a.094.094,0,0,1-.04.1l-.5.07h-.014A.094.094,0,0,1,37.142,13.8Zm8.757-.192a1.144,1.144,0,0,1-.963-1.189,1.043,1.043,0,0,1,1.235-.932,1.069,1.069,0,0,1-.136,2.129A1.086,1.086,0,0,1,45.9,13.607Zm-32.885-.326a1.08,1.08,0,1,1,1.55-1.5,1.058,1.058,0,0,1-.075,1.5,1.04,1.04,0,0,1-1.474,0Zm5.741-.16a1.154,1.154,0,0,1,1.841-1.39,1.077,1.077,0,0,1-.3,1.5,1.095,1.095,0,0,1-1.536-.114Zm6.972-.22a1.042,1.042,0,0,1,.42-1.435,1.006,1.006,0,0,1,1.417.461,1.1,1.1,0,0,1-.423,1.434,1.078,1.078,0,0,1-1.414-.46Zm38.387.3a1.147,1.147,0,0,1-.291-1.529A1.077,1.077,0,0,1,65.4,11.5a1.128,1.128,0,0,1,.255,1.575,1.1,1.1,0,0,1-1.54.13Zm-23.521-.837a1.094,1.094,0,0,1,1.083-1.124A1.053,1.053,0,0,1,42.8,12.309a1.119,1.119,0,0,1-1.083,1.067h-.052A1.072,1.072,0,0,1,40.592,12.363Zm15.812.486-.42-.18a.078.078,0,0,1-.044-.048.077.077,0,0,1,0-.063l.822-1.781a.092.092,0,0,1,.048-.048.093.093,0,0,1,.069,0l.451.2a.087.087,0,0,1,.048.049.08.08,0,0,1-.007.067l-.853,1.76a.09.09,0,0,1-.082.052A.1.1,0,0,1,56.4,12.849ZM29.464,11.1a1.058,1.058,0,0,1,.587-1.39,1.006,1.006,0,0,1,1.349.637,1.118,1.118,0,0,1-.6,1.365,1.048,1.048,0,0,1-1.333-.613Zm22.994.181a1.069,1.069,0,0,1-.652-1.33,1.04,1.04,0,0,1,1.325-.7,1.007,1.007,0,0,1,.618.521.994.994,0,0,1,.033.809,1.089,1.089,0,0,1-1.324.7Zm-28.716-.363a.1.1,0,0,1-.056-.044l-1-1.68a.094.094,0,0,1,.04-.125l.471-.266a.1.1,0,0,1,.13.03l.973,1.7a.083.083,0,0,1,.009.074.087.087,0,0,1-.049.056l-.448.25a.085.085,0,0,1-.069.009Zm36.865-.074-.451-.241a.084.084,0,0,1-.046-.051.081.081,0,0,1,.007-.069l.961-1.7a.094.094,0,0,1,.13-.03l.483.275a.087.087,0,0,1,.046.051.088.088,0,0,1-.007.07l-1,1.684a.092.092,0,0,1-.069.032A.093.093,0,0,1,60.607,10.849Zm6.4-.125-.377-.3a.09.09,0,0,1,0-.125l1.189-1.56a.09.09,0,0,1,.125,0l.4.315a.092.092,0,0,1,0,.127l-1.214,1.534a.087.087,0,0,1-.064.028A.093.093,0,0,1,67,10.724Zm-49.6-.07L16.188,9.114a.1.1,0,0,1,0-.13l.417-.291a.094.094,0,0,1,.131,0l1.183,1.559a.084.084,0,0,1-.005.12l-.391.282a.1.1,0,0,1-.063.024A.091.091,0,0,1,17.4,10.653Zm15.987-.882a1.038,1.038,0,1,1,.98.7A1.039,1.039,0,0,1,33.385,9.771Zm13.377.18L46.306,9.9a.08.08,0,0,1-.071-.1l.236-1.946a.085.085,0,0,1,.032-.06.091.091,0,0,1,.067-.016l.5.056a.087.087,0,0,1,.058.032.083.083,0,0,1,.017.063l-.276,1.941a.09.09,0,0,1-.089.082A.069.069,0,0,1,46.762,9.95ZM38.3,9.841a.087.087,0,0,1-.03-.062l-.242-1.941a.1.1,0,0,1,.018-.063.092.092,0,0,1,.058-.032l.5-.044a.1.1,0,0,1,.1.079l.2,1.952a.085.085,0,0,1-.087.1l-.456.035h-.012A.081.081,0,0,1,38.3,9.841Zm3.274-1.281a1,1,0,0,1,1.059-1.037,1.026,1.026,0,0,1,.729.331,1.04,1.04,0,0,1,.275.752,1.032,1.032,0,1,1-2.062-.046ZM26.584,8.27a1.1,1.1,0,0,1,.643-1.439,1.082,1.082,0,0,1,1.474.527,1.154,1.154,0,0,1-2.118.912Zm29.78.488a1.132,1.132,0,0,1-.651-1.425,1.094,1.094,0,0,1,1.506-.543,1.07,1.07,0,0,1,.652,1.42,1.151,1.151,0,0,1-1.506.548Zm7.243-.431L63.2,8.066a.1.1,0,0,1-.027-.127l1-1.67a.1.1,0,0,1,.125-.025l.431.277a.094.094,0,0,1,.03.125L63.718,8.3a.1.1,0,0,1-.074.034A.094.094,0,0,1,63.607,8.326ZM19.724,7.779a1.04,1.04,0,0,1,.361-1.5,1.1,1.1,0,0,1,1.5.366A1.064,1.064,0,0,1,21.209,8.1a1.124,1.124,0,0,1-1.485-.317Zm12.2-.412a.085.085,0,0,1-.046-.055L31.33,5.438a.1.1,0,0,1,.065-.116l.5-.16a.08.08,0,0,1,.072,0,.085.085,0,0,1,.048.056l.5,1.886a.094.094,0,0,1-.021.114l-.5.157a.1.1,0,0,1-.028,0A.084.084,0,0,1,31.926,7.367Zm18.23-.606-.5-.1a.085.085,0,0,1-.06-.037.1.1,0,0,1-.016-.069l.4-1.914a.087.087,0,0,1,.04-.06.1.1,0,0,1,.071-.011l.53.106a.094.094,0,0,1,.081.1L50.267,6.69a.094.094,0,0,1-.04.06.1.1,0,0,1-.048.014A.084.084,0,0,1,50.156,6.761Zm9.659-.551a1.134,1.134,0,0,1-.5-1.455,1.032,1.032,0,0,1,.618-.544,1.042,1.042,0,0,1,.821.077,1.069,1.069,0,1,1-.939,1.922ZM35.341,5.487h-.016a1.16,1.16,0,1,1,2.293-.356,1.164,1.164,0,0,1-2.278.356Zm-11.765.03a1.032,1.032,0,0,1,.541-1.4,1.068,1.068,0,1,1,.918,1.906,1.127,1.127,0,0,1-1.458-.5Zm22.232.562-.5-.051a.094.094,0,0,1-.086-.1l.162-1.955a.083.083,0,0,1,.037-.06.09.09,0,0,1,.067-.016l.537.051a.09.09,0,0,1,.065.03.1.1,0,0,1,.025.07l-.2,1.966a.091.091,0,0,1-.086.061Zm-4.614-.166A1.181,1.181,0,0,1,40.03,4.876a1.061,1.061,0,0,1,1.1-1.1,1.124,1.124,0,0,1,1.19,1.064,1.109,1.109,0,0,1-1.108,1.073ZM55.8,4.515a1.146,1.146,0,0,1-.632-1.39,1,1,0,0,1,1.354-.616A1.088,1.088,0,0,1,57.178,3.9a1.062,1.062,0,0,1-.558.594,1.075,1.075,0,0,1-.439.094A1.054,1.054,0,0,1,55.8,4.515Zm-27.319,0-.671-1.862a.094.094,0,0,1,.06-.114l.5-.16a.083.083,0,0,1,.069,0,.087.087,0,0,1,.046.051l.6,1.851a.094.094,0,0,1-.035.114l-.467.157a.092.092,0,0,1-.026,0A.1.1,0,0,1,28.485,4.515Zm23.5-1.159-.467-.13a.1.1,0,0,1-.065-.111L51.9,1.209a.1.1,0,0,1,.042-.056.1.1,0,0,1,.069-.009l.5.136a.1.1,0,0,1,.069.114l-.5,1.9A.087.087,0,0,1,52,3.357ZM32.5,3.275l-.5-1.9a.09.09,0,0,1,.069-.106l.5-.12a.1.1,0,0,1,.111.065L33.1,3.125a.092.092,0,0,1-.057.106L32.6,3.34l-.019,0A.089.089,0,0,1,32.5,3.275Zm15.1-.766a1.109,1.109,0,0,1-.947-1.194A1.05,1.05,0,0,1,47.88.387a1.1,1.1,0,0,1,.926,1.243,1.049,1.049,0,0,1-1.214.879ZM37.985,1.3a1.077,1.077,0,0,1,.252-.8,1.088,1.088,0,0,1,.75-.381,1.109,1.109,0,0,1,1.137,1.029,1.031,1.031,0,0,1-.268.763,1.042,1.042,0,0,1-.735.336c-.027,0-.055,0-.083,0A1.063,1.063,0,0,1,37.985,1.3Zm5.15.838a.1.1,0,0,1-.086-.1L43.09.08a.083.083,0,0,1,.032-.06A.077.077,0,0,1,43.185,0l.5.035a.093.093,0,0,1,.09.1L43.7,2.086a.088.088,0,0,1-.065.086Z" transform="translate(144.001 33.549)"/><path class="c" d="M153.515,48.072l3.425-9.645L146.157,10.843h7.289l6.965,17.829,6.329-17.813,7.283-.011L160.8,48.072Zm-35.859,0V10.849h6.725v1.42a14.369,14.369,0,0,1,7.524-2.062,3.2,3.2,0,0,0,.536.03,3.014,3.014,0,0,1,.527-.03c7.763,0,12.427,6.018,13.094,12.538a.453.453,0,0,1,.025.18c.039.476.064.952.064,1.431s-.025.933-.064,1.434l-.005.105c-.642,6.525-5.316,12.6-13.1,12.6h-1.044a14.337,14.337,0,0,1-7.524-2.071V48.072ZM130.3,16.842a6.794,6.794,0,0,0-4.122,2.592l-.045.055-.06.091a8.781,8.781,0,0,0,0,9.529l.06.095.045.055a6.788,6.788,0,0,0,4.122,2.594,8.471,8.471,0,0,0,1.63.155h.006c4.5-.011,7.307-3.475,7.307-7.668s-2.8-7.658-7.312-7.658A8.343,8.343,0,0,0,130.3,16.842ZM90.208,34.523a14.223,14.223,0,0,1,10-24.316,13.964,13.964,0,0,1,14.248,14.149A14.222,14.222,0,0,1,90.208,34.523Zm2.719-10.167c0,4.206,2.818,7.658,7.287,7.658s7.327-3.46,7.327-7.658S104.722,16.7,100.2,16.7,92.926,20.147,92.926,24.355ZM0,19.248A19.248,19.248,0,1,1,19.249,38.5,19.249,19.249,0,0,1,0,19.248Zm7.212,0A12.037,12.037,0,1,0,19.249,7.208,12.036,12.036,0,0,0,7.212,19.245Zm43.4,18.642A14.122,14.122,0,1,1,66.477,16.751l-5.9,3.4a6.952,6.952,0,0,0-6.225-3.457c-4.513,0-7.337,3.457-7.337,7.659s2.819,7.658,7.337,7.658a6.947,6.947,0,0,0,6.225-3.455l5.9,3.35a14.114,14.114,0,0,1-15.864,5.984Zm30.969.294c-6.91,0-9.678-4.629-9.678-10.21V17.017H68.076V10.849H71.9V5.212h6.75v5.637h10.03a17.147,17.147,0,0,0-4.629,6.168h-5.4v9.844c0,3.084.426,4.895,4.147,4.895.371,0,.839-.034,1.254-.075.111.235.221.5.341.714V37.8a8.558,8.558,0,0,1-2.529.381Q81.726,38.186,81.581,38.181Z" transform="translate(242.66 56.533)"/></g></svg>