<svg xmlns="http://www.w3.org/2000/svg" width="92.972" height="25.683" viewBox="0 0 92.972 25.683"><defs><style>.a{fill:#fff;}</style></defs><g transform="translate(-196.71 -45.828)"><path class="a" d="M82.016,25.683l1.83-5.153L78.085,5.793h3.894L85.7,15.318,89.081,5.8,92.972,5.8,85.909,25.683Zm-19.158,0V5.8h3.593v.759a7.677,7.677,0,0,1,4.02-1.1,1.711,1.711,0,0,0,.287.016,1.61,1.61,0,0,1,.281-.016c4.147,0,6.639,3.215,7,6.7a.242.242,0,0,1,.013.1c.021.254.034.509.034.764s-.013.5-.034.766l0,.056c-.343,3.486-2.84,6.733-7,6.733h-.558a7.66,7.66,0,0,1-4.02-1.106v6.222ZM69.613,9a3.63,3.63,0,0,0-2.2,1.385l-.024.03-.032.049a4.692,4.692,0,0,0,0,5.091l.032.051.024.03a3.627,3.627,0,0,0,2.2,1.386,4.526,4.526,0,0,0,.871.083h0a3.867,3.867,0,0,0,3.9-4.1,3.858,3.858,0,0,0-3.906-4.091A4.457,4.457,0,0,0,69.613,9ZM48.194,18.444a7.6,7.6,0,0,1,5.34-12.991,7.46,7.46,0,0,1,7.612,7.559,7.6,7.6,0,0,1-12.952,5.432Zm1.452-5.432a3.908,3.908,0,1,0,7.808,0,3.908,3.908,0,1,0-7.808,0ZM0,10.284A10.284,10.284,0,1,1,10.284,20.567,10.284,10.284,0,0,1,0,10.284Zm3.853,0a6.431,6.431,0,1,0,6.431-6.431A6.43,6.43,0,0,0,3.853,10.282Zm23.187,9.96A7.545,7.545,0,1,1,35.515,8.949l-3.153,1.814a3.714,3.714,0,0,0-3.326-1.847,3.867,3.867,0,0,0-3.92,4.092,3.864,3.864,0,0,0,3.92,4.091,3.711,3.711,0,0,0,3.326-1.846l3.153,1.79a7.54,7.54,0,0,1-8.476,3.2Zm16.545.157c-3.692,0-5.171-2.473-5.171-5.455V9.091H36.37V5.8h2.044V2.785h3.606V5.8h5.358a9.161,9.161,0,0,0-2.473,3.3H42.023v5.259c0,1.648.228,2.615,2.216,2.615.2,0,.448-.018.67-.04.059.126.118.268.182.381V20.2a4.572,4.572,0,0,1-1.351.2Z" transform="translate(196.71 45.828)"/></g></svg>