<svg xmlns="http://www.w3.org/2000/svg" xmlns:xlink="http://www.w3.org/1999/xlink" width="416.395" height="195.211" viewBox="0 0 416.395 195.211"><defs><style>.a{fill:#fff;}.b{fill:#770f00;}.c{fill:#002169;}.d{fill:#e1251b;}.e{fill:#ffe500;}.f{fill:#fbba00;}.g{fill:#f2cbb1;}.h{fill:#f7d8c9;}.i{fill:#004899;}.j,.s{fill:#1d1d1b;}.k{fill:#006fb9;}.l{fill:#05000b;}.l,.o,.r{opacity:0.23;}.m{fill:#00964a;}.n{fill:#68b767;}.o{fill:#001400;}.p{fill:#e30613;}.q{fill:#f18e9a;}.r{fill:#260000;}.s{opacity:0.29;}.t{fill:#ccbba0;}.u,.v{fill:#f2c4aa;}.u{opacity:0.3;}.w{fill:#bb9986;}.x{fill:url(#a);}</style><linearGradient id="a" x1="-0.146" y1="0.504" x2="1.282" y2="0.493" gradientUnits="objectBoundingBox"><stop offset="0" stop-color="#48160c"/><stop offset="0.08" stop-color="#663d34" stop-opacity="0.831"/><stop offset="0.33" stop-color="#baa7a3" stop-opacity="0.38"/><stop offset="0.53" stop-color="#ede8e7" stop-opacity="0.102"/><stop offset="0.67" stop-color="#fff" stop-opacity="0"/></linearGradient></defs><g transform="translate(0)"><g transform="translate(0)"><path class="a" d="M408.464,156.282a123.146,123.146,0,0,0-.53-18.292l-2.042-15.219a13.921,13.921,0,0,0-.4-27.086,15.368,15.368,0,0,0,.429-3.846,32.088,32.088,0,0,0-7.1-20.471l-.036-.042c-.274-.327-.566-.655-.869-.988a10.867,10.867,0,0,0,3.019-1.786,3.687,3.687,0,0,0,.322-.286,10.676,10.676,0,0,0,3.388-8.1V56.345a13.528,13.528,0,0,0-.661-4.424,19.76,19.76,0,0,0,2.7-3.2A20.244,20.244,0,0,0,409.524,33.3h0a20.977,20.977,0,0,0-3.507-8.235v-.548l-.464-7.145A12.194,12.194,0,0,0,393.983,5.954a42.907,42.907,0,0,0-10.628.732,25.008,25.008,0,0,0-8.568,3.358,12.218,12.218,0,0,0-4.579-.548l-8.086.56a12.147,12.147,0,0,0-4.972,1.429,12.349,12.349,0,0,0-2.828-.738,36.738,36.738,0,0,0-9.068-.125A22.275,22.275,0,0,0,337.316,13c-.923,0-1.786,0-2.679-.036h-3.489a12.111,12.111,0,0,0-1.971.161,12.075,12.075,0,0,0-4.609-.47l-5.954.518a12.152,12.152,0,0,0-3.918,1.012l-5.514.238-3.573.143a24.846,24.846,0,0,0-14.1-3.769,73.726,73.726,0,0,0-10.622,1.054,11.974,11.974,0,0,0-2.382.7l-4.424-.25a12.254,12.254,0,0,0-4.984.762,12.26,12.26,0,0,0-5.359-.429l-6.044.875a12.1,12.1,0,0,0-3.287.971,24.454,24.454,0,0,0-14.141-.661,12.016,12.016,0,0,0-2.691-.947,32.26,32.26,0,0,0-7.389-.8,27.181,27.181,0,0,0-9.205,1.721,11.908,11.908,0,0,0-3.317-.6l-7.413-.244-3.936-.137C202.2,4.763,193.282,0,181.391,0c-3.638,0-10.932.5-14.558.857a12.153,12.153,0,0,0-6.818,2.924H158.6a6.579,6.579,0,0,0-1.084.06,10.218,10.218,0,0,0-3.251-.226l-3.692.333a11.313,11.313,0,0,0-1.346.208,17.922,17.922,0,0,0-9.557-.048,21.537,21.537,0,0,0-4.6-.536c-8.741,0-15.386,5.412-16.916,13.314l-16.493-6.038A14.951,14.951,0,0,0,82.681,19.78L70.219,54.666c-.411.322-.834.673-1.28,1.048A79.507,79.507,0,0,0,57.572,66.754l-.447.47A8.193,8.193,0,0,0,55.97,68.8a30.706,30.706,0,0,0-3.977,7.092c-3.346,8.771-11.385,24.442-15.332,29.075a8.259,8.259,0,0,1-2.477,1.548,8.073,8.073,0,0,0-1.09.661c-3.954,1.262-10.384,2.912-17.22,4.412-2.2.351-4.418.72-6.6,1.107a8.128,8.128,0,0,0-6.425,5.794c-3.5,12.665-3.781,23.966-.828,33.582.03.1.054.191.089.286s.089.286.149.458.173.524.262.774.167.476.256.709.185.488.286.75.185.47.292.726.143.339.22.512l.048.113c.25.566.512,1.131.786,1.691l.137.28.131.268a8.146,8.146,0,0,0,7.229,4.418,8.059,8.059,0,0,0,2.743-.482c4.4-1.578,8.754-3.216,12.976-4.889a8.134,8.134,0,0,0,2.179-.655l5.734-2.346c9.36-3.8,9.39-3.823,10.194-4.323,4.424-2.751,7.806-3.275,12.278-3.811-.53,1.566-1.084,3.239-1.7,5.139a11.468,11.468,0,0,0,.851,9.11l-.137,13.522A11.539,11.539,0,0,0,68.5,185.97h4.835a11.617,11.617,0,0,0,6.27-1.858,18.964,18.964,0,0,0,8.9,2.132,20.638,20.638,0,0,0,5.579-.732,11.379,11.379,0,0,0,2.668.411l4.918.173a11.687,11.687,0,0,0,2.144-.143,11.771,11.771,0,0,0,4.257.208l4.132-.6a11.551,11.551,0,0,0,3.733.6h.274c.929,0,1.816-.048,2.739-.1l2.489-.077a11.313,11.313,0,0,0,4.216-.953,19.434,19.434,0,0,0,6.693,1.191,19.709,19.709,0,0,0,5.954-.911,28.89,28.89,0,0,0,7.086.953,19.858,19.858,0,0,0,3.8-.357,11.438,11.438,0,0,0,6.073,2.31h.071c.363.03,1.036.089,2.084.089q.56,0,1.286-.054a13.26,13.26,0,0,0,1.518,1.995,13.7,13.7,0,0,0,9.527,4.364l17.791.6H188a13.5,13.5,0,0,0,9.592-3.972,14.076,14.076,0,0,0,1.4-1.643,49.421,49.421,0,0,0,20.405,4.2c6.651,0,15.809-1.751,21.507-3.376a13.51,13.51,0,0,0,8.735-7.657l5.037.47a13.546,13.546,0,0,0,9.366-2.65,13.552,13.552,0,0,0,8.443,2.977,13.186,13.186,0,0,0,1.822-.125l3.727-.5a13.611,13.611,0,0,0,5.954,1.745l15.106.834a13.647,13.647,0,0,0,6.955-1.453,13.635,13.635,0,0,0,7.6,2.334,13.939,13.939,0,0,0,1.578-.1L328.98,184.7a13.582,13.582,0,0,0,6.74-2.775l9.491.893a13.605,13.605,0,0,0,9.4-2.679,13.54,13.54,0,0,0,8.473,2.977,14.283,14.283,0,0,0,1.822-.119l5.829-.792a21.578,21.578,0,0,0,6.9,7.883,24.231,24.231,0,0,0,32.147-5.317,22.552,22.552,0,0,0,3.852-17.19,23.222,23.222,0,0,0-5.162-11.3Zm-378.627.738.2-.1Z" transform="translate(0)"/><path class="b" d="M487.124,40.426a11.166,11.166,0,0,0-4.376-7.318,4.073,4.073,0,0,0,.7-2.578l-.464-7.145a4.067,4.067,0,0,0-3.823-3.793,35,35,0,0,0-8.646.6,15.529,15.529,0,0,0-9.015,5.049,12.013,12.013,0,0,0-.84,1.125l-.244-.631a4.055,4.055,0,0,0-4.067-2.578l-8.086.56a4.061,4.061,0,0,0-3.573,2.828l-2.459,7.782v-.179l.1-5.692a4.073,4.073,0,0,0-3.519-4.1,28.509,28.509,0,0,0-7.08-.1,13.421,13.421,0,0,0-6.972,2.709,4.168,4.168,0,0,0-1.572-.3c-1.1,0-2.138,0-3.168-.036h-3.293a4.079,4.079,0,0,0-2.566.911,4.043,4.043,0,0,0-3.3-1.25L404.9,26.8a4.055,4.055,0,0,0-2.328,1,4.352,4.352,0,0,0-.56,0l-6.824.3c-1.911.077-3.757.155-5.68.214a4.483,4.483,0,0,0-.905.131l-.083-.1c-2.6-2.578-6.6-3.936-11.271-3.87a65.563,65.563,0,0,0-9.318.923,4.1,4.1,0,0,0-2.036.959,4.071,4.071,0,0,0-.673-.1l-6.032-.339a4.067,4.067,0,0,0-3.882,2.275l-.339.7-.339-.637a4.067,4.067,0,0,0-4.168-2.09l-6.038.875a4.061,4.061,0,0,0-3.3,2.822,14.386,14.386,0,0,0-9.592-3.174,14.927,14.927,0,0,0-7.246,1.911,4.049,4.049,0,0,0-2.822-2.263,24.294,24.294,0,0,0-5.526-.6,17.482,17.482,0,0,0-9.723,2.894A4.067,4.067,0,0,0,303,26.857l-7.413-.238c-2.09-.071-4.067-.137-6.145-.232a4.049,4.049,0,0,0-3.2,1.322c-.846-8.842-7.919-14.058-19.292-14.058-3.34,0-10.384.488-13.76.822a4.055,4.055,0,0,0-3.6,3.555,2.161,2.161,0,0,0-1.423-.542h-3.983a2.155,2.155,0,0,0-1.548.649l-.071.077a2.161,2.161,0,0,0-1.983-.929l-3.686.333a2.149,2.149,0,0,0-1.745,1.191,9.122,9.122,0,0,0-10.081-.232,2.173,2.173,0,0,0-1.3-.905,13.7,13.7,0,0,0-3.114-.411c-5.454,0-9.116,3.513-9.116,8.735,0,4.853,3.656,8.241,8.89,8.241a11.766,11.766,0,0,0,3.674-.649,2.173,2.173,0,0,0,1.03-.774,8.568,8.568,0,0,0,4.865,1.441,8.288,8.288,0,0,0,4.936-1.53,2.167,2.167,0,0,0,1.893,1.221l4.055.137a2.155,2.155,0,0,0,1.59-.6,2.566,2.566,0,0,0,.3-.369l.054.089a2.161,2.161,0,0,0,1.846,1.036,2.5,2.5,0,0,0,.3,0l3.686-.512a2.215,2.215,0,0,0,.834-.3l-.089,19.506a4.067,4.067,0,0,0,4.1,4.049h0l11.218-.054a4.061,4.061,0,0,0,3.983-3.352l1.786,2.864a4.067,4.067,0,0,0,3.465,1.935,4.126,4.126,0,0,0,1.274-.2L286.084,54.6a3.9,3.9,0,0,0,.887-.417,4.067,4.067,0,0,0,.6.089l14.463,1.042h.3a4.049,4.049,0,0,0,3.573-2.2,16.916,16.916,0,0,0,9.8,2.87h.375a20.572,20.572,0,0,0,6.484-1.28,3.972,3.972,0,0,0,1.709-1.227,14.386,14.386,0,0,0,7.562,2.054h.286a14.141,14.141,0,0,0,8.235-2.673,4.019,4.019,0,0,0,.756,1.143,4.079,4.079,0,0,0,2.93,1.268h6.591a4.067,4.067,0,0,0,4.085-3.87l.1-2.578,1.108-.036.149,2.34a4.067,4.067,0,0,0,4.251,3.811l5.168-.25a4.2,4.2,0,0,0,.47.554,4.055,4.055,0,0,0,2.846,1.191h.054l7.61-.1a4.055,4.055,0,0,0,4.007-4.168l-.083-2.483a15.7,15.7,0,0,0,5.2-1.62V50.68a4.067,4.067,0,0,0,4.067,4.055h0l13.379-.054a3.984,3.984,0,0,0,1.31-.226,2.041,2.041,0,0,0,.333,0l6.55.25a4.079,4.079,0,0,0,2.977-1.149.4.4,0,0,0,.071-.071,4.073,4.073,0,0,0,3.174,1.459,4.3,4.3,0,0,0,.548-.036l5.954-.81a3.77,3.77,0,0,0,.822-.2h0a24.037,24.037,0,0,0,5.954.661,25.72,25.72,0,0,0,2.7-.131,15.023,15.023,0,0,0,5.573-1.7,4.061,4.061,0,0,0,2.31.947l7.532.6a2.639,2.639,0,0,0,.31,0,4.073,4.073,0,0,0,3.9-2.924l.232-.8h.077l.244.822a4.061,4.061,0,0,0,4.507,2.846l3.727-.6a4.055,4.055,0,0,0,2.977,2.459,22.625,22.625,0,0,0,4.168.327,35.81,35.81,0,0,0,6.4-.6c4.448-.869,8.02-3.031,10.063-6.085A12.045,12.045,0,0,0,487.124,40.426Z" transform="translate(-85.579 -5.522)"/><path class="b" d="M448.989,248.678a14.1,14.1,0,0,0-5.835-9.616l-.173-.113a5.442,5.442,0,0,0,.673-2.328,121.8,121.8,0,0,0-.435-17.928.4.4,0,0,0,0-.083l-2.084-15.529a5.442,5.442,0,0,0-6.478-4.609L421.79,201.1c-1.655-.6-6.067,1.006-10.533,2.471l-.691-1.864a5.43,5.43,0,0,0-5.359-3.573l-16.077.828a5.454,5.454,0,0,0-4.883,3.7l-.256.774H375.43a5.43,5.43,0,0,0-4.335-2.3c-2.417-.054-4.924-.107-7.359-.22h-.143l-3.519-.107c-1.405-.048-2.822-.1-3.793-.113a5.359,5.359,0,0,0-3.924,1.554,5.462,5.462,0,0,0-.929,1.227h-2.584l-.518-.959a5.442,5.442,0,0,0-5.168-2.858l-13.737.959a5.436,5.436,0,0,0-5.037,4.978l-3.2-.083-1.191-3.2a5.454,5.454,0,0,0-5.359-3.573l-16.077.828a5.43,5.43,0,0,0-4.877,3.7l-.5,1.495-7.6-.2v-.214a5.442,5.442,0,0,0-4.234-5.883,62.238,62.238,0,0,0-13.635-1.4c-11.135,0-20.84,3.18-28.057,9.193a34.407,34.407,0,0,0-3.537,3.424c-1.971-5.591-7.145-9.176-13.933-9.176-8.705,0-14.79,5.924-14.79,14.409a14.2,14.2,0,0,0,5.014,10.92,5.459,5.459,0,0,0-.566,1.34c-.06.22-.786,2.93-1.512,6.621a1.473,1.473,0,0,0-.054-.173l-5.055-13.695a3.388,3.388,0,0,0-3.358-2.221l-5.055.262a3.406,3.406,0,0,0-3.049,2.31l-2.269,6.764-.143.417h-.53l.113-6.27a3.394,3.394,0,0,0-3.454-3.459l-4.692.083a3.508,3.508,0,0,0-1.042.179,3.489,3.489,0,0,0-1.262-.2l-4.615.143a3.436,3.436,0,0,0-1.417.351,3.441,3.441,0,0,0-1.447-.333l-4.591-.042h-.03a3.269,3.269,0,0,0-1.328.274,3.323,3.323,0,0,0-1.006-.244l-4.073-.3a3.388,3.388,0,0,0-2.977,1.322,3.394,3.394,0,0,0-3.078-1.244l-4.1.518a1.787,1.787,0,0,0-.31.066,3.436,3.436,0,0,0-1.905-.512l-4.609.143a3.413,3.413,0,0,0-1.417.351,3.465,3.465,0,0,0-1.447-.333l-4.6-.042h-.03a3.4,3.4,0,0,0-1.018.155,16.213,16.213,0,0,0-3.573-.453,11.2,11.2,0,0,0-8.931,3.811l-.554-1.506a3.4,3.4,0,0,0-3.364-2.221l-5.055.262a3.406,3.406,0,0,0-3.049,2.31l-2.269,6.764c-.7,2.042-1.429,4.216-2.275,6.83a3.388,3.388,0,0,0,1.721,4.091,3.388,3.388,0,0,0-.453,1.649l-.143,14.469a3.394,3.394,0,0,0,3.382,3.43h4.763a3.406,3.406,0,0,0,3.4-3.453v-.828a10.717,10.717,0,0,0,2.727-.905c1.429,3.376,4.71,5.46,9.051,5.46a10.855,10.855,0,0,0,6-1.59,3.406,3.406,0,0,0,2.531,1.274l4.871.167a3.418,3.418,0,0,0,2.257-.756,3.4,3.4,0,0,0,2.328.929,3.128,3.128,0,0,0,.47-.036l4.424-.6a3.346,3.346,0,0,0,1.786-.84,3.218,3.218,0,0,0,.369.441,3.388,3.388,0,0,0,2.382.982h.083c.881,0,1.727-.048,2.608-.089l2.542-.083a3.4,3.4,0,0,0,3.275-3.084,10.771,10.771,0,0,0,7.9,3.3,10.968,10.968,0,0,0,5.9-1.637,3.322,3.322,0,0,0,.994.6,19.006,19.006,0,0,0,6.157,1.066,9.586,9.586,0,0,0,6.907-2.566c.161-.161.31-.327.453-.5v1.649a3.412,3.412,0,0,0,3.156,3.394h.143c.274,0,.691.065,1.387.065,4.817,0,5.889-3.972,6.294-5.46l1.614-5.954-.56,12.046a5.43,5.43,0,0,0,5.246,5.686l17.791.6h.191a5.442,5.442,0,0,0,5.436-5.627l-.185-5.359c6.413,6.181,15.666,9.586,26.145,9.586,5.609,0,13.939-1.542,19.274-3.066a5.436,5.436,0,0,0,3.942-5.109l.083-3.543,12.73,1.191a5.448,5.448,0,0,0,5.7-3.8l1.036-3.317,4.055-.232,1.036,3.662a5.442,5.442,0,0,0,5.228,3.966,5.045,5.045,0,0,0,.731-.053l7.218-.893a5.454,5.454,0,0,0,4.037,2.149l15.058.828a5.448,5.448,0,0,0,5.74-5.359v-2.8l3.668,6.294a5.442,5.442,0,0,0,4.7,2.7,5.787,5.787,0,0,0,.637-.036l13.748-1.608a5.46,5.46,0,0,0,4.329-3.18l13.623,1.262a5.436,5.436,0,0,0,5.7-3.793l1.042-3.346,4.1-.232,1.036,3.686a5.448,5.448,0,0,0,5.234,3.966,6.045,6.045,0,0,0,.732-.048l12.5-1.7c.03.208.054.417.089.6a14.29,14.29,0,0,0,5.883,9.545,14.135,14.135,0,0,0,8.175,2.465,17.855,17.855,0,0,0,2.977-.256,14.935,14.935,0,0,0,9.813-5.674A14.163,14.163,0,0,0,448.989,248.678Z" transform="translate(-43.389 -79.732)"/><path class="c" d="M635.706,88.679a24.044,24.044,0,0,0-2.435.2L600.38,92.138a2.2,2.2,0,0,0-2.269,2.435v2.144a2.037,2.037,0,0,0,.458,1.53,2.1,2.1,0,0,0,1.643.6h35.493a3.025,3.025,0,0,0,2.018-.661,2.686,2.686,0,0,0,.786-2.144V92.221a3.688,3.688,0,0,0-.786-2.757,2.709,2.709,0,0,0-2.018-.786" transform="translate(-241.973 -35.876)"/><path class="c" d="M577.252,150.379a3.775,3.775,0,0,0,.822-2.477V93.944a3.775,3.775,0,0,0-.822-2.477,3.352,3.352,0,0,0-2.757-1.191h-4.924a3.352,3.352,0,0,0-2.757,1.191A3.775,3.775,0,0,0,566,93.944V147.9a3.775,3.775,0,0,0,.822,2.477,3.352,3.352,0,0,0,2.757,1.191h4.912a3.352,3.352,0,0,0,2.757-1.191" transform="translate(-228.986 -36.521)"/><path class="c" d="M279.766,151.447h3.811a3.96,3.96,0,0,0,3.257-1.358,4.043,4.043,0,0,0,.905-2.846V108.9h.208s21.269,37.685,22.132,39.084a6.883,6.883,0,0,0,6.1,3.459h6.55a3.948,3.948,0,0,0,3.257-1.358,4.043,4.043,0,0,0,.905-2.846V99.382h86.141a3.1,3.1,0,0,0,2.018-.655,2.709,2.709,0,0,0,.78-2.15V92.964a2.686,2.686,0,0,0-.78-2.144,3.066,3.066,0,0,0-2.018-.661H319.046a3.96,3.96,0,0,0-3.257,1.364,4.037,4.037,0,0,0-.905,2.84v37.423h-.208S294.193,95.262,293.2,93.559a7.145,7.145,0,0,0-2.483-2.626,7.6,7.6,0,0,0-4.168-.953h-6.788a3.96,3.96,0,0,0-3.257,1.364,4.091,4.091,0,0,0-.905,2.846v53.053a4.073,4.073,0,0,0,.905,2.846,3.96,3.96,0,0,0,3.257,1.358" transform="translate(-111.498 -36.398)"/><path class="c" d="M412.2,142.3c.7-.655,1.03-1.608,1.03-3.382A24.16,24.16,0,0,0,408,123.628c-3.632-4.329-9.158-7.258-16.946-7.258-14.29,0-22.34,11.176-22.34,22.966,0,12.57,8.616,23.621,22.424,23.621,6.883,0,13.647-2.6,17.518-7.175,1.7-1.977,3.055-4.763,3.055-6.431a2.1,2.1,0,0,0-.453-1.441,1.965,1.965,0,0,0-1.691-.661h-6.639a3.186,3.186,0,0,0-2.882,1.483c-1.941,2.846-4.763,4.335-8.86,4.335a10.3,10.3,0,0,1-10.474-9.854h28.664a3.769,3.769,0,0,0,2.8-.911m-31.385-7.872c.536-5.073,4.412-8.866,10.307-8.866,5.77,0,9.765,3.793,10.3,8.866Z" transform="translate(-149.17 -47.08)"/><path class="c" d="M635.747,147.914a1.965,1.965,0,0,0-1.691-.661h-6.633a3.191,3.191,0,0,0-2.888,1.483c-1.941,2.846-4.763,4.329-8.86,4.329A10.289,10.289,0,0,1,605.2,143.21h28.771a3.76,3.76,0,0,0,2.8-.905,4.5,4.5,0,0,0,1.03-3.382,24.148,24.148,0,0,0-5.234-15.291c-3.543-4.287-9.229-7.252-17.023-7.252-14.29,0-22.34,11.164-22.34,22.954,0,12.575,8.616,23.621,22.418,23.621,6.889,0,13.647-2.59,17.523-7.145,1.691-1.977,3.049-4.763,3.049-6.431a2.1,2.1,0,0,0-.453-1.441m-20.155-22.37c5.77,0,9.771,3.793,10.307,8.866H605.285c.536-5.073,4.412-8.866,10.307-8.866" transform="translate(-239.996 -47.084)"/><path class="c" d="M475.316,135.783l-9.36-2.382c-3.87-.988-5.686-1.691-5.686-4.079s2.06-4.168,6.841-4.168c2.8,0,5.359.6,7.008,2.352,1.364,1.441,1.113,2.185,2.185,2.757a5.587,5.587,0,0,0,2.554.333h4.662a2.072,2.072,0,0,0,1.685-.6,2.727,2.727,0,0,0,.536-1.9c0-2.138-1.4-4.906-3.876-7.008-3.293-2.84-8.491-4.763-14.755-4.763-11.313,0-18.714,5.359-18.714,13.933a10.593,10.593,0,0,0,2.93,7.491c2.1,2.263,5.109,3.829,9.479,4.948l9.443,2.382c2.59.655,4.9,1.441,4.9,3.71,0,3.507-3.71,4.7-7.669,4.7a12.832,12.832,0,0,1-5.6-1.191,6.943,6.943,0,0,1-2.84-2.519c-.6-.947-.828-1.643-1.786-2.185a4.454,4.454,0,0,0-2.227-.369h-5.115a2.3,2.3,0,0,0-2.013.786,2.816,2.816,0,0,0-.5,1.786,9.718,9.718,0,0,0,1.941,5.567c3.144,4.192,9.729,7.568,18.065,7.568,8.247,0,19.649-3.412,19.649-14.463a11.569,11.569,0,0,0-2.352-7.258c-1.941-2.513-4.7-4.245-9.4-5.442" transform="translate(-181.002 -47.064)"/><path class="c" d="M524.278,147.616c2.471,2.435,5.686,3.954,11.313,3.954H539.1a3.037,3.037,0,0,0,2.013-.655,2.733,2.733,0,0,0,.869-2.144V145.2a2.739,2.739,0,0,0-.869-2.15,3.037,3.037,0,0,0-2.013-.661h-.5a6.623,6.623,0,0,1-4.763-1.56,6.894,6.894,0,0,1-1.852-5.24V115.832h7.443a3.055,3.055,0,0,0,2.019-.661,2.685,2.685,0,0,0,.78-2.144v-2.846a2.686,2.686,0,0,0-.78-2.144,3.054,3.054,0,0,0-2.018-.661h-7.443V93.944a3.775,3.775,0,0,0-.822-2.477,3.352,3.352,0,0,0-2.757-1.191h-4.662a3.34,3.34,0,0,0-2.757,1.191,3.775,3.775,0,0,0-.828,2.477v13.433h-2.31a3.055,3.055,0,0,0-2.018.661,2.685,2.685,0,0,0-.786,2.144v2.846a2.685,2.685,0,0,0,.786,2.144,3.055,3.055,0,0,0,2.019.661h2.31V136.4c0,5.275,1.441,8.574,4.12,11.212" transform="translate(-208.368 -36.521)"/><path class="c" d="M671.9,177.434h-.834v1.739h.893c.637,0,1.191-.089,1.191-.881s-.6-.857-1.227-.857m1.286,5.258c-.31-.887.119-2.566-1.131-2.566h-.983v2.566H669.69v-6.24h2.793c1.125,0,2.108.214,2.108,1.6,0,.911-.554,1.346-1.405,1.495,1.679.244,1.066,1.929,1.554,3.15Zm-1.1-7.741a4.7,4.7,0,1,0,4.674,4.68,4.7,4.7,0,0,0-4.674-4.68m0,10.462a5.782,5.782,0,1,1,5.746-5.782,5.782,5.782,0,0,1-5.746,5.782" transform="translate(-269.562 -70.335)"/><path class="d" d="M303.292,221.043c0,5.478-3.5,8.973-9.426,8.973a8.961,8.961,0,0,1-9.277-8.973c0-5.323,3.573-8.973,9.348-8.973S303.292,215.6,303.292,221.043Zm-3.114,13.993a114.083,114.083,0,0,1,2.429,16.8l.536,15.66-17.8-.6.679-14.683c.155-7.681,2.816-17.488,2.816-17.488Z" transform="translate(-115.137 -85.797)"/><path class="d" d="M349.851,246.528l-.4-13.171,17.22-.875-.631,28.414a77.534,77.534,0,0,1-17.78,2.858c-15.4,0-29.837-8.574-29.771-26.83.077-19.679,15.314-30.635,34.684-30.635a56.7,56.7,0,0,1,12.456,1.274c-.554,5.234-1.268,10.474-1.905,15.713a35.494,35.494,0,0,0-9.36-1.352c-9.765,0-16.827,4.924-16.428,13.415C338.341,243.116,342.706,246.688,349.851,246.528Z" transform="translate(-128.852 -83.458)"/><path class="d" d="M434.078,246.769l-12.177.7-2.155,6.913-14.886-1.393c2.281-7.044,4.632-14.147,7.145-21.507l7.229-21.566,16.077-.822L451.387,252.6l-15.035,2.03Zm-2.471-10.087-4-13.129-3.573,13.385Z" transform="translate(-163.795 -84.592)"/><path class="d" d="M520.867,256.41l-13.754,1.614-13.623-23.377-.208,22.6-15.07-.84,1.661-44.872,13.737-.953,12.2,22.722.458-.054V211.622c1.893.042,5.484.185,7.312.22,2.477.113,4.96.167,7.508.22Z" transform="translate(-193.47 -85.195)"/><path class="d" d="M586.079,245.824l-12.224.7-2.161,6.937L556.76,252.07c2.292-7.062,4.65-14.189,7.193-21.572l7.24-21.65,16.077-.828,16.077,43.657-15.082,2.036ZM583.6,235.7l-4.007-13.171-3.573,13.427Z" transform="translate(-225.249 -84.159)"/><path class="d" d="M294.236,44.4l-2.1.054.1,10.271L281,54.772l.149-34.4c3.543-.351,10.319-.8,13.361-.8,10.021,0,15.308,4.168,15.308,11.819a12.641,12.641,0,0,1-5.436,10.218l7.955,10.968-10.872,3.573Zm-1.995-8.824c4.591.1,6.681-1.048,6.681-3.573,0-2.042-1.393-3.09-3.787-3.09-1.3,0-2.941.149-2.941.149Z" transform="translate(-113.685 -7.917)"/><path class="d" d="M353.173,61.775,338.71,60.738,340.157,41c2.31.1,4.507.173,6.824.25l6.788.22-.107,5.359-7.461-.548-.137,2.34c.917.054,1.888.048,5.627.155l-.226,4.9-5.674-.327-.137,2.423c1.31.077,2.679.125,7.985.322Z" transform="translate(-137.032 -16.587)"/><path class="d" d="M378.974,55.385a11.909,11.909,0,0,0,3.763-.834c0,1.108.131,2.15.327,6.419a16.547,16.547,0,0,1-5.145,1.012c-6.145.113-11.831-3.233-11.962-10.426-.131-7.621,5.18-11.587,11.974-11.706a20.054,20.054,0,0,1,4.585.53l-.5,6.252a11.26,11.26,0,0,0-3.328-.524c-2.828.048-5.079,1.566-5.019,4.823C373.723,53.974,376.1,55.42,378.974,55.385Z" transform="translate(-148.055 -16.122)"/><path class="d" d="M415.756,51.315c.113,6.222-3.573,10.771-9.795,10.878-6.454.113-10.277-4.728-10.372-10.289-.113-6.139,3.841-10.319,9.92-10.426S415.654,45.361,415.756,51.315Zm-6.585.322c-.048-2.7-1.6-4.49-3.448-4.49s-3.424,1.786-3.376,4.394c.036,2.03,1.107,4.632,3.573,4.591,1.929-.018,3.293-2.1,3.251-4.49Z" transform="translate(-160.043 -16.78)"/><path class="d" d="M483.933,54.918l-1.911.065.214,6.431-7.61.1-.167-23a61.364,61.364,0,0,1,8.658-.851c5.3-.1,10.6,2.054,10.545,8.663S488.256,54.775,483.933,54.918Zm-2.09-6.234,1.786-.065a2.349,2.349,0,0,0,2.471-2.459,2.148,2.148,0,0,0-2.519-2.2l-1.876.131Z" transform="translate(-191.953 -15.238)"/><path class="d" d="M523.125,61.984l-13.385.054-.06-18.286c2.138-.065,4.168-.155,6.294-.244l6.27-.268.268,4.924h-6.9l.036,2.161c.846,0,1.739-.083,5.186-.25l.131,4.531-5.24.1.042,2.239c1.191,0,2.477-.071,7.371-.262Z" transform="translate(-206.202 -17.494)"/><path class="d" d="M611.789,54.476l-6.133.458-1.024,3.507-7.532-.6c1.09-3.573,2.209-7.145,3.424-10.9L603.977,36l8.086-.56,8.479,21.828L612.98,58.4Zm-1.334-5.061-2.1-6.585-1.673,6.776Z" transform="translate(-241.57 -14.338)"/><path class="d" d="M635.29,50.631a23.306,23.306,0,0,0,6.764.119c1.876-.363,2.548-.929,2.286-2.28-.244-1.238-2.019-1.554-4.109-1.888-3.1-.488-6.669-1.191-7.592-5.925-1.066-5.442,2.816-9.527,8.378-10.6a30.558,30.558,0,0,1,7.651-.518l.464,7.145a36.917,36.917,0,0,0-5.9.333c-1.31.262-2.048,1.066-1.864,2.007s1.614,1.28,3.263,1.542c3.221.542,7.109.875,8.253,6.55,1.3,6.448-3.65,9.64-8.5,10.587a28.881,28.881,0,0,1-9,.238Z" transform="translate(-255.877 -11.928)"/><path class="d" d="M570.278,53.081a18.268,18.268,0,0,0,5.359.536c1.477-.161,2.078-.6,1.959-1.649s-1.5-1.364-3.132-1.786c-2.417-.6-5.192-1.381-5.615-5.186-.482-4.376,2.858-7.342,7.324-7.836a24.543,24.543,0,0,1,6.091.089l-.119,5.71a29.064,29.064,0,0,0-4.686-.125c-1.054.119-1.691.709-1.608,1.459s1.191,1.125,2.477,1.441c2.519.637,5.567,1.155,6.1,5.71.6,5.186-3.525,7.383-7.419,7.818a23.109,23.109,0,0,1-7.145-.4Z" transform="translate(-230.121 -14.974)"/><path class="d" d="M434.139,41.252l6.044-.875,4.12,7.639L448.1,40.15l6.038.333,1.953,20.245-6.824.327-.7-10.771-.208-.03L446.9,54.863l-5.049.149-1.405-4.293-.214.06L439.8,61.454H433.21Z" transform="translate(-175.264 -16.244)"/><path class="d" d="M553.9,60.43l-5.954.81-6.115-10.122.083,9.842-6.55-.244.369-19.542,5.954-.524,5.484,9.807.2-.03-.173-9.414c.828,0,2.382.036,3.186.036,1.084.03,2.161.036,3.275.036Z" transform="translate(-216.591 -16.446)"/><path class="d" d="M647.243,264.557c-5.7.965-9.831-2.042-10.718-7.288a8.959,8.959,0,0,1,7.651-10.39c5.847-.994,9.878,1.876,10.789,7.27S652.941,263.592,647.243,264.557Zm-8.8-21.495s-4.257-9.223-5.686-16.773l-3.126-14.356,17.446-3.573,2.084,15.535a114.166,114.166,0,0,1,.4,16.976Z" transform="translate(-254.73 -84.296)"/><path class="e" d="M291.023,41.189l-2.1.048.1,10.271-11.218.054.149-34.4c3.537-.351,10.319-.8,13.361-.8,10.021,0,15.308,4.168,15.308,11.813A12.659,12.659,0,0,1,301.193,38.4l7.931,10.968-10.872,3.573Zm-1.995-8.824c4.585.1,6.681-1.048,6.681-3.573,0-2.048-1.393-3.09-3.793-3.09-1.292,0-2.941.149-2.941.149Z" transform="translate(-112.394 -6.619)"/><path class="f" d="M291.34,16.36c-3.043,0-9.825.447-13.361.8l-.149,34.4h1.87l.143-33.13c3.573-.345,10.325-.8,13.367-.8,4.1,0,6.74.191,9.217,1.542C299.962,17.438,296.568,16.36,291.34,16.36Z" transform="translate(-112.402 -6.619)"/><path class="f" d="M301.092,58.02l-1.072.024,7.229,11.766.905-.3Z" transform="translate(-121.38 -23.473)"/><path class="f" d="M304.595,37.364c0-1.572-.238-2.554-1.709-2.924a3.316,3.316,0,0,1,.435,1.649c.1,2.382-2.036,3.763-6.681,3.573V41.3C301.255,41.377,304.595,39.906,304.595,37.364Z" transform="translate(-120.012 -13.933)"/><path class="e" d="M351.469,59.84,337,58.774,338.441,39c2.3.107,4.507.179,6.818.256l6.788.22-.107,5.359-7.461-.548-.131,2.334c.911.054,1.882.054,5.621.155l-.226,4.906-5.674-.327-.137,2.423c1.31.071,2.679.125,7.985.316Z" transform="translate(-136.341 -15.778)"/><path class="f" d="M339.465,39.806c2.31.107,4.507.179,6.818.256l5.752.185V39.5l-6.788-.22c-2.31-.077-4.513-.149-6.818-.256L337,58.782l1.078.077Z" transform="translate(-136.341 -15.786)"/><path class="f" d="M354.83,52.223l-5.472-.143-.048.744c.822.048,2.614.083,5.49.161Z" transform="translate(-141.321 -21.07)"/><path class="f" d="M348.672,64l-.042.732c1.191.071,3.448.173,7.866.333l.06-.744C352.59,64.179,349.857,64.06,348.672,64Z" transform="translate(-141.046 -25.893)"/><path class="e" d="M521.415,60.314l-13.385.054L508,42.082c2.132-.065,4.168-.149,6.288-.244l6.27-.268.268,4.924h-6.9l.036,2.155c.846,0,1.739-.083,5.186-.244l.137,4.525-5.246.1.042,2.239c1.191,0,2.477-.071,7.371-.262Z" transform="translate(-205.522 -16.818)"/><path class="f" d="M508.954,42.737c2.138-.065,4.168-.155,6.294-.244l5.305-.226-.036-.7-6.27.256c-2.132.1-4.168.179-6.288.244l.054,18.286h1Z" transform="translate(-205.506 -16.818)"/><path class="f" d="M523.089,53.34l-5.049.244v.691c.756,0,2.411-.107,5.061-.238Z" transform="translate(-209.584 -21.58)"/><path class="f" d="M518.24,64.606v.673c1.119,0,3.186-.077,7.264-.238V64.35C521.86,64.493,519.336,64.57,518.24,64.606Z" transform="translate(-209.665 -26.034)"/><path class="e" d="M376.958,53.441a12.087,12.087,0,0,0,3.769-.834c0,1.1.131,2.15.327,6.419a16.933,16.933,0,0,1-5.15,1.012c-6.145.107-11.831-3.233-11.956-10.426-.137-7.621,5.174-11.593,11.968-11.712a20.417,20.417,0,0,1,4.591.536L380,44.688a11.206,11.206,0,0,0-3.328-.53c-2.828.054-5.073,1.566-5.019,4.823C371.719,52.024,374.1,53.488,376.958,53.441Z" transform="translate(-147.242 -15.333)"/><path class="f" d="M387.705,63.731c0-.441-.036-.786-.042-1.131a12.087,12.087,0,0,1-3.769.834,6.485,6.485,0,0,1-2.8-.536,5.7,5.7,0,0,0,3.972,1.3A10.205,10.205,0,0,0,387.705,63.731Z" transform="translate(-154.178 -25.326)"/><path class="f" d="M365.111,50.374c-.137-7.651,5.174-11.593,11.962-11.712a17.97,17.97,0,0,1,3.382.3l.042-.524a20.418,20.418,0,0,0-4.591-.536c-6.794.119-12.105,4.091-11.968,11.712a9.784,9.784,0,0,0,5.037,8.824A9.855,9.855,0,0,1,365.111,50.374Z" transform="translate(-147.238 -15.333)"/><path class="e" d="M413.292,49.535c.107,6.222-3.608,10.765-9.8,10.878-6.448.113-10.271-4.728-10.372-10.295-.107-6.133,3.846-10.313,9.92-10.42C409.2,39.585,413.173,43.539,413.292,49.535Zm-6.591.316c-.042-2.679-1.59-4.513-3.448-4.478s-3.418,1.786-3.376,4.4c.036,2.024,1.113,4.632,3.573,4.591,1.923-.036,3.293-2.114,3.239-4.513Z" transform="translate(-159.044 -16.06)"/><path class="f" d="M414.024,55.015c-.036-2.179-1.06-3.793-2.435-4.3a5.109,5.109,0,0,1,1.352,3.573c.048,2.382-1.316,4.478-3.257,4.513a3.013,3.013,0,0,1-1.113-.191,2.918,2.918,0,0,0,2.2.893C412.708,59.493,414.066,57.432,414.024,55.015Z" transform="translate(-165.296 -20.516)"/><path class="f" d="M394.182,50.82c-.107-6.139,3.841-10.319,9.92-10.426a10.98,10.98,0,0,1,5.543,1.262,10.426,10.426,0,0,0-6.627-1.965c-6.073.107-10.027,4.287-9.92,10.42a10.324,10.324,0,0,0,5.067,9.039,10.527,10.527,0,0,1-3.983-8.33Z" transform="translate(-159.036 -16.053)"/><path class="e" d="M482.461,52.79l-1.911.071.214,6.431-7.6.1L473,36.416a61.928,61.928,0,0,1,8.669-.857c5.293-.089,10.593,2.06,10.545,8.663S486.784,52.647,482.461,52.79Zm-2.09-6.252,1.786-.065a2.349,2.349,0,0,0,2.471-2.459,2.15,2.15,0,0,0-2.519-2.2l-1.876.137Z" transform="translate(-191.362 -14.385)"/><path class="f" d="M490.952,49.754A2.054,2.054,0,0,0,489.3,47.64a2.149,2.149,0,0,1,.375,1.286,2.3,2.3,0,0,1-2.471,2.459l-1.786.065v.875l3.061-.113A2.554,2.554,0,0,0,490.952,49.754Z" transform="translate(-196.387 -19.274)"/><path class="f" d="M474.256,37.2a61.388,61.388,0,0,1,8.669-.851c2.3-.042,3.638-.322,5.5.667-2.018-1.6-3.912-1.548-6.77-1.5a61.926,61.926,0,0,0-8.657.875l.173,23h1.262Z" transform="translate(-191.362 -14.363)"/><path class="e" d="M609.689,52.078l-6.133.458-1.03,3.507-7.526-.6c1.09-3.573,2.209-7.175,3.424-10.908l3.453-10.92,8.086-.56,8.479,21.8-7.562,1.191Zm-1.34-5.067-2.132-6.585-1.691,6.77Z" transform="translate(-240.72 -13.375)"/><path class="f" d="M615.391,49.482l1.155,3.561-2.06.107-.256,1.042,3.8-.191L615.9,47.41Z" transform="translate(-248.5 -19.181)"/><path class="f" d="M599.912,45.54,603.366,34.6l7-.482-.4-1.03-8.086.542L598.424,44.57C597.233,48.3,596.09,51.906,595,55.478l1.739.131C597.751,52.3,598.787,48.964,599.912,45.54Z" transform="translate(-240.72 -13.387)"/><path class="f" d="M621.633,65.75l-1.173.089.875,2.906,1.149-.179Z" transform="translate(-251.02 -26.601)"/><path class="e" d="M633.271,48.261a23.347,23.347,0,0,0,6.77.119c1.876-.363,2.549-.929,2.286-2.28-.244-1.238-2.024-1.554-4.114-1.888-3.1-.488-6.663-1.191-7.592-5.925-1.06-5.442,2.822-9.527,8.378-10.6a30.623,30.623,0,0,1,7.657-.518l.464,7.145a36.821,36.821,0,0,0-5.9.339c-1.316.256-2.054,1.06-1.87,2s1.614,1.28,3.263,1.542c3.227.542,7.109.875,8.259,6.55,1.3,6.454-3.656,9.64-8.5,10.587a28.881,28.881,0,0,1-9,.238Z" transform="translate(-255.061 -10.969)"/><path class="f" d="M655.613,47.557c-1.7-1.471-3.93-1.727-5.919-2.06a14.964,14.964,0,0,1-1.745-.357c.381.774,1.685,1.054,3.18,1.286a16.814,16.814,0,0,1,4.484,1.131Z" transform="translate(-262.142 -18.262)"/><path class="f" d="M636.625,61.795a23.3,23.3,0,0,0,6.764.119c1.876-.363,2.548-.929,2.286-2.28-.137-.685-.738-1.084-1.6-1.364a1.327,1.327,0,0,1,.173.435c.262,1.352-.447,1.917-2.286,2.28a23.365,23.365,0,0,1-6.77-.119l.107,7.306a12.861,12.861,0,0,0,1.417.185Z" transform="translate(-256.98 -23.574)"/><path class="f" d="M632.056,39.216c-1.066-5.442,2.816-9.527,8.372-10.6a30.665,30.665,0,0,1,6.288-.56l-.059-.887a30.623,30.623,0,0,0-7.657.518c-5.555,1.09-9.437,5.162-8.378,10.6a6.272,6.272,0,0,0,3.531,4.847,6.6,6.6,0,0,1-2.1-3.918Z" transform="translate(-255.061 -10.969)"/><path class="e" d="M568.838,51.081a18.274,18.274,0,0,0,5.359.542c1.483-.167,2.078-.566,1.959-1.655-.113-.994-1.495-1.364-3.132-1.786-2.417-.6-5.192-1.381-5.615-5.186-.482-4.376,2.858-7.342,7.324-7.836a24.543,24.543,0,0,1,6.091.089l-.113,5.71a29.176,29.176,0,0,0-4.692-.125c-1.054.119-1.691.709-1.608,1.465s1.191,1.119,2.477,1.435c2.519.637,5.567,1.155,6.1,5.71.6,5.186-3.525,7.389-7.419,7.818a23.109,23.109,0,0,1-7.145-.4Z" transform="translate(-229.539 -14.165)"/><path class="f" d="M586.995,51.421c-1.239-1.274-2.977-1.62-4.543-2.013a12.844,12.844,0,0,1-1.352-.4c.244.637,1.256.941,2.423,1.227a13.166,13.166,0,0,1,3.471,1.185Z" transform="translate(-235.096 -19.828)"/><path class="f" d="M570.633,61.824a18.274,18.274,0,0,0,5.359.542c1.477-.167,2.078-.566,1.959-1.655-.065-.548-.512-.905-1.191-1.191a1.191,1.191,0,0,1,.107.357c.119,1.09-.476,1.489-1.959,1.655a18.274,18.274,0,0,1-5.359-.542l-.4,5.788a9.8,9.8,0,0,0,1.113.238Z" transform="translate(-230.262 -24.08)"/><path class="f" d="M568.452,43.889c-.482-4.376,2.858-7.348,7.324-7.842a23.936,23.936,0,0,1,5.008,0v-.709a24.544,24.544,0,0,0-6.091-.089c-4.466.494-7.806,3.459-7.324,7.836a4.972,4.972,0,0,0,2.477,4.067,5.251,5.251,0,0,1-1.393-3.263Z" transform="translate(-229.522 -14.201)"/><path class="e" d="M431.135,38.962l6.044-.875,4.126,7.645L445.1,37.86l6.032.339,1.953,20.245-6.818.339-.715-10.8h-.2L443.889,52.6l-5.049.143-1.405-4.287-.238.036-.435,10.676-6.591-.036Z" transform="translate(-174.035 -15.317)"/><path class="f" d="M432.564,40.139l5.24-.756-.613-1.143-6.044.875L430.2,59.265l1.465.006Z" transform="translate(-174.047 -15.471)"/><path class="f" d="M450.562,46.756l3.787-7.872,4.716.262-.1-.947-6.032-.339-3.388,7.026Z" transform="translate(-181.875 -15.317)"/><path class="e" d="M552.134,58.424l-5.954.81-6.133-10.087.083,9.842-6.55-.25.375-19.542,5.954-.518,5.484,9.8h.2l-.173-9.414c.828,0,2.382.036,3.185.036,1.084,0,2.161.036,3.275.042Z" transform="translate(-215.871 -15.649)"/><path class="f" d="M554.683,49.515h.2l-.173-9.42,3.186.042h2.042v-.78c-1.113,0-2.191,0-3.275-.042-.8,0-2.382-.036-3.185-.036l.149,8.336Z" transform="translate(-223.922 -15.892)"/><path class="f" d="M546.52,57.59l.012,1.268,4.859,8.026.7-.1Z" transform="translate(-221.106 -23.299)"/><path class="f" d="M535.154,39.992l5.222-.458-.482-.863-5.978.524-.375,19.542,1.256.048Z" transform="translate(-215.855 -15.645)"/><path class="e" d="M298.292,218.063c0,5.472-3.5,8.967-9.426,8.967a8.96,8.96,0,0,1-9.277-8.967c0-5.317,3.573-8.973,9.354-8.973S298.292,212.609,298.292,218.063Zm-3.114,13.987a113.691,113.691,0,0,1,2.435,16.8l.53,15.666-17.791-.6.685-14.677c.149-7.681,2.81-17.488,2.81-17.488Z" transform="translate(-113.114 -84.592)"/><path class="f" d="M284.818,226.159a8.711,8.711,0,0,1-2.685-6.4c0-5.323,3.573-8.973,9.354-8.973a11.152,11.152,0,0,1,4.43.851,9.531,9.531,0,0,0-6.943-2.536c-5.782,0-9.354,3.65-9.354,8.973A8.723,8.723,0,0,0,284.818,226.159Z" transform="translate(-113.126 -84.596)"/><path class="f" d="M284.11,266.325c.155-7.675,2.816-17.47,2.816-17.47l9.158.25c-.208-1.024-.345-1.631-.345-1.631l-11.313-.3s-2.662,9.807-2.81,17.488l-.685,14.677,2.59.089Z" transform="translate(-113.656 -99.998)"/><path class="e" d="M345.911,241.82l-.4-13.189,17.226-.875-.637,28.414a77.537,77.537,0,0,1-17.779,2.858c-15.392,0-29.837-8.574-29.771-26.794.077-19.685,15.32-30.635,34.684-30.635a56.69,56.69,0,0,1,12.456,1.268c-.554,5.24-1.268,10.48-1.9,15.713a35.8,35.8,0,0,0-9.366-1.346c-9.765,0-16.827,4.918-16.428,13.409C334.4,238.4,338.766,241.974,345.911,241.82Z" transform="translate(-127.258 -81.56)"/><path class="f" d="M317.4,234.079c.077-19.685,15.314-30.635,34.678-30.635a59.8,59.8,0,0,1,9.527.709c.048-.441.1-.875.143-1.316a56.691,56.691,0,0,0-12.456-1.268c-19.363,0-34.606,10.95-34.684,30.635-.048,10.843,5.037,18.274,12.4,22.513C321.177,250.3,317.361,243.5,317.4,234.079Z" transform="translate(-127.282 -81.548)"/><path class="f" d="M363.858,247.649l.4,13.171a14.07,14.07,0,0,1-5.907-.988c2.042,2.007,5,2.977,8.717,2.864l-.393-13.171,13.165-.47.048-2.024Z" transform="translate(-144.978 -99.941)"/><path class="e" d="M429.994,241.869l-12.182.7-2.155,6.913-14.886-1.393c2.281-7.044,4.626-14.147,7.145-21.507l7.234-21.566,16.047-.822L447.273,247.7l-15.035,2.03Zm-2.477-10.087-3.983-13.129-3.573,13.409Z" transform="translate(-162.14 -82.609)"/><path class="f" d="M441.741,236.639l2.161,7.1-4.085.137-.548,2.066,7.55-.256-4-13.129Z" transform="translate(-177.716 -94.087)"/><path class="f" d="M410.833,228.525l7.234-21.566,13.891-.715-.762-2.054-16.047.822-7.234,21.566c-2.536,7.359-4.882,14.463-7.145,21.507l3.442.322C406.313,241.9,408.493,235.319,410.833,228.525Z" transform="translate(-162.14 -82.609)"/><path class="f" d="M453.708,269.11l-2.328.131,1.631,5.788,2.281-.31Z" transform="translate(-182.615 -108.874)"/><path class="e" d="M516.926,251.686l-13.748,1.608-13.623-23.406-.208,22.626-15.076-.834,1.626-44.871,13.737-.959,12.224,22.716.458-.054V206.9c1.893.036,5.484.179,7.312.214,2.477.119,4.96.167,7.508.22Z" transform="translate(-191.876 -83.281)"/><path class="f" d="M523.72,231.185l.458-.06v-21.62c1.893.036,5.484.179,7.312.214,1.554.077,3.114.119,4.68.161v-1.786c-2.548-.054-5.031-.1-7.508-.22-1.828-.036-5.418-.179-7.312-.214v19.161Z" transform="translate(-210.923 -84.013)"/><path class="f" d="M504.644,249.37l-.024,2.912L515.457,270.9l1.608-.191Z" transform="translate(-204.155 -100.888)"/><path class="f" d="M478.736,208.684l12-.834-1.072-2-13.742.959L474.27,251.65l2.882.155Z" transform="translate(-191.876 -83.281)"/><path class="e" d="M582.163,241.11l-12.218.726-2.167,6.937-14.957-1.4c2.292-7.068,4.65-14.2,7.193-21.578l7.258-21.638,16.077-.828,16.077,43.663-15.035,1.989Zm-2.483-10.122-4.007-13.177L572.1,231.238Z" transform="translate(-223.655 -82.261)"/><path class="f" d="M562.829,227.631l7.252-21.638,14.022-.72-.732-1.983-16.077.828-7.282,21.626c-2.542,7.383-4.9,14.511-7.193,21.578l3.328.31C558.286,241.088,560.471,234.473,562.829,227.631Z" transform="translate(-223.655 -82.245)"/><path class="f" d="M594.029,235.536l2.239,7.359-4.233.143-.524,1.989,7.574-.256L595.077,231.6Z" transform="translate(-239.308 -93.699)"/><path class="f" d="M605.821,268.23l-2.251.131,1.661,5.883,2.2-.3Z" transform="translate(-244.187 -108.518)"/><path class="e" d="M641.789,262.047c-5.7.959-9.831-2.042-10.718-7.288a8.967,8.967,0,0,1,7.651-10.4c5.847-.988,9.878,1.876,10.789,7.276S647.487,261.082,641.789,262.047Zm-8.777-21.495s-4.257-9.229-5.692-16.773l-3.12-14.356,17.44-3.573,2.09,15.57a113.747,113.747,0,0,1,.4,16.976Z" transform="translate(-252.534 -83.281)"/><path class="f" d="M639.418,273.13a8.711,8.711,0,0,0-1.578,6.764c.887,5.246,5.019,8.253,10.718,7.288a11.158,11.158,0,0,0,4.222-1.578,9.511,9.511,0,0,1-6.419,3.662c-5.7.959-9.831-2.042-10.718-7.288a8.723,8.723,0,0,1,3.775-8.848Z" transform="translate(-257.105 -110.501)"/><path class="f" d="M629.493,223.77c1.435,7.55,5.692,16.773,5.692,16.773l8.991-1.786c-.036,1.048-.071,1.667-.071,1.667l-11.093,2.2s-4.257-9.229-5.692-16.773L624.2,211.5l2.537-.518Z" transform="translate(-252.534 -85.356)"/><path class="g" d="M48.694,195.54a321.28,321.28,0,0,0-32.451,4.239c-2.977,10.6-4.287,23.424,1.113,34.106,23-8.931,26.1-14.755,35.41-15.106C63.675,218.375,48.694,195.54,48.694,195.54Z" transform="translate(-5.526 -79.11)"/><path class="g" d="M65.015,186.52c-1.679-9.187-2.715-18.458-2.03-27.61.155-.06.322-.113.464-.173,8.247-3.257,13.373-15.225,13.373-15.225L86.844,124.03l6.431-11.212,7.621-4.168-2.525,13.481,3.031-.1,10.652-13.344s5.668-.887,3.263,6.341a123.173,123.173,0,0,1-6.395,14.939s4.722,6.407,6.585,9.217,1.834,9.2,1.834,9.2l-4.722,8.479s-9.461,21.531-18.268,22.739C86.826,180.613,77.156,181.679,65.015,186.52Z" transform="translate(-25.395 -43.957)"/><path class="h" d="M86.565,164.143a13.241,13.241,0,0,0,6.079-5.728c2.507-4.382,4.817-8.187,4.43-14.886a19.75,19.75,0,0,1,5.889-15.035c3.078-3.078,13.695-18.059,12.135-20.983-2.638-5.019-7.473,4.531-12.4,11.4S88.87,129.352,85.97,131.561s-13.963,19.762-15.219,21.948c-.84,1.465-2.221,4.37-7.961,6.859,0-2.108.1-4.2.286-6.306a15.481,15.481,0,0,0,5.2-3.614c5-5.859,13.5-22.96,16.749-31.457s15.743-17.768,15.743-17.768l2.149-1.864-2.84,7.627-4.763,4.353c-4.763,4.353-7.889,12.6-7.854,14.243s1.471.857,1.471.857,13.48-11.5,17.321-15.993c4.894-5.74,6.323-10.825,10.253-6.276s-4,15.88-9.527,24.353-4.531,11.313-7.562,22.841S86.565,164.143,86.565,164.143Z" transform="translate(-25.403 -40.198)"/><path class="h" d="M83.6,208.057c-8.705,2.078-15.052.649-24.228,6.383-.423.262-14.463,5.9-15.029,6.181-.322-1.7,12.9-8.765,12.623-10.462,10.355-4.138,16.428-7.431,21.727-7.187,6.05.268,12.974-1.542,18.732-12.141s12.462-15.481,12.462-15.481l-.167,5.418a53.051,53.051,0,0,0-7.961,11.587C97.679,200.036,92.308,205.985,83.6,208.057Z" transform="translate(-17.939 -70.942)"/><path class="i" d="M146.552,178.078a6.591,6.591,0,0,0,5.859,7.145l56.8,6.056a6.413,6.413,0,0,0,7.086-5.77l3.168-33.344a6.585,6.585,0,0,0-5.853-7.145l-56.8-6.056a6.413,6.413,0,0,0-7.086,5.77Z" transform="translate(-59.28 -56.205)"/><path class="j" d="M150.45,160.706l69.022,7.354.893-9.33-69.028-7.359Z" transform="translate(-60.868 -61.24)"/><path class="k" d="M220.318,186.136l3.168-33.4a6.585,6.585,0,0,0-5.859-7.145l-56.8-6.061a6.4,6.4,0,0,0-3.328.56,6.4,6.4,0,0,1,4.085-.959l56.8,6.056a6.585,6.585,0,0,1,5.853,7.145l-3.168,33.344a6.371,6.371,0,0,1-3.757,5.216A6.365,6.365,0,0,0,220.318,186.136Z" transform="translate(-63.72 -56.273)"/><path class="l" d="M208.553,173.709c-4.984-14.338-14.63-25.7-20.733-31.879l42.746,4.555a6.585,6.585,0,0,1,5.853,7.145l-3.168,33.344a6.419,6.419,0,0,1-7.086,5.776l-11.778-1.256C213.269,187.708,211.47,182.117,208.553,173.709Z" transform="translate(-75.987 -57.38)"/><path class="m" d="M159.843,147a6.55,6.55,0,0,0,9.128,1.3L214.224,114.1a6.472,6.472,0,0,0,1.191-9.1L194.926,78.144a6.55,6.55,0,0,0-9.11-1.3l-45.253,34.2a6.472,6.472,0,0,0-1.191,9.1Z" transform="translate(-55.84 -30.569)"/><path class="j" d="M147.928,131.7,202.9,90.128l-5.716-7.508L142.2,124.193Z" transform="translate(-57.53 -33.426)"/><path class="n" d="M215.854,105.606l-20.465-26.86a6.55,6.55,0,0,0-9.116-1.3L141.02,111.656a6.276,6.276,0,0,0-2.03,2.673,6.341,6.341,0,0,1,2.3-3.489l45.253-34.2a6.514,6.514,0,0,1,9.1,1.3l20.471,26.854c1.459,1.917,1.316,5,.47,7.062C217.086,109.982,217.128,107.291,215.854,105.606Z" transform="translate(-56.231 -30.481)"/><path class="o" d="M197.834,112c-13.379-7.223-28.11-9.056-36.744-9.467L195.143,76.79a6.514,6.514,0,0,1,9.1,1.3l20.5,26.878a6.478,6.478,0,0,1-1.191,9.092l-9.384,7.1C210.8,119.143,205.694,116.231,197.834,112Z" transform="translate(-65.172 -30.543)"/><path class="p" d="M155.01,108.591a6.443,6.443,0,0,0,8.306-3.852l19.119-53.493a6.55,6.55,0,0,0-3.948-8.336L146.847,31.281a6.419,6.419,0,0,0-8.3,3.835l-19.125,53.5a6.579,6.579,0,0,0,3.948,8.336Z" transform="translate(-48.166 -12.489)"/><path class="j" d="M137.824,101.606l23.228-65.015L152.21,33.34,128.97,98.361Z" transform="translate(-52.178 -13.488)"/><path class="q" d="M178.755,43.087l-31.409-11.5a6.419,6.419,0,0,0-8.265,3.864L119.9,88.923a6.484,6.484,0,0,0-.238,3.358,6.443,6.443,0,0,1,0-4.168l19.179-53.469a6.413,6.413,0,0,1,8.271-3.912l31.415,11.492A6.514,6.514,0,0,1,182.7,47.19a6.466,6.466,0,0,0-3.942-4.1Z" transform="translate(-48.273 -12.274)"/><path class="r" d="M163.321,63.258c-15.076,1.155-28.348,7.592-35.761,11.909l14.386-40.257a6.425,6.425,0,0,1,8.3-3.846L181.887,42.7a6.55,6.55,0,0,1,3.948,8.336l-3.966,11.1C178,62.263,172.164,62.579,163.321,63.258Z" transform="translate(-51.607 -12.402)"/><path class="s" d="M211.125,149.31l-36.643,27.943s-4.561,3.5-7.24,2.126a13.582,13.582,0,0,1-4.376-3.811l-13.1-17.077-2.126,21,3.459-13.3s10.122,14.2,12.73,16.273,4.591,2.483,11.146-2.578S211.125,149.31,211.125,149.31Z" transform="translate(-59.731 -60.407)"/><path class="t" d="M139.28,117.937l24.609,9.235a6.647,6.647,0,0,0,7.61-4.114c2.435-5.436,16.743-46.908,16.743-46.908l-15.826,49.825s-2.179,5.073-8.9,4.061-21.251-7.467-21.251-7.467S139.441,120.2,139.28,117.937Z" transform="translate(-56.349 -30.808)"/><path class="g" d="M122.805,132.574s7.562-9.574,10.718-14.886,2.185-8.086,1.191-9.3-2.608-.6-4.484,2.65-6.818,8.729-9.289,11.909a81.344,81.344,0,0,1-8.151,8.128Z" transform="translate(-45.632 -43.617)"/><path class="h" d="M123.816,130.634s8.61-10.509,10.992-15.785,1.995-7.3,1.191-8.145-2.382-.363-3.817,2.138-6.437,8.306-9.682,11.909-3.948,4.621-4.46,4.841-2.28-2.1-2.28-2.1a125.637,125.637,0,0,0,11.14-11.081c3.852-4.68,6.425-8.05,7.824-8.931s4.228,1.191,4.436,4.626-3.733,9.676-6.877,14.147c-6.056,8.663-6,11.164-6.853,11.867-.732.6,1.316-4.1,1.316-4.1Z" transform="translate(-46.833 -41.784)"/><path class="u" d="M134.517,140.43s-4.46,6.294-5.686,10.462-1.221,7.741-2,11.14-.81,3.876-.81,3.876l2.048-6.5s1.441,1.995,4.49,6.55,3.257,10.718,3.257,10.718l1.864-3.918,1.131-1.524,2.185-16.4L133.314,144.6l1.161-1.119a5.818,5.818,0,0,1,.042-3.049Z" transform="translate(-50.984 -56.814)"/><path class="u" d="M119.836,100.33s-5.686,15.594-6.1,17.506.137,2.382.137,2.382l-4.9,4.037s-.149-.22-1.989-4.126a11.044,11.044,0,0,1-1.155-6.746S115.644,102.89,119.836,100.33Z" transform="translate(-42.763 -40.591)"/><path class="v" d="M132.2,152c0,.375,1.554-1.524,3.2.107s5.252,7.913,5.252,7.913l.655,13.1,2.185-16.4s-7.687-9.729-7.08-10.956l-1.191-.816S132.26,150.007,132.2,152Z" transform="translate(-53.484 -58.639)"/><path class="v" d="M123.4,100.33s-5.805,12.016-7.211,16.595-1.685,5.77-1.685,5.77l2.93-2.483s-.417-1.191,1.34-6.371S123.4,100.33,123.4,100.33Z" transform="translate(-46.323 -40.591)"/><path class="t" d="M146.061,104.09s3.775,3.132.6,9.384a128.526,128.526,0,0,1-9.336,14.534l2.215.25s9.229-8.265,10.426-16.749S144.376,103,144.376,103A6.478,6.478,0,0,1,146.061,104.09Z" transform="translate(-55.556 -41.671)"/><path class="t" d="M133.228,107.3s-4.335,5.18-8.4,9.426-4.96,5.085-4.763,4.257,2.846-4.013,8.265-9.908,7.6-7.08,7.6-7.08Z" transform="translate(-48.564 -42.075)"/><path class="w" d="M121.51,162.13s-1.977,12.123-6.294,18.565-5.686,7.187-5.686,7.187S121.337,183.018,121.51,162.13Z" transform="translate(-44.313 -65.593)"/><path class="h" d="M50.8,229.83l-34.225,13.1a31.314,31.314,0,0,0,2.042,4.978A332.23,332.23,0,0,0,50.39,234.891l1.947-4.168Z" transform="translate(-6.704 -92.983)"/><path class="h" d="M15.28,204.181A251.868,251.868,0,0,0,41.806,197.8a17.374,17.374,0,0,0,4.609-2.84s3.531-7.657-.155-5.275c-2.62,1.691-16.672,5.359-29.462,7.842C16.209,199.655,15.709,201.894,15.28,204.181Z" transform="translate(-6.182 -76.557)"/><path class="a" d="M222.523,32.206a6.758,6.758,0,0,0,2.161-.441c0,.631.054,1.233.125,3.674a9.616,9.616,0,0,1-2.977.524c-3.507,0-6.722-1.965-6.722-6.073,0-4.353,3.072-6.55,6.955-6.55a11.658,11.658,0,0,1,2.614.351l-.351,3.573a6.306,6.306,0,0,0-1.893-.333,2.6,2.6,0,0,0-2.918,2.7C219.54,31.349,220.892,32.206,222.523,32.206Z" transform="translate(-87.027 -9.443)"/><path class="a" d="M244.4,29.323c0,3.829-2.34,6.585-6.145,6.585a6.126,6.126,0,0,1-6.27-6.443,5.915,5.915,0,0,1,6.216-6.306A5.835,5.835,0,0,1,244.4,29.323Zm-4.061.125c-.012-1.62-.929-2.81-2.066-2.81s-2.114,1.072-2.114,2.685c0,1.25.631,2.864,2.138,2.864,1.185,0,2.03-1.262,2.03-2.739Z" transform="translate(-93.857 -9.37)"/><path class="a" d="M265.572,35.475l-3.686.512-3.793-6.216.071,6.073-4.055-.137.191-12.063,3.686-.333,3.406,6.038h.125l-.125-5.811h3.989Z" transform="translate(-102.806 -9.431)"/><path class="a" d="M122.2,249.4l-3.835.22-.679,2.179-4.692-.441c.72-2.215,1.459-4.454,2.257-6.77l2.275-6.764,5.055-.262,5.055,13.695-4.763.637Zm-.78-3.174-1.274-4.132-1.119,4.216Z" transform="translate(-45.713 -96.11)"/><path class="a" d="M145.517,247.486a7.836,7.836,0,0,0,2.459-.5c0,.72.06,1.4.137,4.168a10.962,10.962,0,0,1-3.352.6c-4,0-7.651-2.239-7.651-6.913,0-4.954,3.5-7.467,7.907-7.467a13.219,13.219,0,0,1,2.977.4l-.4,4.055a7.3,7.3,0,0,0-2.155-.381c-1.84,0-3.317.959-3.317,3.078C142.124,246.51,143.66,247.486,145.517,247.486Z" transform="translate(-55.471 -96.033)"/><path class="a" d="M162.68,237.895l-.06,8.205c0,.959.518,1.786,1.495,1.786a1.71,1.71,0,0,0,1.578-1.9v-8.11l4.615-.137.155,7.711c.083,4.049-2.036,6.508-6.371,6.508S158,249.273,158,246.136c0-1.358,0-2.757.1-8.336Z" transform="translate(-63.922 -96.183)"/><path class="a" d="M182.3,238l4.091-.518,2.7,5.216,2.656-5.275,4.079.3,1.078,13.695-4.615.143-.339-7.288H191.8l-1.036,3.1-3.418.042-.893-2.918H186.3l-.423,7.211-4.454-.1Z" transform="translate(-73.397 -96.053)"/><path class="a" d="M214.478,237.895l-.06,8.205c0,.959.518,1.786,1.5,1.786a1.707,1.707,0,0,0,1.578-1.9v-8.11l4.615-.137.161,7.711c.077,4.049-2.036,6.508-6.371,6.508s-6.091-2.656-6.091-5.794c0-1.358,0-2.757.1-8.336Z" transform="translate(-84.883 -96.183)"/><path class="a" d="M238.728,237.59l-.185,9.807,4.615-.1-.322,4.335-9.086-.1.28-13.862Z" transform="translate(-94.569 -96.122)"/><path class="a" d="M259.565,249.4l-3.835.22-.679,2.179-4.692-.441c.72-2.215,1.459-4.454,2.257-6.77l2.292-6.764,5.055-.262,5.049,13.695-4.746.619Zm-.78-3.174-1.256-4.132-1.119,4.216Z" transform="translate(-101.289 -96.11)"/><path class="a" d="M121.1,278.795h-1.191l.06,4.049H115.21l.149-14.463a39.121,39.121,0,0,1,5.46-.441c3.334,0,6.645,1.411,6.55,5.567S123.82,278.747,121.1,278.795Zm-1.256-3.948h1.137a1.477,1.477,0,0,0,1.578-1.518,1.375,1.375,0,0,0-1.56-1.417l-1.191.065Z" transform="translate(-46.611 -108.401)"/><path class="a" d="M142.826,268.413l-.065,8.663a1.666,1.666,0,0,0,1.584,1.882,1.8,1.8,0,0,0,1.667-2.007v-8.562l4.871-.149.167,8.145c.089,4.275-2.15,6.871-6.722,6.871s-6.437-2.8-6.437-6.115c0-1.435,0-2.912.107-8.771Z" transform="translate(-55.786 -108.522)"/><path class="a" d="M176.946,282.558l-4.424.6-4.555-7.425.083,7.294-4.871-.167.232-14.487,4.424-.4,4.091,7.252h.149l-.149-6.978h4.805Z" transform="translate(-66.018 -108.413)"/><path class="a" d="M197.17,272.451l.191,10.569-2.572.083c-.863.042-1.691.065-2.554.083l.125-10.652-3.769.131.06-4.347,12.022-.149.107,4.239Z" transform="translate(-76.298 -108.494)"/><path class="a" d="M224.55,275.151c0,4.6-2.8,7.907-7.377,7.907-4.763,0-7.532-3.626-7.532-7.741,0-4.531,2.977-7.568,7.467-7.568S224.55,270.721,224.55,275.151Zm-4.871.149c0-1.983-1.119-3.352-2.489-3.352s-2.548,1.262-2.548,3.2c0,1.495.756,3.436,2.572,3.436C218.643,278.617,219.679,277.068,219.679,275.3Z" transform="translate(-84.814 -108.324)"/><path class="a" d="M236.69,278.341a12.61,12.61,0,0,0,3.644.78c1.036,0,1.477-.232,1.477-.988s-.929-1.054-2.024-1.459c-1.62-.6-3.477-1.346-3.477-4,0-3.061,2.531-4.853,5.651-4.853a17.2,17.2,0,0,1,4.168.524l-.506,3.924a20.524,20.524,0,0,0-3.227-.441c-.738,0-1.221.357-1.221.887s.732.863,1.6,1.191c1.685.631,3.751,1.221,3.775,4.406,0,3.626-2.977,4.829-5.716,4.829a16.008,16.008,0,0,1-4.894-.822Z" transform="translate(-95.455 -108.352)"/><path class="a" d="M261.3,271.78h1.935l2.233,9.062h.042l1.983-9.056h1.965l-3.293,12.034c-.423,1.56-.887,2.977-3.013,2.977a11.917,11.917,0,0,1-1.286-.065v-1.387a6.678,6.678,0,0,0,1.03.06,1.375,1.375,0,0,0,1.393-1.1l.339-.988Z" transform="translate(-105.715 -109.954)"/><path class="x" d="M17.391,237.105s-7.7-9.914-1.292-33.975C16.1,203.13,29.711,220.118,17.391,237.105Z" transform="translate(-5.483 -82.181)"/></g></g></svg>