<svg xmlns="http://www.w3.org/2000/svg" xmlns:xlink="http://www.w3.org/1999/xlink" width="58" height="58" viewBox="0 0 58 58"><defs><style>.a{fill:#fff;}.b{fill:none;stroke:#000;stroke-linecap:round;stroke-linejoin:round;stroke-width:2px;}.c{filter:url(#a);}</style><filter id="a" x="0" y="0" width="58" height="58" filterUnits="userSpaceOnUse"><feOffset dy="3" input="SourceAlpha"/><feGaussianBlur stdDeviation="3" result="b"/><feFlood flood-opacity="0.161"/><feComposite operator="in" in2="b"/><feComposite in="SourceGraphic"/></filter></defs><g transform="translate(9 6)"><g class="c" transform="matrix(1, 0, 0, 1, -9, -6)"><circle class="a" cx="20" cy="20" r="20" transform="translate(9 6)"/></g><g transform="translate(8.735 7.157)"><path class="b" d="M29.4,31.276V28.351A5.851,5.851,0,0,0,23.553,22.5h-11.7A5.851,5.851,0,0,0,6,28.351v2.925" transform="translate(-6 -7.443)"/><path class="b" d="M23.7,10.351A5.851,5.851,0,1,1,17.851,4.5,5.851,5.851,0,0,1,23.7,10.351Z" transform="translate(-6.149 -4.5)"/></g></g></svg>