<svg xmlns="http://www.w3.org/2000/svg" xmlns:xlink="http://www.w3.org/1999/xlink" width="518.9" height="74.7" viewBox="0 0 518.9 74.7"><defs><style>.a{fill:url(#a);}</style><linearGradient id="a" x1="0.361" y1="0.367" x2="0.368" y2="1" gradientUnits="objectBoundingBox"><stop offset="0" stop-color="#2aa4d5"/><stop offset="1" stop-color="#0fe"/></linearGradient></defs><path class="a" d="M210.3,60.3V60c4.8-2.8,7.5-7.2,7.5-13.7,0-11.9-8.6-19.3-25.5-19.3H166.8V97h28.1c18.3,0,25.8-8.9,25.8-21.3C220.7,68.4,217,63.2,210.3,60.3ZM191.4,40.5c5.9,0,9.2,2.5,9.2,7.6,0,4.5-3,7.6-9.2,7.6H184V40.5Zm2.6,43H184V67.4h10c6.1,0,9.3,2.8,9.3,7.6S200.4,83.5,194,83.5ZM229.2,97h16.2V46.3H229.2Zm8.1-56.3a8.579,8.579,0,0,0,8.5-8.6,8.5,8.5,0,0,0-17,0A8.579,8.579,0,0,0,237.3,40.7Zm42.3,4.4a26.188,26.188,0,0,0-26.2,26.6c0,15.8,11.4,26.6,28.5,26.6,9.9,0,17.7-4.4,21.8-10.7l-11.4-6.8a13.714,13.714,0,0,1-10.4,4.4c-6.2,0-11-2.7-12.7-8.6h36.6C307.8,55.3,294.6,45.1,279.6,45.1ZM269.2,66.8c1.5-5.6,5.8-8.6,10.9-8.6,5.6,0,9.8,2.7,11,8.6Zm75-21.7c-6.6,0-11,2.6-13.9,5.9V46.3H314.1V97h16.2V69.7c0-5.6,3.4-8.7,8.1-8.7,4.5,0,8.1,2.9,8.1,8.7V97h16.3V65.3C362.8,55.1,356.8,45.1,344.2,45.1Zm61,1.2L394.9,78.7,384.6,46.3H367.3L387,97h15.7l19.7-50.7Zm44.9-1.2a26.188,26.188,0,0,0-26.2,26.6c0,15.8,11.4,26.6,28.5,26.6,9.9,0,17.7-4.4,21.8-10.7l-11.4-6.8a13.714,13.714,0,0,1-10.4,4.4c-6.2,0-11-2.7-12.7-8.6h36.6C478.3,55.3,465.1,45.1,450.1,45.1ZM439.7,66.8c1.5-5.6,5.8-8.6,10.9-8.6,5.6,0,9.8,2.7,11,8.6Zm75-21.7c-6.6,0-11,2.6-13.9,5.9V46.3H484.6V97h16.2V69.7c0-5.6,3.4-8.7,8.1-8.7,4.5,0,8.1,2.9,8.1,8.7V97h16.3V65.3C533.3,55.1,527.3,45.1,514.7,45.1ZM544.3,97h16.2V46.3H544.3Zm8.1-56.3a8.579,8.579,0,0,0,8.5-8.6,8.5,8.5,0,0,0-17,0A8.579,8.579,0,0,0,552.4,40.7ZM607.1,27V51.3c-3-3.6-7.5-6.2-14.3-6.2-15.8,0-24.3,13.3-24.3,26.6s8.5,26.6,24.3,26.6c6.8,0,11.3-2.6,14.3-6.2V97h16.2V27ZM595.7,82.5c-6.7,0-10.8-4.6-10.8-10.8,0-6.3,4.1-10.9,10.8-10.9,6.1,0,10.9,4.1,10.9,10.9C606.6,78.4,601.8,82.5,595.7,82.5Zm62.8-37.4c-15.8,0-27.2,11.5-27.2,26.6,0,15,11.4,26.6,27.2,26.6,15.9,0,27.2-11.6,27.2-26.6C685.7,56.6,674.4,45.1,658.5,45.1Zm0,37.4a10.85,10.85,0,1,1,10.9-10.8A10.51,10.51,0,0,1,658.5,82.5Z" transform="translate(-166.8 -23.6)"/></svg>