<svg xmlns="http://www.w3.org/2000/svg" width="64.041" height="73.189" viewBox="0 0 64.041 73.189"><defs><style>.a{fill:#fff;}</style></defs><path class="a" d="M61.754,4.574H44.6L43.256,1.9A3.431,3.431,0,0,0,40.183,0H23.844a3.391,3.391,0,0,0-3.059,1.9L19.441,4.574H2.287A2.287,2.287,0,0,0,0,6.862v4.574a2.287,2.287,0,0,0,2.287,2.287H61.754a2.287,2.287,0,0,0,2.287-2.287V6.862A2.287,2.287,0,0,0,61.754,4.574ZM7.6,66.757a6.862,6.862,0,0,0,6.847,6.433H49.589a6.861,6.861,0,0,0,6.847-6.432L59.466,18.3H4.574Z"/></svg>